<svg width="23" height="23" viewBox="0 0 23 23" fill="none" xmlns="http://www.w3.org/2000/svg">
<path fill-rule="evenodd" clip-rule="evenodd" d="M8.86307 12.0154H21.5801C21.9347 12.0154 22.2222 12.304 22.2222 12.6599V14.7883C22.2222 15.0841 22.0236 15.3334 21.753 15.4092V17.2657C21.753 18.7654 20.8059 20.0469 19.4806 20.5401L19.8132 21.0461C20.0084 21.3431 19.9266 21.7429 19.6307 21.9389C19.5218 22.0109 19.399 22.0454 19.2776 22.0454C19.0692 22.0454 18.8646 21.9437 18.7412 21.7557L18.0843 20.7564H4.36012L3.70325 21.7557C3.57983 21.9437 3.37527 22.0454 3.16669 22.0454C3.04531 22.0454 2.92264 22.0111 2.8137 21.9389C2.51769 21.7429 2.43596 21.3431 2.6313 21.0461L2.96383 20.5401C1.63851 20.0469 0.691346 18.7654 0.691346 17.2657V15.4092C0.420685 15.3334 0.222168 15.0841 0.222168 14.7883V12.6599C0.222168 12.304 0.509673 12.0154 0.864295 12.0154H1.5475V2.48105C1.5475 1.13802 2.63603 0.0454102 3.97404 0.0454102C5.01204 0.0454102 5.93483 0.707859 6.27033 1.69386L6.51702 2.42202C7.83952 2.33165 9.09648 3.1719 9.48217 4.50054L9.67295 5.15779C9.7206 5.32189 9.70135 5.49831 9.61942 5.64815C9.53747 5.79803 9.39958 5.90909 9.23608 5.95692L4.92983 7.21633C4.60056 7.31989 4.22317 7.11163 4.1337 6.7778L3.94296 6.12055C3.56231 4.80918 4.15218 3.4417 5.2866 2.79404L5.05475 2.10967C4.89709 1.6463 4.46264 1.33447 3.97404 1.33447C3.34416 1.33447 2.83176 1.84881 2.83176 2.48105V12.0154H4.1173C4.15937 11.7003 4.42757 11.457 4.75302 11.457H8.22735C8.5528 11.457 8.82102 11.7003 8.86307 12.0154ZM8.26035 4.89958L8.24918 4.86114C8.04572 4.16014 7.40519 3.70386 6.71189 3.70386C6.56403 3.70386 6.41377 3.72462 6.26489 3.76818C5.41757 4.01599 4.92906 4.90946 5.17596 5.75995L5.18714 5.79841L8.26035 4.89958ZM5.39515 12.7461H7.58522V16.9126H5.39515V12.7461ZM20.4688 15.2592C20.4688 14.8841 20.6543 14.5516 20.9379 14.3493L20.9381 13.3044H8.86953V17.5572C8.86953 17.9131 8.58202 18.2017 8.2274 18.2017H4.75306C4.39844 18.2017 4.11093 17.9131 4.11093 17.5572V13.3044H1.50642V14.3493C1.79014 14.5516 1.9756 14.8841 1.9756 15.2592V17.2657C1.9756 18.4798 2.95954 19.4674 4.16894 19.4674H18.2754C19.4848 19.4674 20.4688 18.4798 20.4688 17.2657V15.2592Z" fill="#6F7075"/>
</svg>
