<svg width="28" height="23" viewBox="0 0 28 23" fill="none" xmlns="http://www.w3.org/2000/svg">
<path fill-rule="evenodd" clip-rule="evenodd" d="M1.30699 21.3799C1.30699 21.7351 1.06403 22.0227 0.764579 22.0227C0.465122 22.0227 0.222168 21.7351 0.222168 21.3799V0.665563C0.222168 0.310652 0.465122 0.0227051 0.764579 0.0227051C1.06403 0.0227051 1.30699 0.310652 1.30699 0.665563V12.146H26.1373V9.23702C26.1373 8.88212 26.3803 8.59416 26.6798 8.59416C26.9792 8.59416 27.2222 8.88212 27.2222 9.23702V21.3799C27.2222 21.7351 26.9792 22.0227 26.6798 22.0227C26.3803 22.0227 26.1373 21.7351 26.1373 21.3799V17.0031H1.30699V21.3799ZM26.1373 15.7174V13.4317H1.30699V15.7174H26.1373Z" fill="#6F7075"/>
<path fill-rule="evenodd" clip-rule="evenodd" d="M3.13794 6.31641C3.13794 4.6854 4.46006 3.36328 6.09106 3.36328C7.72131 3.36517 9.0423 4.68635 9.04419 6.31641C9.04419 7.94741 7.72207 9.26953 6.09106 9.26953C4.46006 9.26953 3.13794 7.94741 3.13794 6.31641ZM4.22277 6.31641C4.22277 7.34831 5.05916 8.1847 6.09106 8.1847C7.1224 8.18357 7.95823 7.34792 7.95936 6.31641C7.95936 5.2847 7.12277 4.44811 6.09106 4.44811C5.05916 4.44811 4.22277 5.2847 4.22277 6.31641Z" fill="#6F7075"/>
<path fill-rule="evenodd" clip-rule="evenodd" d="M24.4098 9.27896H10.5481C10.2487 9.27896 10.0057 9.03638 10.0057 8.73655V3.31243C10.0057 3.01299 10.2487 2.77002 10.5481 2.77002H18.9857C22.2795 2.7738 24.9488 5.44309 24.9522 8.73655C24.9522 9.03638 24.7095 9.27896 24.4098 9.27896ZM18.9857 3.85485H11.0905V8.19413H23.8372C23.5581 5.72503 21.4707 3.85824 18.9857 3.85485Z" fill="#6F7075"/>
</svg>
