<svg width="36" height="33" viewBox="0 0 36 33" fill="none" xmlns="http://www.w3.org/2000/svg">
<path d="M2.44608 31.7707L0.097229 28.2731L8.79938 21.3622L9.50893 22.2578L11.7844 20.4667L13.3584 22.5788L11.0014 24.2854L11.6294 25.0204L2.71521 32.1171L2.44608 31.7707Z" fill="#B2D235"/>
<path d="M22.868 3.49514C24.1321 3.49514 25.331 3.75704 26.432 4.21326L28.3976 1.66182C26.7257 0.816976 24.8498 0.326965 22.868 0.326965C17.1345 0.326965 12.2819 4.28929 10.7078 9.70476H13.9375C15.3811 6.06347 18.8391 3.49514 22.868 3.49514Z" fill="#B2D235"/>
<path d="M31.0487 3.43805L29.7927 4.68842L28.8466 5.63465L28.8303 5.6431L22.5423 12.1653L20.014 8.34661L17.0779 10.1039L21.9143 17.8089L31.1628 8.40574C32.0192 9.89267 32.5249 11.6246 32.5249 13.4917C32.5249 19.0086 28.1942 23.4862 22.8766 23.4862C19.1903 23.4862 15.9769 21.3319 14.3539 18.1722H11.0101C12.837 23.123 17.4612 26.6544 22.8766 26.6544C29.8824 26.6544 35.5832 20.7489 35.5832 13.4917C35.5751 9.4618 33.8135 5.85431 31.0487 3.43805Z" fill="#B2D235"/>
<path d="M10.7081 9.7038C10.7081 9.7038 9.33792 14.2998 11.0098 18.1692H14.3537C14.3537 18.1692 12.4126 14.0885 13.9377 9.7038H10.7081Z" fill="#B2D235"/>
</svg>
