<svg width="127" height="93" viewBox="0 0 127 93" fill="none" xmlns="http://www.w3.org/2000/svg">
<mask id="mask0_1_924" style="mask-type:luminance" maskUnits="userSpaceOnUse" x="23" y="0" width="82" height="93">
<path d="M104.128 0H23.0422V92.57H104.128V0Z" fill="white"/>
</mask>
<g mask="url(#mask0_1_924)">
<path d="M25.6982 23.5099L62.8052 2.08522C63.0426 1.94826 63.3116 1.87616 63.5854 1.87616C63.8593 1.87616 64.1283 1.94827 64.3657 2.08522L101.473 23.5098C101.71 23.6467 101.907 23.8438 102.044 24.081C102.181 24.3182 102.253 24.5873 102.253 24.8612V67.7104C102.253 67.9843 102.181 68.2533 102.044 68.4907C101.907 68.7281 101.71 68.9247 101.473 69.0619L64.3657 90.4865C64.1283 90.6232 63.8593 90.6955 63.5854 90.6955C63.3116 90.6955 63.0426 90.6232 62.8052 90.4865L25.6982 69.0619C25.461 68.9247 25.264 68.7281 25.127 68.4907C24.99 68.2533 24.918 67.9843 24.918 67.7104V24.8612C24.918 24.5873 24.99 24.3182 25.127 24.081C25.264 23.8438 25.461 23.6468 25.6982 23.5099Z" fill="white"/>
<path d="M101.473 23.5098L64.3657 2.08522C64.1283 1.94827 63.8593 1.87616 63.5854 1.87616C63.3116 1.87616 63.0426 1.94826 62.8052 2.08522L25.6982 23.5099C25.461 23.6468 25.264 23.8438 25.127 24.081C24.99 24.3182 24.918 24.5873 24.918 24.8612V67.7104C24.918 67.9843 24.99 68.2533 25.127 68.4907C25.264 68.7281 25.461 68.9247 25.6982 69.0619M101.473 23.5098L102.41 21.8855M101.473 23.5098C101.71 23.6467 101.907 23.8438 102.044 24.081C102.181 24.3182 102.253 24.5873 102.253 24.8612V67.7104C102.253 67.9843 102.181 68.2533 102.044 68.4907C101.907 68.7281 101.71 68.9247 101.473 69.0619M101.473 69.0619L102.41 70.6862M101.473 69.0619L64.3657 90.4865C64.1283 90.6232 63.8593 90.6955 63.5854 90.6955C63.3116 90.6955 63.0426 90.6232 62.8052 90.4865L25.6982 69.0619M25.6982 69.0619L24.7614 70.6846" stroke="url(#paint0_linear_1_924)" stroke-width="7"/>
<path d="M95.3841 63.0981V29.6111C95.3841 29.1397 95.2603 28.6767 95.0251 28.2684C94.7898 27.8602 94.4517 27.5212 94.0445 27.2856L65.1078 10.5421C64.7005 10.3064 64.2386 10.1824 63.7681 10.1824C63.2976 10.1824 62.8357 10.3064 62.4284 10.5421L33.4918 27.2856C33.0845 27.5212 32.7462 27.8602 32.511 28.2684C32.2758 28.6767 32.1521 29.1397 32.1521 29.6111V63.0981C32.1521 63.5692 32.2758 64.0322 32.511 64.4405C32.7462 64.8488 33.0845 65.1875 33.4918 65.4233L62.4284 82.167C62.8357 82.4022 63.2976 82.5266 63.7681 82.5266C64.2386 82.5266 64.7005 82.4022 65.1078 82.167L94.0445 65.4233C94.4517 65.1875 94.7898 64.8488 95.0251 64.4405C95.2603 64.0322 95.3841 63.5692 95.3841 63.0981Z" fill="url(#paint1_linear_1_924)"/>
<path d="M71.5461 24.1153C67.1874 24.1153 64.4223 28.9744 63.768 28.9744C63.1963 28.9744 60.5443 24.1153 55.99 24.1153C51.5602 24.1153 47.9433 27.7686 47.7066 32.1923C47.5731 34.6913 48.3785 36.5928 49.5138 38.3156C51.7815 41.7573 61.6975 50.042 63.7825 50.042C65.9131 50.042 75.7393 41.7871 78.0221 38.3157C79.1602 36.5852 79.963 34.6914 79.8295 32.1924C79.5927 27.7686 75.9761 24.1153 71.5461 24.1153Z" fill="white"/>
</g>
<path d="M25.1857 86.813H0L5.35865 73.9518L0 60.0189H25.1857V86.813Z" fill="url(#paint2_linear_1_924)"/>
<path d="M101.814 61.0906H127L121.641 73.9518L127 87.8848H101.814V61.0906Z" fill="url(#paint3_linear_1_924)"/>
<path d="M115.747 55.7318H15.0044V82.5259H115.747V55.7318Z" fill="url(#paint4_linear_1_924)"/>
<path d="M37.3548 64.5864V73.3192H39.0053V74.4895H34.2639V73.3192H35.9144V66.8221C35.4843 67.2423 34.9041 67.5627 34.1739 67.7824L33.7388 66.5821C33.9989 66.5022 34.2589 66.3924 34.519 66.252C34.7891 66.1121 35.0392 65.9519 35.2692 65.7718C35.4993 65.5917 35.6944 65.402 35.8544 65.2016C36.0244 65.0017 36.1445 64.7965 36.2145 64.5864H37.3548Z" fill="#222222"/>
<path d="M40.8125 69.522C40.8125 68.6721 40.9075 67.9267 41.0976 67.2863C41.2877 66.6362 41.5477 66.0961 41.8778 65.6658C42.2179 65.236 42.618 64.9107 43.0781 64.6905C43.5383 64.4707 44.0384 64.3604 44.5786 64.3604C45.1187 64.3604 45.6188 64.4707 46.079 64.6905C46.5391 64.9107 46.9342 65.236 47.2643 65.6658C47.6044 66.0961 47.8695 66.6362 48.0595 67.2863C48.2596 67.9267 48.3596 68.6721 48.3596 69.522C48.3596 70.3826 48.2596 71.1377 48.0595 71.7877C47.8695 72.4281 47.6044 72.9682 47.2643 73.4082C46.9342 73.8385 46.5391 74.1638 46.079 74.3835C45.6188 74.6038 45.1187 74.7136 44.5786 74.7136C44.0384 74.7136 43.5383 74.6038 43.0781 74.3835C42.618 74.1638 42.2179 73.8385 41.8778 73.4082C41.5477 72.9682 41.2877 72.4281 41.0976 71.7877C40.9075 71.1377 40.8125 70.3826 40.8125 69.522ZM42.2679 69.522C42.2679 70.2025 42.3229 70.7974 42.433 71.3075C42.553 71.808 42.7131 72.2228 42.9131 72.5529C43.1231 72.883 43.3682 73.1333 43.6483 73.3032C43.9284 73.4634 44.2384 73.5432 44.5786 73.5432C45.2587 73.5432 45.8139 73.2185 46.244 72.5679C46.6841 71.9077 46.9042 70.8928 46.9042 69.522C46.9042 68.1715 46.6841 67.1716 46.244 66.521C45.8139 65.8608 45.2587 65.5307 44.5786 65.5307C43.8984 65.5307 43.3432 65.8608 42.9131 66.521C42.483 67.1716 42.2679 68.1715 42.2679 69.522Z" fill="#222222"/>
<path d="M59.5765 72.0401C59.5765 71.6403 59.4462 71.3102 59.1864 71.0498C58.9259 70.7899 58.6012 70.56 58.2111 70.3596C57.8306 70.1597 57.4105 69.9646 56.9507 69.7744C56.5006 69.5847 56.0805 69.3543 55.6904 69.0842C55.3099 68.8141 54.99 68.484 54.7301 68.0939C54.4697 67.6941 54.34 67.1888 54.34 66.5784C54.34 66.2783 54.3946 65.9632 54.505 65.6331C54.6251 65.303 54.8148 64.9981 55.0752 64.7178C55.3351 64.4381 55.6754 64.2076 56.0955 64.0276C56.5252 63.8475 57.0558 63.7575 57.6859 63.7575C58.516 63.7575 59.2062 63.9376 59.7565 64.2977C60.3165 64.6481 60.7168 65.228 60.9568 66.0382L59.6515 66.5034C59.4811 66.0136 59.2164 65.6283 58.8563 65.348C58.4962 65.0683 58.0407 64.9279 57.4909 64.9279C56.9807 64.9279 56.5654 65.0629 56.2455 65.333C55.9353 65.6031 55.7804 65.9782 55.7804 66.4584C55.7804 66.8688 55.9101 67.2086 56.1705 67.4787C56.4304 67.7391 56.7503 67.9738 57.1308 68.1839C57.5209 68.3843 57.941 68.5794 58.3911 68.7691C58.8509 68.9593 59.271 69.1844 59.6515 69.4443C60.0416 69.6945 60.3663 70.0048 60.6268 70.3746C60.8867 70.7347 61.0169 71.195 61.0169 71.755C61.0169 72.0653 60.9569 72.3954 60.8368 72.7453C60.7168 73.0856 60.5217 73.4055 60.2517 73.7056C59.9816 73.9961 59.6215 74.2362 59.1713 74.4259C58.7309 74.6161 58.1811 74.7109 57.5209 74.7109C56.6303 74.7109 55.8854 74.4961 55.2853 74.0657C54.6947 73.6258 54.2746 72.9104 54.0249 71.9201L55.3153 71.4549C55.6652 72.8455 56.4454 73.5406 57.6559 73.5406C58.2159 73.5406 58.6762 73.4007 59.0363 73.1204C59.3964 72.8305 59.5765 72.4704 59.5765 72.0401Z" fill="#222222"/>
<path d="M65.8238 67.4817C64.9836 67.4817 64.4386 67.897 64.1884 68.727L62.943 68.3069C63.3433 66.9768 64.3036 66.3113 65.8238 66.3113C66.8741 66.3113 67.6292 66.5765 68.0895 67.1065C68.5594 67.6269 68.7947 68.4821 68.7947 69.6723V73.2134C68.7947 73.3737 68.8295 73.4835 68.8997 73.5436C68.9795 73.5939 69.0749 73.6186 69.1848 73.6186C69.2646 73.6186 69.3498 73.6089 69.4398 73.5886C69.5299 73.5586 69.6151 73.5237 69.6949 73.4835L69.935 74.4138C69.7748 74.4942 69.6001 74.5639 69.4098 74.6239C69.2196 74.6839 69.0095 74.7139 68.7797 74.7139C68.4196 74.7139 68.1146 74.6293 67.8644 74.4588C67.6243 74.2788 67.4791 73.939 67.4293 73.4385C67.2792 73.5987 67.1094 73.759 66.9191 73.9187C66.7289 74.0687 66.5188 74.2038 66.289 74.3238C66.0687 74.4438 65.8287 74.5392 65.5688 74.6089C65.3185 74.6791 65.0538 74.7139 64.7735 74.7139C64.4734 74.7139 64.1884 74.6539 63.9183 74.5339C63.6584 74.424 63.4333 74.2691 63.2431 74.0687C63.0529 73.8688 62.9028 73.6336 62.793 73.3635C62.6831 73.0838 62.6279 72.7837 62.6279 72.4632C62.6279 71.6433 62.9028 71.0029 63.4532 70.5426C64.0131 70.0828 64.7837 69.8524 65.7638 69.8524C66.0339 69.8524 66.304 69.8728 66.574 69.9124C66.8441 69.9526 67.104 70.0126 67.3543 70.0925V69.1472C67.3543 68.6274 67.2192 68.2222 66.9491 67.9318C66.6791 67.6317 66.304 67.4817 65.8238 67.4817ZM65.2087 73.5436C65.5886 73.5436 65.9589 73.4535 66.319 73.2735C66.6893 73.0838 67.0343 72.8287 67.3543 72.5082V71.0528C67.1442 70.9831 66.9191 70.9279 66.6791 70.8877C66.439 70.8481 66.2038 70.8277 65.9739 70.8277C65.7236 70.8277 65.4836 70.8529 65.2537 70.9027C65.0238 70.9531 64.8185 71.0378 64.6385 71.1578C64.4686 71.2778 64.3282 71.4381 64.2184 71.638C64.1182 71.8282 64.0683 72.0634 64.0683 72.3432C64.0683 72.6733 64.1734 72.9584 64.3834 73.1984C64.5935 73.4289 64.8684 73.5436 65.2087 73.5436Z" fill="#222222"/>
<path d="M75.2826 74.4857H73.392L70.8413 66.5332H72.3267L74.4123 73.1503L76.4979 66.5332H77.8333L75.2826 74.4857Z" fill="#222222"/>
<path d="M83.1312 73.5436C83.6413 73.5436 84.0818 73.4487 84.4516 73.2585C84.832 73.0586 85.137 72.8485 85.3668 72.6283L86.012 73.4085C85.7023 73.759 85.2972 74.0639 84.7967 74.3238C84.2967 74.5842 83.7265 74.7139 83.0862 74.7139C82.5562 74.7139 82.0659 74.6293 81.6158 74.4588C81.1657 74.2788 80.7755 74.0141 80.4455 73.6636C80.1255 73.3035 79.8705 72.8635 79.6802 72.3432C79.5002 71.8132 79.4102 71.2028 79.4102 70.5126C79.4102 69.8224 79.5002 69.2174 79.6802 68.697C79.8603 68.167 80.1105 67.7271 80.4304 67.3766C80.7509 67.0165 81.126 66.7518 81.5558 66.5814C81.9962 66.4013 82.471 66.3113 82.9812 66.3113C83.4517 66.3113 83.8814 66.3863 84.2715 66.5364C84.6718 66.6768 85.0121 66.8965 85.2918 67.1966C85.5721 67.4967 85.787 67.8718 85.937 68.3219C86.0972 68.7624 86.1771 69.2822 86.1771 69.8824V70.9327H80.9256C80.9856 71.8234 81.216 72.4836 81.6158 72.9134C82.0263 73.3335 82.531 73.5436 83.1312 73.5436ZM82.9962 67.4817C82.456 67.4817 81.9962 67.6821 81.6158 68.0818C81.246 68.472 81.021 69.0722 80.9406 69.8824H84.7517C84.7517 69.1123 84.5968 68.5223 84.2865 68.1118C83.9864 67.6917 83.5567 67.4817 82.9962 67.4817Z" fill="#222222"/>
<path d="M91.0658 67.4066C90.6859 67.4066 90.3659 67.4918 90.1055 67.6617C89.8456 67.8321 89.7154 68.092 89.7154 68.442C89.7154 68.7222 89.8156 68.9575 90.0155 69.1472C90.2159 69.3272 90.4656 69.4923 90.7657 69.6423C91.0658 69.7924 91.3862 69.9424 91.726 70.0925C92.0764 70.2425 92.4012 70.4226 92.7012 70.6326C93.0013 70.8331 93.2516 71.0828 93.4515 71.3829C93.6519 71.6733 93.7515 72.0431 93.7515 72.4932C93.7515 73.1636 93.5067 73.7038 93.0163 74.1137C92.5266 74.514 91.846 74.7139 90.9758 74.7139C90.1157 74.7139 89.4555 74.514 88.9952 74.1137C88.5451 73.7038 88.2353 73.1384 88.0649 72.4182L89.3103 71.9981C89.3607 72.3282 89.4405 72.5983 89.5504 72.8083C89.6704 73.0184 89.8108 73.1834 89.9705 73.3035C90.1307 73.4235 90.3059 73.5087 90.4956 73.5586C90.6859 73.5988 90.8809 73.6186 91.0808 73.6186C91.4211 73.6186 91.7211 73.5387 91.981 73.3785C92.2415 73.2086 92.3712 72.9487 92.3712 72.5983C92.3712 72.3384 92.2715 72.1235 92.0711 71.9531C91.8712 71.7832 91.6209 71.6229 91.3209 71.4729C91.0208 71.3229 90.696 71.1728 90.3456 71.0228C90.0059 70.8631 89.6854 70.6728 89.3853 70.4526C89.0852 70.2329 88.8355 69.9676 88.6351 69.6573C88.4352 69.3374 88.335 68.9425 88.335 68.472C88.335 68.2421 88.38 68.002 88.4701 67.7517C88.5601 67.4918 88.7101 67.2566 88.9202 67.0465C89.1404 66.8364 89.4255 66.6617 89.7754 66.5213C90.1355 66.3815 90.576 66.3113 91.0958 66.3113C91.786 66.3113 92.3562 66.4667 92.8063 66.7764C93.2666 67.0765 93.5967 67.5867 93.7966 68.3069L92.5512 68.727C92.4414 68.3171 92.2613 67.9972 92.011 67.7667C91.7613 67.5267 91.4463 67.4066 91.0658 67.4066Z" fill="#222222"/>
<mask id="mask1_1_924" style="mask-type:luminance" maskUnits="userSpaceOnUse" x="32" y="62" width="63" height="14">
<path d="M94.2912 63.2274H33.2026V75.0168H94.2912V63.2274Z" fill="white" stroke="white" stroke-width="0.6"/>
<path d="M37.3548 64.588V73.3208H39.0053V74.4911H34.2639V73.3208H35.9144V66.8237C35.4843 67.2439 34.9041 67.5643 34.1739 67.784L33.7388 66.5836C33.9989 66.5038 34.2589 66.3939 34.519 66.2535C34.7891 66.1137 35.0392 65.9534 35.2692 65.7734C35.4993 65.5933 35.6944 65.4036 35.8544 65.2032C36.0244 65.0033 36.1445 64.7981 36.2145 64.588H37.3548Z" stroke="white" stroke-width="0.6"/>
<path d="M40.8125 69.5236C40.8125 68.6736 40.9075 67.9282 41.0976 67.2879C41.2877 66.6378 41.5477 66.0977 41.8778 65.6674C42.2179 65.2376 42.618 64.9123 43.0781 64.692C43.5383 64.4723 44.0384 64.3619 44.5786 64.3619C45.1187 64.3619 45.6188 64.4723 46.079 64.692C46.5391 64.9123 46.9342 65.2376 47.2643 65.6674C47.6044 66.0977 47.8695 66.6378 48.0595 67.2879C48.2596 67.9282 48.3596 68.6736 48.3596 69.5236C48.3596 70.3842 48.2596 71.1393 48.0595 71.7893C47.8695 72.4297 47.6044 72.9698 47.2643 73.4098C46.9342 73.8401 46.5391 74.1654 46.079 74.3851C45.6188 74.6053 45.1187 74.7152 44.5786 74.7152C44.0384 74.7152 43.5383 74.6053 43.0781 74.3851C42.618 74.1654 42.2179 73.8401 41.8778 73.4098C41.5477 72.9698 41.2877 72.4297 41.0976 71.7893C40.9075 71.1393 40.8125 70.3842 40.8125 69.5236ZM42.2679 69.5236C42.2679 70.2041 42.3229 70.799 42.433 71.3091C42.553 71.8096 42.7131 72.2244 42.9131 72.5545C43.1231 72.8846 43.3682 73.1349 43.6483 73.3047C43.9284 73.465 44.2384 73.5448 44.5786 73.5448C45.2587 73.5448 45.8139 73.2201 46.244 72.5695C46.6841 71.9093 46.9042 70.8943 46.9042 69.5236C46.9042 68.1731 46.6841 67.1732 46.244 66.5226C45.8139 65.8624 45.2587 65.5323 44.5786 65.5323C43.8984 65.5323 43.3432 65.8624 42.9131 66.5226C42.483 67.1732 42.2679 68.1731 42.2679 69.5236Z" stroke="white" stroke-width="0.6"/>
<path d="M59.5765 72.0458C59.5765 71.6461 59.4462 71.316 59.1864 71.0555C58.9259 70.7956 58.6012 70.5657 58.2111 70.3653C57.8306 70.1654 57.4105 69.9704 56.9507 69.7801C56.5006 69.5904 56.0805 69.36 55.6904 69.0899C55.3099 68.8198 54.99 68.4897 54.7301 68.0996C54.4697 67.6998 54.34 67.1945 54.34 66.5841C54.34 66.284 54.3946 65.9689 54.505 65.6388C54.6251 65.3087 54.8148 65.0038 55.0752 64.7235C55.3351 64.4438 55.6754 64.2134 56.0955 64.0333C56.5252 63.8533 57.0558 63.7632 57.6859 63.7632C58.516 63.7632 59.2062 63.9433 59.7565 64.3034C60.3165 64.6539 60.7168 65.2337 60.9568 66.044L59.6515 66.5091C59.4811 66.0193 59.2164 65.634 58.8563 65.3537C58.4962 65.074 58.0407 64.9336 57.4909 64.9336C56.9807 64.9336 56.5654 65.0687 56.2455 65.3387C55.9353 65.6088 55.7804 65.9839 55.7804 66.4641C55.7804 66.8746 55.9101 67.2143 56.1705 67.4844C56.4304 67.7449 56.7503 67.9796 57.1308 68.1896C57.5209 68.3901 57.941 68.5851 58.3911 68.7748C58.8509 68.9651 59.271 69.1901 59.6515 69.45C60.0416 69.7003 60.3663 70.0106 60.6268 70.3803C60.8867 70.7404 61.0169 71.2008 61.0169 71.7608C61.0169 72.071 60.9569 72.4011 60.8368 72.7511C60.7168 73.0914 60.5217 73.4113 60.2517 73.7114C59.9816 74.0018 59.6215 74.2419 59.1713 74.4316C58.7309 74.6218 58.1811 74.7167 57.5209 74.7167C56.6303 74.7167 55.8854 74.5018 55.2853 74.0715C54.6947 73.6315 54.2746 72.9161 54.0249 71.9258L55.3153 71.4607C55.6652 72.8513 56.4454 73.5463 57.6559 73.5463C58.2159 73.5463 58.6762 73.4065 59.0363 73.1262C59.3964 72.8363 59.5765 72.4762 59.5765 72.0458Z" stroke="white" stroke-width="0.6"/>
<path d="M65.8238 67.4832C64.9836 67.4832 64.4386 67.8985 64.1884 68.7286L62.943 68.3085C63.3433 66.9784 64.3036 66.3129 65.8238 66.3129C66.8741 66.3129 67.6292 66.5781 68.0895 67.1081C68.5594 67.6285 68.7947 68.4837 68.7947 69.6739V73.215C68.7947 73.3753 68.8295 73.4851 68.8997 73.5451C68.9795 73.5955 69.0749 73.6202 69.1848 73.6202C69.2646 73.6202 69.3498 73.6105 69.4398 73.5902C69.5299 73.5601 69.6151 73.5253 69.6949 73.4851L69.935 74.4154C69.7748 74.4958 69.6001 74.5655 69.4098 74.6255C69.2196 74.6855 69.0095 74.7155 68.7797 74.7155C68.4196 74.7155 68.1146 74.6308 67.8644 74.4604C67.6243 74.2804 67.4791 73.9406 67.4293 73.4401C67.2792 73.6003 67.1094 73.7606 66.9191 73.9203C66.7289 74.0703 66.5188 74.2053 66.289 74.3254C66.0687 74.4454 65.8287 74.5408 65.5688 74.6105C65.3185 74.6807 65.0538 74.7155 64.7735 74.7155C64.4734 74.7155 64.1884 74.6555 63.9183 74.5355C63.6584 74.4256 63.4333 74.2707 63.2431 74.0703C63.0529 73.8704 62.9028 73.6352 62.793 73.3651C62.6831 73.0854 62.6279 72.7853 62.6279 72.4648C62.6279 71.6449 62.9028 71.0045 63.4532 70.5442C64.0131 70.0844 64.7837 69.854 65.7638 69.854C66.0339 69.854 66.304 69.8743 66.574 69.914C66.8441 69.9542 67.104 70.0142 67.3543 70.0941V69.1488C67.3543 68.629 67.2192 68.2238 66.9491 67.9334C66.6791 67.6333 66.304 67.4832 65.8238 67.4832ZM65.2087 73.5451C65.5886 73.5451 65.9589 73.4551 66.319 73.2751C66.6893 73.0854 67.0343 72.8303 67.3543 72.5098V71.0544C67.1442 70.9847 66.9191 70.9295 66.6791 70.8893C66.439 70.8497 66.2038 70.8293 65.9739 70.8293C65.7236 70.8293 65.4836 70.8545 65.2537 70.9043C65.0238 70.9547 64.8185 71.0394 64.6385 71.1594C64.4686 71.2794 64.3282 71.4397 64.2184 71.6395C64.1182 71.8298 64.0683 72.065 64.0683 72.3448C64.0683 72.6749 64.1734 72.96 64.3834 73.2C64.5935 73.4305 64.8684 73.5451 65.2087 73.5451Z" stroke="white" stroke-width="0.6"/>
<path d="M75.2826 74.4914H73.392L70.8413 66.5389H72.3267L74.4123 73.156L76.4979 66.5389H77.8333L75.2826 74.4914Z" stroke="white" stroke-width="0.6"/>
<path d="M83.1312 73.5451C83.6413 73.5451 84.0818 73.4503 84.4516 73.26C84.832 73.0602 85.137 72.8501 85.3668 72.6299L86.012 73.4101C85.7023 73.7606 85.2972 74.0655 84.7967 74.3254C84.2967 74.5858 83.7265 74.7155 83.0862 74.7155C82.5562 74.7155 82.0659 74.6308 81.6158 74.4604C81.1657 74.2804 80.7755 74.0156 80.4455 73.6652C80.1255 73.3051 79.8705 72.8651 79.6802 72.3448C79.5002 71.8148 79.4102 71.2044 79.4102 70.5142C79.4102 69.824 79.5002 69.219 79.6802 68.6986C79.8603 68.1686 80.1105 67.7287 80.4304 67.3782C80.7509 67.0181 81.126 66.7534 81.5558 66.583C81.9962 66.4029 82.471 66.3129 82.9812 66.3129C83.4517 66.3129 83.8814 66.3879 84.2715 66.5379C84.6718 66.6783 85.0121 66.8981 85.2918 67.1981C85.5721 67.4982 85.787 67.8734 85.937 68.3235C86.0972 68.764 86.1771 69.2838 86.1771 69.884V70.9343H80.9256C80.9856 71.825 81.216 72.4852 81.6158 72.9149C82.0263 73.3351 82.531 73.5451 83.1312 73.5451ZM82.9962 67.4832C82.456 67.4832 81.9962 67.6837 81.6158 68.0834C81.246 68.4735 81.021 69.0737 80.9406 69.884H84.7517C84.7517 69.1139 84.5968 68.5239 84.2865 68.1134C83.9864 67.6933 83.5567 67.4832 82.9962 67.4832Z" stroke="white" stroke-width="0.6"/>
<path d="M91.0658 67.4082C90.6859 67.4082 90.3659 67.4934 90.1055 67.6633C89.8456 67.8337 89.7154 68.0936 89.7154 68.4435C89.7154 68.7238 89.8156 68.9591 90.0155 69.1488C90.2159 69.3288 90.4656 69.4939 90.7657 69.6439C91.0658 69.794 91.3862 69.944 91.726 70.0941C92.0764 70.2441 92.4012 70.4242 92.7012 70.6342C93.0013 70.8346 93.2516 71.0844 93.4515 71.3845C93.6519 71.6749 93.7515 72.0447 93.7515 72.4948C93.7515 73.1652 93.5067 73.7054 93.0163 74.1153C92.5266 74.5156 91.846 74.7155 90.9758 74.7155C90.1157 74.7155 89.4555 74.5156 88.9952 74.1153C88.5451 73.7054 88.2353 73.14 88.0649 72.4198L89.3103 71.9997C89.3607 72.3298 89.4405 72.5998 89.5504 72.8099C89.6704 73.02 89.8108 73.185 89.9705 73.3051C90.1307 73.4251 90.3059 73.5103 90.4956 73.5602C90.6859 73.6003 90.8809 73.6202 91.0808 73.6202C91.4211 73.6202 91.7211 73.5403 91.981 73.3801C92.2415 73.2102 92.3712 72.9503 92.3712 72.5998C92.3712 72.3399 92.2715 72.1251 92.0711 71.9546C91.8712 71.7848 91.6209 71.6245 91.3209 71.4745C91.0208 71.3244 90.696 71.1744 90.3456 71.0243C90.0059 70.8647 89.6854 70.6744 89.3853 70.4542C89.0852 70.2345 88.8355 69.9692 88.6351 69.6589C88.4352 69.339 88.335 68.9441 88.335 68.4735C88.335 68.2437 88.38 68.0036 88.4701 67.7533C88.5601 67.4934 88.7101 67.2582 88.9202 67.0481C89.1404 66.838 89.4255 66.6633 89.7754 66.5229C90.1355 66.3831 90.576 66.3129 91.0958 66.3129C91.786 66.3129 92.3562 66.4683 92.8063 66.778C93.2666 67.0781 93.5967 67.5883 93.7966 68.3085L92.5512 68.7286C92.4414 68.3187 92.2613 67.9988 92.0111 67.7683C91.7613 67.5283 91.4463 67.4082 91.0658 67.4082Z" stroke="white" stroke-width="0.6"/>
</mask>
<g mask="url(#mask1_1_924)">
<path d="M37.3548 64.5851V73.3179H39.0053V74.4883H34.2639V73.3179H35.9144V66.8208C35.4843 67.241 34.9041 67.5614 34.1739 67.7812L33.7388 66.5808C33.9989 66.5009 34.2589 66.3911 34.519 66.2507C34.7891 66.1108 35.0392 65.9506 35.2692 65.7705C35.4993 65.5905 35.6944 65.4008 35.8544 65.2003C36.0244 65.0005 36.1445 64.7952 36.2145 64.5851H37.3548Z" stroke="white" stroke-width="0.6"/>
</g>
<mask id="mask2_1_924" style="mask-type:luminance" maskUnits="userSpaceOnUse" x="32" y="62" width="63" height="14">
<path d="M94.2912 63.2274H33.2026V75.0168H94.2912V63.2274Z" fill="white" stroke="white" stroke-width="0.6"/>
<path d="M37.3548 64.588V73.3208H39.0053V74.4911H34.2639V73.3208H35.9144V66.8237C35.4843 67.2439 34.9041 67.5643 34.1739 67.784L33.7388 66.5836C33.9989 66.5038 34.2589 66.3939 34.519 66.2535C34.7891 66.1137 35.0392 65.9534 35.2692 65.7734C35.4993 65.5933 35.6944 65.4036 35.8544 65.2032C36.0244 65.0033 36.1445 64.7981 36.2145 64.588H37.3548Z" stroke="white" stroke-width="0.6"/>
<path d="M40.8125 69.5236C40.8125 68.6736 40.9075 67.9282 41.0976 67.2879C41.2877 66.6378 41.5477 66.0977 41.8778 65.6674C42.2179 65.2376 42.618 64.9123 43.0781 64.692C43.5383 64.4723 44.0384 64.3619 44.5786 64.3619C45.1187 64.3619 45.6188 64.4723 46.079 64.692C46.5391 64.9123 46.9342 65.2376 47.2643 65.6674C47.6044 66.0977 47.8695 66.6378 48.0595 67.2879C48.2596 67.9282 48.3596 68.6736 48.3596 69.5236C48.3596 70.3842 48.2596 71.1393 48.0595 71.7893C47.8695 72.4297 47.6044 72.9698 47.2643 73.4098C46.9342 73.8401 46.5391 74.1654 46.079 74.3851C45.6188 74.6053 45.1187 74.7152 44.5786 74.7152C44.0384 74.7152 43.5383 74.6053 43.0781 74.3851C42.618 74.1654 42.2179 73.8401 41.8778 73.4098C41.5477 72.9698 41.2877 72.4297 41.0976 71.7893C40.9075 71.1393 40.8125 70.3842 40.8125 69.5236ZM42.2679 69.5236C42.2679 70.2041 42.3229 70.799 42.433 71.3091C42.553 71.8096 42.7131 72.2244 42.9131 72.5545C43.1231 72.8846 43.3682 73.1349 43.6483 73.3047C43.9284 73.465 44.2384 73.5448 44.5786 73.5448C45.2587 73.5448 45.8139 73.2201 46.244 72.5695C46.6841 71.9093 46.9042 70.8943 46.9042 69.5236C46.9042 68.1731 46.6841 67.1732 46.244 66.5226C45.8139 65.8624 45.2587 65.5323 44.5786 65.5323C43.8984 65.5323 43.3432 65.8624 42.9131 66.5226C42.483 67.1732 42.2679 68.1731 42.2679 69.5236Z" stroke="white" stroke-width="0.6"/>
<path d="M59.5765 72.0458C59.5765 71.6461 59.4462 71.316 59.1864 71.0555C58.9259 70.7956 58.6012 70.5657 58.2111 70.3653C57.8306 70.1654 57.4105 69.9704 56.9507 69.7801C56.5006 69.5904 56.0805 69.36 55.6904 69.0899C55.3099 68.8198 54.99 68.4897 54.7301 68.0996C54.4697 67.6998 54.34 67.1945 54.34 66.5841C54.34 66.284 54.3946 65.9689 54.505 65.6388C54.6251 65.3087 54.8148 65.0038 55.0752 64.7235C55.3351 64.4438 55.6754 64.2134 56.0955 64.0333C56.5252 63.8533 57.0558 63.7632 57.6859 63.7632C58.516 63.7632 59.2062 63.9433 59.7565 64.3034C60.3165 64.6539 60.7168 65.2337 60.9568 66.044L59.6515 66.5091C59.4811 66.0193 59.2164 65.634 58.8563 65.3537C58.4962 65.074 58.0407 64.9336 57.4909 64.9336C56.9807 64.9336 56.5654 65.0687 56.2455 65.3387C55.9353 65.6088 55.7804 65.9839 55.7804 66.4641C55.7804 66.8746 55.9101 67.2143 56.1705 67.4844C56.4304 67.7449 56.7503 67.9796 57.1308 68.1896C57.5209 68.3901 57.941 68.5851 58.3911 68.7748C58.8509 68.9651 59.271 69.1901 59.6515 69.45C60.0416 69.7003 60.3663 70.0106 60.6268 70.3803C60.8867 70.7404 61.0169 71.2008 61.0169 71.7608C61.0169 72.071 60.9569 72.4011 60.8368 72.7511C60.7168 73.0914 60.5217 73.4113 60.2517 73.7114C59.9816 74.0018 59.6215 74.2419 59.1713 74.4316C58.7309 74.6218 58.1811 74.7167 57.5209 74.7167C56.6303 74.7167 55.8854 74.5018 55.2853 74.0715C54.6947 73.6315 54.2746 72.9161 54.0249 71.9258L55.3153 71.4607C55.6652 72.8513 56.4454 73.5463 57.6559 73.5463C58.2159 73.5463 58.6762 73.4065 59.0363 73.1262C59.3964 72.8363 59.5765 72.4762 59.5765 72.0458Z" stroke="white" stroke-width="0.6"/>
<path d="M65.8238 67.4832C64.9836 67.4832 64.4386 67.8985 64.1884 68.7286L62.943 68.3085C63.3433 66.9784 64.3036 66.3129 65.8238 66.3129C66.8741 66.3129 67.6292 66.5781 68.0895 67.1081C68.5594 67.6285 68.7947 68.4837 68.7947 69.6739V73.215C68.7947 73.3753 68.8295 73.4851 68.8997 73.5451C68.9795 73.5955 69.0749 73.6202 69.1848 73.6202C69.2646 73.6202 69.3498 73.6105 69.4398 73.5902C69.5299 73.5601 69.6151 73.5253 69.6949 73.4851L69.935 74.4154C69.7748 74.4958 69.6001 74.5655 69.4098 74.6255C69.2196 74.6855 69.0095 74.7155 68.7797 74.7155C68.4196 74.7155 68.1146 74.6308 67.8644 74.4604C67.6243 74.2804 67.4791 73.9406 67.4293 73.4401C67.2792 73.6003 67.1094 73.7606 66.9191 73.9203C66.7289 74.0703 66.5188 74.2053 66.289 74.3254C66.0687 74.4454 65.8287 74.5408 65.5688 74.6105C65.3185 74.6807 65.0538 74.7155 64.7735 74.7155C64.4734 74.7155 64.1884 74.6555 63.9183 74.5355C63.6584 74.4256 63.4333 74.2707 63.2431 74.0703C63.0529 73.8704 62.9028 73.6352 62.793 73.3651C62.6831 73.0854 62.6279 72.7853 62.6279 72.4648C62.6279 71.6449 62.9028 71.0045 63.4532 70.5442C64.0131 70.0844 64.7837 69.854 65.7638 69.854C66.0339 69.854 66.304 69.8743 66.574 69.914C66.8441 69.9542 67.104 70.0142 67.3543 70.0941V69.1488C67.3543 68.629 67.2192 68.2238 66.9491 67.9334C66.6791 67.6333 66.304 67.4832 65.8238 67.4832ZM65.2087 73.5451C65.5886 73.5451 65.9589 73.4551 66.319 73.2751C66.6893 73.0854 67.0343 72.8303 67.3543 72.5098V71.0544C67.1442 70.9847 66.9191 70.9295 66.6791 70.8893C66.439 70.8497 66.2038 70.8293 65.9739 70.8293C65.7236 70.8293 65.4836 70.8545 65.2537 70.9043C65.0238 70.9547 64.8185 71.0394 64.6385 71.1594C64.4686 71.2794 64.3282 71.4397 64.2184 71.6395C64.1182 71.8298 64.0683 72.065 64.0683 72.3448C64.0683 72.6749 64.1734 72.96 64.3834 73.2C64.5935 73.4305 64.8684 73.5451 65.2087 73.5451Z" stroke="white" stroke-width="0.6"/>
<path d="M75.2826 74.4914H73.392L70.8413 66.5389H72.3267L74.4123 73.156L76.4979 66.5389H77.8333L75.2826 74.4914Z" stroke="white" stroke-width="0.6"/>
<path d="M83.1312 73.5451C83.6413 73.5451 84.0818 73.4503 84.4516 73.26C84.832 73.0602 85.137 72.8501 85.3668 72.6299L86.012 73.4101C85.7023 73.7606 85.2972 74.0655 84.7967 74.3254C84.2967 74.5858 83.7265 74.7155 83.0862 74.7155C82.5562 74.7155 82.0659 74.6308 81.6158 74.4604C81.1657 74.2804 80.7755 74.0156 80.4455 73.6652C80.1255 73.3051 79.8705 72.8651 79.6802 72.3448C79.5002 71.8148 79.4102 71.2044 79.4102 70.5142C79.4102 69.824 79.5002 69.219 79.6802 68.6986C79.8603 68.1686 80.1105 67.7287 80.4304 67.3782C80.7509 67.0181 81.126 66.7534 81.5558 66.583C81.9962 66.4029 82.471 66.3129 82.9812 66.3129C83.4517 66.3129 83.8814 66.3879 84.2715 66.5379C84.6718 66.6783 85.0121 66.8981 85.2918 67.1981C85.5721 67.4982 85.787 67.8734 85.937 68.3235C86.0972 68.764 86.1771 69.2838 86.1771 69.884V70.9343H80.9256C80.9856 71.825 81.216 72.4852 81.6158 72.9149C82.0263 73.3351 82.531 73.5451 83.1312 73.5451ZM82.9962 67.4832C82.456 67.4832 81.9962 67.6837 81.6158 68.0834C81.246 68.4735 81.021 69.0737 80.9406 69.884H84.7517C84.7517 69.1139 84.5968 68.5239 84.2865 68.1134C83.9864 67.6933 83.5567 67.4832 82.9962 67.4832Z" stroke="white" stroke-width="0.6"/>
<path d="M91.0658 67.4082C90.6859 67.4082 90.3659 67.4934 90.1055 67.6633C89.8456 67.8337 89.7154 68.0936 89.7154 68.4435C89.7154 68.7238 89.8156 68.9591 90.0155 69.1488C90.2159 69.3288 90.4656 69.4939 90.7657 69.6439C91.0658 69.794 91.3862 69.944 91.726 70.0941C92.0764 70.2441 92.4012 70.4242 92.7012 70.6342C93.0013 70.8346 93.2516 71.0844 93.4515 71.3845C93.6519 71.6749 93.7515 72.0447 93.7515 72.4948C93.7515 73.1652 93.5067 73.7054 93.0163 74.1153C92.5266 74.5156 91.846 74.7155 90.9758 74.7155C90.1157 74.7155 89.4555 74.5156 88.9952 74.1153C88.5451 73.7054 88.2353 73.14 88.0649 72.4198L89.3103 71.9997C89.3607 72.3298 89.4405 72.5998 89.5504 72.8099C89.6704 73.02 89.8108 73.185 89.9705 73.3051C90.1307 73.4251 90.3059 73.5103 90.4956 73.5602C90.6859 73.6003 90.8809 73.6202 91.0808 73.6202C91.4211 73.6202 91.7211 73.5403 91.981 73.3801C92.2415 73.2102 92.3712 72.9503 92.3712 72.5998C92.3712 72.3399 92.2715 72.1251 92.0711 71.9546C91.8712 71.7848 91.6209 71.6245 91.3209 71.4745C91.0208 71.3244 90.696 71.1744 90.3456 71.0243C90.0059 70.8647 89.6854 70.6744 89.3853 70.4542C89.0852 70.2345 88.8355 69.9692 88.6351 69.6589C88.4352 69.339 88.335 68.9441 88.335 68.4735C88.335 68.2437 88.38 68.0036 88.4701 67.7533C88.5601 67.4934 88.7101 67.2582 88.9202 67.0481C89.1404 66.838 89.4255 66.6633 89.7754 66.5229C90.1355 66.3831 90.576 66.3129 91.0958 66.3129C91.786 66.3129 92.3562 66.4683 92.8063 66.778C93.2666 67.0781 93.5967 67.5883 93.7966 68.3085L92.5512 68.7286C92.4414 68.3187 92.2613 67.9988 92.0111 67.7683C91.7613 67.5283 91.4463 67.4082 91.0658 67.4082Z" stroke="white" stroke-width="0.6"/>
</mask>
<g mask="url(#mask2_1_924)">
<path d="M40.8125 69.5207C40.8125 68.6708 40.9075 67.9254 41.0976 67.285C41.2877 66.635 41.5477 66.0948 41.8778 65.6645C42.2179 65.2347 42.618 64.9094 43.0781 64.6892C43.5383 64.4695 44.0384 64.3591 44.5786 64.3591C45.1187 64.3591 45.6188 64.4695 46.079 64.6892C46.5391 64.9094 46.9342 65.2347 47.2643 65.6645C47.6044 66.0948 47.8695 66.635 48.0595 67.285C48.2596 67.9254 48.3596 68.6708 48.3596 69.5207C48.3596 70.3813 48.2596 71.1364 48.0595 71.7864C47.8695 72.4268 47.6044 72.967 47.2643 73.4069C46.9342 73.8372 46.5391 74.1625 46.079 74.3822C45.6188 74.6025 45.1187 74.7123 44.5786 74.7123C44.0384 74.7123 43.5383 74.6025 43.0781 74.3822C42.618 74.1625 42.2179 73.8372 41.8778 73.4069C41.5477 72.967 41.2877 72.4268 41.0976 71.7864C40.9075 71.1364 40.8125 70.3813 40.8125 69.5207ZM42.2679 69.5207C42.2679 70.2013 42.3229 70.7961 42.433 71.3063C42.553 71.8068 42.7131 72.2215 42.9131 72.5516C43.1231 72.8818 43.3682 73.132 43.6483 73.3019C43.9284 73.4621 44.2384 73.542 44.5786 73.542C45.2587 73.542 45.8139 73.2172 46.244 72.5667C46.6841 71.9064 46.9042 70.8915 46.9042 69.5207C46.9042 68.1703 46.6841 67.1703 46.244 66.5198C45.8139 65.8595 45.2587 65.5294 44.5786 65.5294C43.8984 65.5294 43.3432 65.8595 42.9131 66.5198C42.483 67.1703 42.2679 68.1703 42.2679 69.5207Z" stroke="white" stroke-width="0.6"/>
</g>
<mask id="mask3_1_924" style="mask-type:luminance" maskUnits="userSpaceOnUse" x="32" y="62" width="63" height="14">
<path d="M94.2912 63.2274H33.2026V75.0168H94.2912V63.2274Z" fill="white" stroke="white" stroke-width="0.6"/>
<path d="M37.3548 64.588V73.3208H39.0053V74.4911H34.2639V73.3208H35.9144V66.8237C35.4843 67.2439 34.9041 67.5643 34.1739 67.784L33.7388 66.5836C33.9989 66.5038 34.2589 66.3939 34.519 66.2535C34.7891 66.1137 35.0392 65.9534 35.2692 65.7734C35.4993 65.5933 35.6944 65.4036 35.8544 65.2032C36.0244 65.0033 36.1445 64.7981 36.2145 64.588H37.3548Z" stroke="white" stroke-width="0.6"/>
<path d="M40.8125 69.5236C40.8125 68.6736 40.9075 67.9282 41.0976 67.2879C41.2877 66.6378 41.5477 66.0977 41.8778 65.6674C42.2179 65.2376 42.618 64.9123 43.0781 64.692C43.5383 64.4723 44.0384 64.3619 44.5786 64.3619C45.1187 64.3619 45.6188 64.4723 46.079 64.692C46.5391 64.9123 46.9342 65.2376 47.2643 65.6674C47.6044 66.0977 47.8695 66.6378 48.0595 67.2879C48.2596 67.9282 48.3596 68.6736 48.3596 69.5236C48.3596 70.3842 48.2596 71.1393 48.0595 71.7893C47.8695 72.4297 47.6044 72.9698 47.2643 73.4098C46.9342 73.8401 46.5391 74.1654 46.079 74.3851C45.6188 74.6053 45.1187 74.7152 44.5786 74.7152C44.0384 74.7152 43.5383 74.6053 43.0781 74.3851C42.618 74.1654 42.2179 73.8401 41.8778 73.4098C41.5477 72.9698 41.2877 72.4297 41.0976 71.7893C40.9075 71.1393 40.8125 70.3842 40.8125 69.5236ZM42.2679 69.5236C42.2679 70.2041 42.3229 70.799 42.433 71.3091C42.553 71.8096 42.7131 72.2244 42.9131 72.5545C43.1231 72.8846 43.3682 73.1349 43.6483 73.3047C43.9284 73.465 44.2384 73.5448 44.5786 73.5448C45.2587 73.5448 45.8139 73.2201 46.244 72.5695C46.6841 71.9093 46.9042 70.8943 46.9042 69.5236C46.9042 68.1731 46.6841 67.1732 46.244 66.5226C45.8139 65.8624 45.2587 65.5323 44.5786 65.5323C43.8984 65.5323 43.3432 65.8624 42.9131 66.5226C42.483 67.1732 42.2679 68.1731 42.2679 69.5236Z" stroke="white" stroke-width="0.6"/>
<path d="M59.5765 72.0458C59.5765 71.6461 59.4462 71.316 59.1864 71.0555C58.9259 70.7956 58.6012 70.5657 58.2111 70.3653C57.8306 70.1654 57.4105 69.9704 56.9507 69.7801C56.5006 69.5904 56.0805 69.36 55.6904 69.0899C55.3099 68.8198 54.99 68.4897 54.7301 68.0996C54.4697 67.6998 54.34 67.1945 54.34 66.5841C54.34 66.284 54.3946 65.9689 54.505 65.6388C54.6251 65.3087 54.8148 65.0038 55.0752 64.7235C55.3351 64.4438 55.6754 64.2134 56.0955 64.0333C56.5252 63.8533 57.0558 63.7632 57.6859 63.7632C58.516 63.7632 59.2062 63.9433 59.7565 64.3034C60.3165 64.6539 60.7168 65.2337 60.9568 66.044L59.6515 66.5091C59.4811 66.0193 59.2164 65.634 58.8563 65.3537C58.4962 65.074 58.0407 64.9336 57.4909 64.9336C56.9807 64.9336 56.5654 65.0687 56.2455 65.3387C55.9353 65.6088 55.7804 65.9839 55.7804 66.4641C55.7804 66.8746 55.9101 67.2143 56.1705 67.4844C56.4304 67.7449 56.7503 67.9796 57.1308 68.1896C57.5209 68.3901 57.941 68.5851 58.3911 68.7748C58.8509 68.9651 59.271 69.1901 59.6515 69.45C60.0416 69.7003 60.3663 70.0106 60.6268 70.3803C60.8867 70.7404 61.0169 71.2008 61.0169 71.7608C61.0169 72.071 60.9569 72.4011 60.8368 72.7511C60.7168 73.0914 60.5217 73.4113 60.2517 73.7114C59.9816 74.0018 59.6215 74.2419 59.1713 74.4316C58.7309 74.6218 58.1811 74.7167 57.5209 74.7167C56.6303 74.7167 55.8854 74.5018 55.2853 74.0715C54.6947 73.6315 54.2746 72.9161 54.0249 71.9258L55.3153 71.4607C55.6652 72.8513 56.4454 73.5463 57.6559 73.5463C58.2159 73.5463 58.6762 73.4065 59.0363 73.1262C59.3964 72.8363 59.5765 72.4762 59.5765 72.0458Z" stroke="white" stroke-width="0.6"/>
<path d="M65.8238 67.4832C64.9836 67.4832 64.4386 67.8985 64.1884 68.7286L62.943 68.3085C63.3433 66.9784 64.3036 66.3129 65.8238 66.3129C66.8741 66.3129 67.6292 66.5781 68.0895 67.1081C68.5594 67.6285 68.7947 68.4837 68.7947 69.6739V73.215C68.7947 73.3753 68.8295 73.4851 68.8997 73.5451C68.9795 73.5955 69.0749 73.6202 69.1848 73.6202C69.2646 73.6202 69.3498 73.6105 69.4398 73.5902C69.5299 73.5601 69.6151 73.5253 69.6949 73.4851L69.935 74.4154C69.7748 74.4958 69.6001 74.5655 69.4098 74.6255C69.2196 74.6855 69.0095 74.7155 68.7797 74.7155C68.4196 74.7155 68.1146 74.6308 67.8644 74.4604C67.6243 74.2804 67.4791 73.9406 67.4293 73.4401C67.2792 73.6003 67.1094 73.7606 66.9191 73.9203C66.7289 74.0703 66.5188 74.2053 66.289 74.3254C66.0687 74.4454 65.8287 74.5408 65.5688 74.6105C65.3185 74.6807 65.0538 74.7155 64.7735 74.7155C64.4734 74.7155 64.1884 74.6555 63.9183 74.5355C63.6584 74.4256 63.4333 74.2707 63.2431 74.0703C63.0529 73.8704 62.9028 73.6352 62.793 73.3651C62.6831 73.0854 62.6279 72.7853 62.6279 72.4648C62.6279 71.6449 62.9028 71.0045 63.4532 70.5442C64.0131 70.0844 64.7837 69.854 65.7638 69.854C66.0339 69.854 66.304 69.8743 66.574 69.914C66.8441 69.9542 67.104 70.0142 67.3543 70.0941V69.1488C67.3543 68.629 67.2192 68.2238 66.9491 67.9334C66.6791 67.6333 66.304 67.4832 65.8238 67.4832ZM65.2087 73.5451C65.5886 73.5451 65.9589 73.4551 66.319 73.2751C66.6893 73.0854 67.0343 72.8303 67.3543 72.5098V71.0544C67.1442 70.9847 66.9191 70.9295 66.6791 70.8893C66.439 70.8497 66.2038 70.8293 65.9739 70.8293C65.7236 70.8293 65.4836 70.8545 65.2537 70.9043C65.0238 70.9547 64.8185 71.0394 64.6385 71.1594C64.4686 71.2794 64.3282 71.4397 64.2184 71.6395C64.1182 71.8298 64.0683 72.065 64.0683 72.3448C64.0683 72.6749 64.1734 72.96 64.3834 73.2C64.5935 73.4305 64.8684 73.5451 65.2087 73.5451Z" stroke="white" stroke-width="0.6"/>
<path d="M75.2826 74.4914H73.392L70.8413 66.5389H72.3267L74.4123 73.156L76.4979 66.5389H77.8333L75.2826 74.4914Z" stroke="white" stroke-width="0.6"/>
<path d="M83.1312 73.5451C83.6413 73.5451 84.0818 73.4503 84.4516 73.26C84.832 73.0602 85.137 72.8501 85.3668 72.6299L86.012 73.4101C85.7023 73.7606 85.2972 74.0655 84.7967 74.3254C84.2967 74.5858 83.7265 74.7155 83.0862 74.7155C82.5562 74.7155 82.0659 74.6308 81.6158 74.4604C81.1657 74.2804 80.7755 74.0156 80.4455 73.6652C80.1255 73.3051 79.8705 72.8651 79.6802 72.3448C79.5002 71.8148 79.4102 71.2044 79.4102 70.5142C79.4102 69.824 79.5002 69.219 79.6802 68.6986C79.8603 68.1686 80.1105 67.7287 80.4304 67.3782C80.7509 67.0181 81.126 66.7534 81.5558 66.583C81.9962 66.4029 82.471 66.3129 82.9812 66.3129C83.4517 66.3129 83.8814 66.3879 84.2715 66.5379C84.6718 66.6783 85.0121 66.8981 85.2918 67.1981C85.5721 67.4982 85.787 67.8734 85.937 68.3235C86.0972 68.764 86.1771 69.2838 86.1771 69.884V70.9343H80.9256C80.9856 71.825 81.216 72.4852 81.6158 72.9149C82.0263 73.3351 82.531 73.5451 83.1312 73.5451ZM82.9962 67.4832C82.456 67.4832 81.9962 67.6837 81.6158 68.0834C81.246 68.4735 81.021 69.0737 80.9406 69.884H84.7517C84.7517 69.1139 84.5968 68.5239 84.2865 68.1134C83.9864 67.6933 83.5567 67.4832 82.9962 67.4832Z" stroke="white" stroke-width="0.6"/>
<path d="M91.0658 67.4082C90.6859 67.4082 90.3659 67.4934 90.1055 67.6633C89.8456 67.8337 89.7154 68.0936 89.7154 68.4435C89.7154 68.7238 89.8156 68.9591 90.0155 69.1488C90.2159 69.3288 90.4656 69.4939 90.7657 69.6439C91.0658 69.794 91.3862 69.944 91.726 70.0941C92.0764 70.2441 92.4012 70.4242 92.7012 70.6342C93.0013 70.8346 93.2516 71.0844 93.4515 71.3845C93.6519 71.6749 93.7515 72.0447 93.7515 72.4948C93.7515 73.1652 93.5067 73.7054 93.0163 74.1153C92.5266 74.5156 91.846 74.7155 90.9758 74.7155C90.1157 74.7155 89.4555 74.5156 88.9952 74.1153C88.5451 73.7054 88.2353 73.14 88.0649 72.4198L89.3103 71.9997C89.3607 72.3298 89.4405 72.5998 89.5504 72.8099C89.6704 73.02 89.8108 73.185 89.9705 73.3051C90.1307 73.4251 90.3059 73.5103 90.4956 73.5602C90.6859 73.6003 90.8809 73.6202 91.0808 73.6202C91.4211 73.6202 91.7211 73.5403 91.981 73.3801C92.2415 73.2102 92.3712 72.9503 92.3712 72.5998C92.3712 72.3399 92.2715 72.1251 92.0711 71.9546C91.8712 71.7848 91.6209 71.6245 91.3209 71.4745C91.0208 71.3244 90.696 71.1744 90.3456 71.0243C90.0059 70.8647 89.6854 70.6744 89.3853 70.4542C89.0852 70.2345 88.8355 69.9692 88.6351 69.6589C88.4352 69.339 88.335 68.9441 88.335 68.4735C88.335 68.2437 88.38 68.0036 88.4701 67.7533C88.5601 67.4934 88.7101 67.2582 88.9202 67.0481C89.1404 66.838 89.4255 66.6633 89.7754 66.5229C90.1355 66.3831 90.576 66.3129 91.0958 66.3129C91.786 66.3129 92.3562 66.4683 92.8063 66.778C93.2666 67.0781 93.5967 67.5883 93.7966 68.3085L92.5512 68.7286C92.4414 68.3187 92.2613 67.9988 92.0111 67.7683C91.7613 67.5283 91.4463 67.4082 91.0658 67.4082Z" stroke="white" stroke-width="0.6"/>
</mask>
<g mask="url(#mask3_1_924)">
<path d="M59.5765 72.043C59.5765 71.6432 59.4462 71.3131 59.1864 71.0527C58.9259 70.7928 58.6012 70.5629 58.2111 70.3625C57.8306 70.1626 57.4105 69.9675 56.9507 69.7773C56.5006 69.5876 56.0805 69.3571 55.6904 69.087C55.3099 68.817 54.99 68.4869 54.7301 68.0967C54.4697 67.697 54.34 67.1916 54.34 66.5813C54.34 66.2812 54.3946 65.9661 54.505 65.636C54.6251 65.3059 54.8148 65.0009 55.0752 64.7207C55.3351 64.4409 55.6754 64.2105 56.0955 64.0305C56.5252 63.8504 57.0558 63.7604 57.6859 63.7604C58.516 63.7604 59.2062 63.9404 59.7565 64.3005C60.3165 64.651 60.7168 65.2308 60.9568 66.0411L59.6515 66.5062C59.4811 66.0164 59.2164 65.6311 58.8563 65.3509C58.4962 65.0711 58.0407 64.9307 57.4909 64.9307C56.9807 64.9307 56.5654 65.0658 56.2455 65.3359C55.9353 65.606 55.7804 65.9811 55.7804 66.4612C55.7804 66.8717 55.9101 67.2115 56.1705 67.4815C56.4304 67.742 56.7503 67.9767 57.1308 68.1868C57.5209 68.3872 57.941 68.5822 58.3911 68.772C58.8509 68.9622 59.271 69.1873 59.6515 69.4472C60.0416 69.6974 60.3663 70.0077 60.6268 70.3775C60.8867 70.7376 61.0169 71.1979 61.0169 71.7579C61.0169 72.0682 60.9569 72.3983 60.8368 72.7482C60.7168 73.0885 60.5217 73.4084 60.2517 73.7085C59.9816 73.999 59.6215 74.239 59.1713 74.4287C58.7309 74.619 58.1811 74.7138 57.5209 74.7138C56.6303 74.7138 55.8854 74.4989 55.2853 74.0686C54.6947 73.6287 54.2746 72.9133 54.0249 71.9229L55.3153 71.4578C55.6652 72.8484 56.4454 73.5434 57.6559 73.5434C58.2159 73.5434 58.6762 73.4036 59.0363 73.1233C59.3964 72.8334 59.5765 72.4733 59.5765 72.043Z" stroke="white" stroke-width="0.6"/>
</g>
<mask id="mask4_1_924" style="mask-type:luminance" maskUnits="userSpaceOnUse" x="32" y="62" width="63" height="14">
<path d="M94.2912 63.2274H33.2026V75.0168H94.2912V63.2274Z" fill="white" stroke="white" stroke-width="0.6"/>
<path d="M37.3548 64.588V73.3208H39.0053V74.4911H34.2639V73.3208H35.9144V66.8237C35.4843 67.2439 34.9041 67.5643 34.1739 67.784L33.7388 66.5836C33.9989 66.5038 34.2589 66.3939 34.519 66.2535C34.7891 66.1137 35.0392 65.9534 35.2692 65.7734C35.4993 65.5933 35.6944 65.4036 35.8544 65.2032C36.0244 65.0033 36.1445 64.7981 36.2145 64.588H37.3548Z" stroke="white" stroke-width="0.6"/>
<path d="M40.8125 69.5236C40.8125 68.6736 40.9075 67.9282 41.0976 67.2879C41.2877 66.6378 41.5477 66.0977 41.8778 65.6674C42.2179 65.2376 42.618 64.9123 43.0781 64.692C43.5383 64.4723 44.0384 64.3619 44.5786 64.3619C45.1187 64.3619 45.6188 64.4723 46.079 64.692C46.5391 64.9123 46.9342 65.2376 47.2643 65.6674C47.6044 66.0977 47.8695 66.6378 48.0595 67.2879C48.2596 67.9282 48.3596 68.6736 48.3596 69.5236C48.3596 70.3842 48.2596 71.1393 48.0595 71.7893C47.8695 72.4297 47.6044 72.9698 47.2643 73.4098C46.9342 73.8401 46.5391 74.1654 46.079 74.3851C45.6188 74.6053 45.1187 74.7152 44.5786 74.7152C44.0384 74.7152 43.5383 74.6053 43.0781 74.3851C42.618 74.1654 42.2179 73.8401 41.8778 73.4098C41.5477 72.9698 41.2877 72.4297 41.0976 71.7893C40.9075 71.1393 40.8125 70.3842 40.8125 69.5236ZM42.2679 69.5236C42.2679 70.2041 42.3229 70.799 42.433 71.3091C42.553 71.8096 42.7131 72.2244 42.9131 72.5545C43.1231 72.8846 43.3682 73.1349 43.6483 73.3047C43.9284 73.465 44.2384 73.5448 44.5786 73.5448C45.2587 73.5448 45.8139 73.2201 46.244 72.5695C46.6841 71.9093 46.9042 70.8943 46.9042 69.5236C46.9042 68.1731 46.6841 67.1732 46.244 66.5226C45.8139 65.8624 45.2587 65.5323 44.5786 65.5323C43.8984 65.5323 43.3432 65.8624 42.9131 66.5226C42.483 67.1732 42.2679 68.1731 42.2679 69.5236Z" stroke="white" stroke-width="0.6"/>
<path d="M59.5765 72.0458C59.5765 71.6461 59.4462 71.316 59.1864 71.0555C58.9259 70.7956 58.6012 70.5657 58.2111 70.3653C57.8306 70.1654 57.4105 69.9704 56.9507 69.7801C56.5006 69.5904 56.0805 69.36 55.6904 69.0899C55.3099 68.8198 54.99 68.4897 54.7301 68.0996C54.4697 67.6998 54.34 67.1945 54.34 66.5841C54.34 66.284 54.3946 65.9689 54.505 65.6388C54.6251 65.3087 54.8148 65.0038 55.0752 64.7235C55.3351 64.4438 55.6754 64.2134 56.0955 64.0333C56.5252 63.8533 57.0558 63.7632 57.6859 63.7632C58.516 63.7632 59.2062 63.9433 59.7565 64.3034C60.3165 64.6539 60.7168 65.2337 60.9568 66.044L59.6515 66.5091C59.4811 66.0193 59.2164 65.634 58.8563 65.3537C58.4962 65.074 58.0407 64.9336 57.4909 64.9336C56.9807 64.9336 56.5654 65.0687 56.2455 65.3387C55.9353 65.6088 55.7804 65.9839 55.7804 66.4641C55.7804 66.8746 55.9101 67.2143 56.1705 67.4844C56.4304 67.7449 56.7503 67.9796 57.1308 68.1896C57.5209 68.3901 57.941 68.5851 58.3911 68.7748C58.8509 68.9651 59.271 69.1901 59.6515 69.45C60.0416 69.7003 60.3663 70.0106 60.6268 70.3803C60.8867 70.7404 61.0169 71.2008 61.0169 71.7608C61.0169 72.071 60.9569 72.4011 60.8368 72.7511C60.7168 73.0914 60.5217 73.4113 60.2517 73.7114C59.9816 74.0018 59.6215 74.2419 59.1713 74.4316C58.7309 74.6218 58.1811 74.7167 57.5209 74.7167C56.6303 74.7167 55.8854 74.5018 55.2853 74.0715C54.6947 73.6315 54.2746 72.9161 54.0249 71.9258L55.3153 71.4607C55.6652 72.8513 56.4454 73.5463 57.6559 73.5463C58.2159 73.5463 58.6762 73.4065 59.0363 73.1262C59.3964 72.8363 59.5765 72.4762 59.5765 72.0458Z" stroke="white" stroke-width="0.6"/>
<path d="M65.8238 67.4832C64.9836 67.4832 64.4386 67.8985 64.1884 68.7286L62.943 68.3085C63.3433 66.9784 64.3036 66.3129 65.8238 66.3129C66.8741 66.3129 67.6292 66.5781 68.0895 67.1081C68.5594 67.6285 68.7947 68.4837 68.7947 69.6739V73.215C68.7947 73.3753 68.8295 73.4851 68.8997 73.5451C68.9795 73.5955 69.0749 73.6202 69.1848 73.6202C69.2646 73.6202 69.3498 73.6105 69.4398 73.5902C69.5299 73.5601 69.6151 73.5253 69.6949 73.4851L69.935 74.4154C69.7748 74.4958 69.6001 74.5655 69.4098 74.6255C69.2196 74.6855 69.0095 74.7155 68.7797 74.7155C68.4196 74.7155 68.1146 74.6308 67.8644 74.4604C67.6243 74.2804 67.4791 73.9406 67.4293 73.4401C67.2792 73.6003 67.1094 73.7606 66.9191 73.9203C66.7289 74.0703 66.5188 74.2053 66.289 74.3254C66.0687 74.4454 65.8287 74.5408 65.5688 74.6105C65.3185 74.6807 65.0538 74.7155 64.7735 74.7155C64.4734 74.7155 64.1884 74.6555 63.9183 74.5355C63.6584 74.4256 63.4333 74.2707 63.2431 74.0703C63.0529 73.8704 62.9028 73.6352 62.793 73.3651C62.6831 73.0854 62.6279 72.7853 62.6279 72.4648C62.6279 71.6449 62.9028 71.0045 63.4532 70.5442C64.0131 70.0844 64.7837 69.854 65.7638 69.854C66.0339 69.854 66.304 69.8743 66.574 69.914C66.8441 69.9542 67.104 70.0142 67.3543 70.0941V69.1488C67.3543 68.629 67.2192 68.2238 66.9491 67.9334C66.6791 67.6333 66.304 67.4832 65.8238 67.4832ZM65.2087 73.5451C65.5886 73.5451 65.9589 73.4551 66.319 73.2751C66.6893 73.0854 67.0343 72.8303 67.3543 72.5098V71.0544C67.1442 70.9847 66.9191 70.9295 66.6791 70.8893C66.439 70.8497 66.2038 70.8293 65.9739 70.8293C65.7236 70.8293 65.4836 70.8545 65.2537 70.9043C65.0238 70.9547 64.8185 71.0394 64.6385 71.1594C64.4686 71.2794 64.3282 71.4397 64.2184 71.6395C64.1182 71.8298 64.0683 72.065 64.0683 72.3448C64.0683 72.6749 64.1734 72.96 64.3834 73.2C64.5935 73.4305 64.8684 73.5451 65.2087 73.5451Z" stroke="white" stroke-width="0.6"/>
<path d="M75.2826 74.4914H73.392L70.8413 66.5389H72.3267L74.4123 73.156L76.4979 66.5389H77.8333L75.2826 74.4914Z" stroke="white" stroke-width="0.6"/>
<path d="M83.1312 73.5451C83.6413 73.5451 84.0818 73.4503 84.4516 73.26C84.832 73.0602 85.137 72.8501 85.3668 72.6299L86.012 73.4101C85.7023 73.7606 85.2972 74.0655 84.7967 74.3254C84.2967 74.5858 83.7265 74.7155 83.0862 74.7155C82.5562 74.7155 82.0659 74.6308 81.6158 74.4604C81.1657 74.2804 80.7755 74.0156 80.4455 73.6652C80.1255 73.3051 79.8705 72.8651 79.6802 72.3448C79.5002 71.8148 79.4102 71.2044 79.4102 70.5142C79.4102 69.824 79.5002 69.219 79.6802 68.6986C79.8603 68.1686 80.1105 67.7287 80.4304 67.3782C80.7509 67.0181 81.126 66.7534 81.5558 66.583C81.9962 66.4029 82.471 66.3129 82.9812 66.3129C83.4517 66.3129 83.8814 66.3879 84.2715 66.5379C84.6718 66.6783 85.0121 66.8981 85.2918 67.1981C85.5721 67.4982 85.787 67.8734 85.937 68.3235C86.0972 68.764 86.1771 69.2838 86.1771 69.884V70.9343H80.9256C80.9856 71.825 81.216 72.4852 81.6158 72.9149C82.0263 73.3351 82.531 73.5451 83.1312 73.5451ZM82.9962 67.4832C82.456 67.4832 81.9962 67.6837 81.6158 68.0834C81.246 68.4735 81.021 69.0737 80.9406 69.884H84.7517C84.7517 69.1139 84.5968 68.5239 84.2865 68.1134C83.9864 67.6933 83.5567 67.4832 82.9962 67.4832Z" stroke="white" stroke-width="0.6"/>
<path d="M91.0658 67.4082C90.6859 67.4082 90.3659 67.4934 90.1055 67.6633C89.8456 67.8337 89.7154 68.0936 89.7154 68.4435C89.7154 68.7238 89.8156 68.9591 90.0155 69.1488C90.2159 69.3288 90.4656 69.4939 90.7657 69.6439C91.0658 69.794 91.3862 69.944 91.726 70.0941C92.0764 70.2441 92.4012 70.4242 92.7012 70.6342C93.0013 70.8346 93.2516 71.0844 93.4515 71.3845C93.6519 71.6749 93.7515 72.0447 93.7515 72.4948C93.7515 73.1652 93.5067 73.7054 93.0163 74.1153C92.5266 74.5156 91.846 74.7155 90.9758 74.7155C90.1157 74.7155 89.4555 74.5156 88.9952 74.1153C88.5451 73.7054 88.2353 73.14 88.0649 72.4198L89.3103 71.9997C89.3607 72.3298 89.4405 72.5998 89.5504 72.8099C89.6704 73.02 89.8108 73.185 89.9705 73.3051C90.1307 73.4251 90.3059 73.5103 90.4956 73.5602C90.6859 73.6003 90.8809 73.6202 91.0808 73.6202C91.4211 73.6202 91.7211 73.5403 91.981 73.3801C92.2415 73.2102 92.3712 72.9503 92.3712 72.5998C92.3712 72.3399 92.2715 72.1251 92.0711 71.9546C91.8712 71.7848 91.6209 71.6245 91.3209 71.4745C91.0208 71.3244 90.696 71.1744 90.3456 71.0243C90.0059 70.8647 89.6854 70.6744 89.3853 70.4542C89.0852 70.2345 88.8355 69.9692 88.6351 69.6589C88.4352 69.339 88.335 68.9441 88.335 68.4735C88.335 68.2437 88.38 68.0036 88.4701 67.7533C88.5601 67.4934 88.7101 67.2582 88.9202 67.0481C89.1404 66.838 89.4255 66.6633 89.7754 66.5229C90.1355 66.3831 90.576 66.3129 91.0958 66.3129C91.786 66.3129 92.3562 66.4683 92.8063 66.778C93.2666 67.0781 93.5967 67.5883 93.7966 68.3085L92.5512 68.7286C92.4414 68.3187 92.2613 67.9988 92.0111 67.7683C91.7613 67.5283 91.4463 67.4082 91.0658 67.4082Z" stroke="white" stroke-width="0.6"/>
</mask>
<g mask="url(#mask4_1_924)">
<path d="M65.8238 67.4804C64.9836 67.4804 64.4386 67.8957 64.1884 68.7258L62.943 68.3056C63.3433 66.9756 64.3036 66.31 65.8238 66.31C66.8741 66.31 67.6292 66.5753 68.0895 67.1052C68.5594 67.6256 68.7947 68.4809 68.7947 69.6711V73.2122C68.7947 73.3724 68.8295 73.4822 68.8997 73.5423C68.9795 73.5926 69.0749 73.6173 69.1848 73.6173C69.2646 73.6173 69.3498 73.6077 69.4398 73.5873C69.5299 73.5573 69.6151 73.5224 69.6949 73.4822L69.935 74.4125C69.7748 74.4929 69.6001 74.5626 69.4098 74.6226C69.2196 74.6826 69.0095 74.7126 68.7797 74.7126C68.4196 74.7126 68.1146 74.628 67.8644 74.4576C67.6243 74.2775 67.4791 73.9378 67.4293 73.4372C67.2792 73.5975 67.1094 73.7577 66.9191 73.9174C66.7289 74.0674 66.5188 74.2025 66.289 74.3225C66.0687 74.4426 65.8287 74.5379 65.5688 74.6076C65.3185 74.6778 65.0538 74.7126 64.7735 74.7126C64.4734 74.7126 64.1884 74.6526 63.9183 74.5326C63.6584 74.4227 63.4333 74.2679 63.2431 74.0674C63.0529 73.8676 62.9028 73.6323 62.793 73.3622C62.6831 73.0825 62.6279 72.7824 62.6279 72.4619C62.6279 71.642 62.9028 71.0017 63.4532 70.5413C64.0131 70.0815 64.7837 69.8511 65.7638 69.8511C66.0339 69.8511 66.304 69.8715 66.574 69.9111C66.8441 69.9513 67.104 70.0113 67.3543 70.0912V69.1459C67.3543 68.6261 67.2192 68.221 66.9491 67.9305C66.6791 67.6304 66.304 67.4804 65.8238 67.4804ZM65.2087 73.5423C65.5886 73.5423 65.9589 73.4522 66.319 73.2722C66.6893 73.0825 67.0343 72.8274 67.3543 72.5069V71.0515C67.1442 70.9818 66.9191 70.9266 66.6791 70.8864C66.439 70.8468 66.2038 70.8264 65.9739 70.8264C65.7236 70.8264 65.4836 70.8516 65.2537 70.9014C65.0238 70.9518 64.8185 71.0365 64.6385 71.1565C64.4686 71.2766 64.3282 71.4368 64.2184 71.6367C64.1182 71.8269 64.0683 72.0622 64.0683 72.3419C64.0683 72.672 64.1734 72.9571 64.3834 73.1972C64.5935 73.4276 64.8684 73.5423 65.2087 73.5423Z" stroke="white" stroke-width="0.6"/>
</g>
<mask id="mask5_1_924" style="mask-type:luminance" maskUnits="userSpaceOnUse" x="32" y="62" width="63" height="14">
<path d="M94.2912 63.2274H33.2026V75.0168H94.2912V63.2274Z" fill="white" stroke="white" stroke-width="0.6"/>
<path d="M37.3548 64.588V73.3208H39.0053V74.4911H34.2639V73.3208H35.9144V66.8237C35.4843 67.2439 34.9041 67.5643 34.1739 67.784L33.7388 66.5836C33.9989 66.5038 34.2589 66.3939 34.519 66.2535C34.7891 66.1137 35.0392 65.9534 35.2692 65.7734C35.4993 65.5933 35.6944 65.4036 35.8544 65.2032C36.0244 65.0033 36.1445 64.7981 36.2145 64.588H37.3548Z" stroke="white" stroke-width="0.6"/>
<path d="M40.8125 69.5236C40.8125 68.6736 40.9075 67.9282 41.0976 67.2879C41.2877 66.6378 41.5477 66.0977 41.8778 65.6674C42.2179 65.2376 42.618 64.9123 43.0781 64.692C43.5383 64.4723 44.0384 64.3619 44.5786 64.3619C45.1187 64.3619 45.6188 64.4723 46.079 64.692C46.5391 64.9123 46.9342 65.2376 47.2643 65.6674C47.6044 66.0977 47.8695 66.6378 48.0595 67.2879C48.2596 67.9282 48.3596 68.6736 48.3596 69.5236C48.3596 70.3842 48.2596 71.1393 48.0595 71.7893C47.8695 72.4297 47.6044 72.9698 47.2643 73.4098C46.9342 73.8401 46.5391 74.1654 46.079 74.3851C45.6188 74.6053 45.1187 74.7152 44.5786 74.7152C44.0384 74.7152 43.5383 74.6053 43.0781 74.3851C42.618 74.1654 42.2179 73.8401 41.8778 73.4098C41.5477 72.9698 41.2877 72.4297 41.0976 71.7893C40.9075 71.1393 40.8125 70.3842 40.8125 69.5236ZM42.2679 69.5236C42.2679 70.2041 42.3229 70.799 42.433 71.3091C42.553 71.8096 42.7131 72.2244 42.9131 72.5545C43.1231 72.8846 43.3682 73.1349 43.6483 73.3047C43.9284 73.465 44.2384 73.5448 44.5786 73.5448C45.2587 73.5448 45.8139 73.2201 46.244 72.5695C46.6841 71.9093 46.9042 70.8943 46.9042 69.5236C46.9042 68.1731 46.6841 67.1732 46.244 66.5226C45.8139 65.8624 45.2587 65.5323 44.5786 65.5323C43.8984 65.5323 43.3432 65.8624 42.9131 66.5226C42.483 67.1732 42.2679 68.1731 42.2679 69.5236Z" stroke="white" stroke-width="0.6"/>
<path d="M59.5765 72.0458C59.5765 71.6461 59.4462 71.316 59.1864 71.0555C58.9259 70.7956 58.6012 70.5657 58.2111 70.3653C57.8306 70.1654 57.4105 69.9704 56.9507 69.7801C56.5006 69.5904 56.0805 69.36 55.6904 69.0899C55.3099 68.8198 54.99 68.4897 54.7301 68.0996C54.4697 67.6998 54.34 67.1945 54.34 66.5841C54.34 66.284 54.3946 65.9689 54.505 65.6388C54.6251 65.3087 54.8148 65.0038 55.0752 64.7235C55.3351 64.4438 55.6754 64.2134 56.0955 64.0333C56.5252 63.8533 57.0558 63.7632 57.6859 63.7632C58.516 63.7632 59.2062 63.9433 59.7565 64.3034C60.3165 64.6539 60.7168 65.2337 60.9568 66.044L59.6515 66.5091C59.4811 66.0193 59.2164 65.634 58.8563 65.3537C58.4962 65.074 58.0407 64.9336 57.4909 64.9336C56.9807 64.9336 56.5654 65.0687 56.2455 65.3387C55.9353 65.6088 55.7804 65.9839 55.7804 66.4641C55.7804 66.8746 55.9101 67.2143 56.1705 67.4844C56.4304 67.7449 56.7503 67.9796 57.1308 68.1896C57.5209 68.3901 57.941 68.5851 58.3911 68.7748C58.8509 68.9651 59.271 69.1901 59.6515 69.45C60.0416 69.7003 60.3663 70.0106 60.6268 70.3803C60.8867 70.7404 61.0169 71.2008 61.0169 71.7608C61.0169 72.071 60.9569 72.4011 60.8368 72.7511C60.7168 73.0914 60.5217 73.4113 60.2517 73.7114C59.9816 74.0018 59.6215 74.2419 59.1713 74.4316C58.7309 74.6218 58.1811 74.7167 57.5209 74.7167C56.6303 74.7167 55.8854 74.5018 55.2853 74.0715C54.6947 73.6315 54.2746 72.9161 54.0249 71.9258L55.3153 71.4607C55.6652 72.8513 56.4454 73.5463 57.6559 73.5463C58.2159 73.5463 58.6762 73.4065 59.0363 73.1262C59.3964 72.8363 59.5765 72.4762 59.5765 72.0458Z" stroke="white" stroke-width="0.6"/>
<path d="M65.8238 67.4832C64.9836 67.4832 64.4386 67.8985 64.1884 68.7286L62.943 68.3085C63.3433 66.9784 64.3036 66.3129 65.8238 66.3129C66.8741 66.3129 67.6292 66.5781 68.0895 67.1081C68.5594 67.6285 68.7947 68.4837 68.7947 69.6739V73.215C68.7947 73.3753 68.8295 73.4851 68.8997 73.5451C68.9795 73.5955 69.0749 73.6202 69.1848 73.6202C69.2646 73.6202 69.3498 73.6105 69.4398 73.5902C69.5299 73.5601 69.6151 73.5253 69.6949 73.4851L69.935 74.4154C69.7748 74.4958 69.6001 74.5655 69.4098 74.6255C69.2196 74.6855 69.0095 74.7155 68.7797 74.7155C68.4196 74.7155 68.1146 74.6308 67.8644 74.4604C67.6243 74.2804 67.4791 73.9406 67.4293 73.4401C67.2792 73.6003 67.1094 73.7606 66.9191 73.9203C66.7289 74.0703 66.5188 74.2053 66.289 74.3254C66.0687 74.4454 65.8287 74.5408 65.5688 74.6105C65.3185 74.6807 65.0538 74.7155 64.7735 74.7155C64.4734 74.7155 64.1884 74.6555 63.9183 74.5355C63.6584 74.4256 63.4333 74.2707 63.2431 74.0703C63.0529 73.8704 62.9028 73.6352 62.793 73.3651C62.6831 73.0854 62.6279 72.7853 62.6279 72.4648C62.6279 71.6449 62.9028 71.0045 63.4532 70.5442C64.0131 70.0844 64.7837 69.854 65.7638 69.854C66.0339 69.854 66.304 69.8743 66.574 69.914C66.8441 69.9542 67.104 70.0142 67.3543 70.0941V69.1488C67.3543 68.629 67.2192 68.2238 66.9491 67.9334C66.6791 67.6333 66.304 67.4832 65.8238 67.4832ZM65.2087 73.5451C65.5886 73.5451 65.9589 73.4551 66.319 73.2751C66.6893 73.0854 67.0343 72.8303 67.3543 72.5098V71.0544C67.1442 70.9847 66.9191 70.9295 66.6791 70.8893C66.439 70.8497 66.2038 70.8293 65.9739 70.8293C65.7236 70.8293 65.4836 70.8545 65.2537 70.9043C65.0238 70.9547 64.8185 71.0394 64.6385 71.1594C64.4686 71.2794 64.3282 71.4397 64.2184 71.6395C64.1182 71.8298 64.0683 72.065 64.0683 72.3448C64.0683 72.6749 64.1734 72.96 64.3834 73.2C64.5935 73.4305 64.8684 73.5451 65.2087 73.5451Z" stroke="white" stroke-width="0.6"/>
<path d="M75.2826 74.4914H73.392L70.8413 66.5389H72.3267L74.4123 73.156L76.4979 66.5389H77.8333L75.2826 74.4914Z" stroke="white" stroke-width="0.6"/>
<path d="M83.1312 73.5451C83.6413 73.5451 84.0818 73.4503 84.4516 73.26C84.832 73.0602 85.137 72.8501 85.3668 72.6299L86.012 73.4101C85.7023 73.7606 85.2972 74.0655 84.7967 74.3254C84.2967 74.5858 83.7265 74.7155 83.0862 74.7155C82.5562 74.7155 82.0659 74.6308 81.6158 74.4604C81.1657 74.2804 80.7755 74.0156 80.4455 73.6652C80.1255 73.3051 79.8705 72.8651 79.6802 72.3448C79.5002 71.8148 79.4102 71.2044 79.4102 70.5142C79.4102 69.824 79.5002 69.219 79.6802 68.6986C79.8603 68.1686 80.1105 67.7287 80.4304 67.3782C80.7509 67.0181 81.126 66.7534 81.5558 66.583C81.9962 66.4029 82.471 66.3129 82.9812 66.3129C83.4517 66.3129 83.8814 66.3879 84.2715 66.5379C84.6718 66.6783 85.0121 66.8981 85.2918 67.1981C85.5721 67.4982 85.787 67.8734 85.937 68.3235C86.0972 68.764 86.1771 69.2838 86.1771 69.884V70.9343H80.9256C80.9856 71.825 81.216 72.4852 81.6158 72.9149C82.0263 73.3351 82.531 73.5451 83.1312 73.5451ZM82.9962 67.4832C82.456 67.4832 81.9962 67.6837 81.6158 68.0834C81.246 68.4735 81.021 69.0737 80.9406 69.884H84.7517C84.7517 69.1139 84.5968 68.5239 84.2865 68.1134C83.9864 67.6933 83.5567 67.4832 82.9962 67.4832Z" stroke="white" stroke-width="0.6"/>
<path d="M91.0658 67.4082C90.6859 67.4082 90.3659 67.4934 90.1055 67.6633C89.8456 67.8337 89.7154 68.0936 89.7154 68.4435C89.7154 68.7238 89.8156 68.9591 90.0155 69.1488C90.2159 69.3288 90.4656 69.4939 90.7657 69.6439C91.0658 69.794 91.3862 69.944 91.726 70.0941C92.0764 70.2441 92.4012 70.4242 92.7012 70.6342C93.0013 70.8346 93.2516 71.0844 93.4515 71.3845C93.6519 71.6749 93.7515 72.0447 93.7515 72.4948C93.7515 73.1652 93.5067 73.7054 93.0163 74.1153C92.5266 74.5156 91.846 74.7155 90.9758 74.7155C90.1157 74.7155 89.4555 74.5156 88.9952 74.1153C88.5451 73.7054 88.2353 73.14 88.0649 72.4198L89.3103 71.9997C89.3607 72.3298 89.4405 72.5998 89.5504 72.8099C89.6704 73.02 89.8108 73.185 89.9705 73.3051C90.1307 73.4251 90.3059 73.5103 90.4956 73.5602C90.6859 73.6003 90.8809 73.6202 91.0808 73.6202C91.4211 73.6202 91.7211 73.5403 91.981 73.3801C92.2415 73.2102 92.3712 72.9503 92.3712 72.5998C92.3712 72.3399 92.2715 72.1251 92.0711 71.9546C91.8712 71.7848 91.6209 71.6245 91.3209 71.4745C91.0208 71.3244 90.696 71.1744 90.3456 71.0243C90.0059 70.8647 89.6854 70.6744 89.3853 70.4542C89.0852 70.2345 88.8355 69.9692 88.6351 69.6589C88.4352 69.339 88.335 68.9441 88.335 68.4735C88.335 68.2437 88.38 68.0036 88.4701 67.7533C88.5601 67.4934 88.7101 67.2582 88.9202 67.0481C89.1404 66.838 89.4255 66.6633 89.7754 66.5229C90.1355 66.3831 90.576 66.3129 91.0958 66.3129C91.786 66.3129 92.3562 66.4683 92.8063 66.778C93.2666 67.0781 93.5967 67.5883 93.7966 68.3085L92.5512 68.7286C92.4414 68.3187 92.2613 67.9988 92.0111 67.7683C91.7613 67.5283 91.4463 67.4082 91.0658 67.4082Z" stroke="white" stroke-width="0.6"/>
</mask>
<g mask="url(#mask5_1_924)">
<path d="M75.2826 74.4886H73.392L70.8413 66.5361H72.3267L74.4123 73.1531L76.4979 66.5361H77.8333L75.2826 74.4886Z" stroke="white" stroke-width="0.6"/>
</g>
<mask id="mask6_1_924" style="mask-type:luminance" maskUnits="userSpaceOnUse" x="32" y="62" width="63" height="14">
<path d="M94.2912 63.2274H33.2026V75.0168H94.2912V63.2274Z" fill="white" stroke="white" stroke-width="0.6"/>
<path d="M37.3548 64.588V73.3208H39.0053V74.4911H34.2639V73.3208H35.9144V66.8237C35.4843 67.2439 34.9041 67.5643 34.1739 67.784L33.7388 66.5836C33.9989 66.5038 34.2589 66.3939 34.519 66.2535C34.7891 66.1137 35.0392 65.9534 35.2692 65.7734C35.4993 65.5933 35.6944 65.4036 35.8544 65.2032C36.0244 65.0033 36.1445 64.7981 36.2145 64.588H37.3548Z" stroke="white" stroke-width="0.6"/>
<path d="M40.8125 69.5236C40.8125 68.6736 40.9075 67.9282 41.0976 67.2879C41.2877 66.6378 41.5477 66.0977 41.8778 65.6674C42.2179 65.2376 42.618 64.9123 43.0781 64.692C43.5383 64.4723 44.0384 64.3619 44.5786 64.3619C45.1187 64.3619 45.6188 64.4723 46.079 64.692C46.5391 64.9123 46.9342 65.2376 47.2643 65.6674C47.6044 66.0977 47.8695 66.6378 48.0595 67.2879C48.2596 67.9282 48.3596 68.6736 48.3596 69.5236C48.3596 70.3842 48.2596 71.1393 48.0595 71.7893C47.8695 72.4297 47.6044 72.9698 47.2643 73.4098C46.9342 73.8401 46.5391 74.1654 46.079 74.3851C45.6188 74.6053 45.1187 74.7152 44.5786 74.7152C44.0384 74.7152 43.5383 74.6053 43.0781 74.3851C42.618 74.1654 42.2179 73.8401 41.8778 73.4098C41.5477 72.9698 41.2877 72.4297 41.0976 71.7893C40.9075 71.1393 40.8125 70.3842 40.8125 69.5236ZM42.2679 69.5236C42.2679 70.2041 42.3229 70.799 42.433 71.3091C42.553 71.8096 42.7131 72.2244 42.9131 72.5545C43.1231 72.8846 43.3682 73.1349 43.6483 73.3047C43.9284 73.465 44.2384 73.5448 44.5786 73.5448C45.2587 73.5448 45.8139 73.2201 46.244 72.5695C46.6841 71.9093 46.9042 70.8943 46.9042 69.5236C46.9042 68.1731 46.6841 67.1732 46.244 66.5226C45.8139 65.8624 45.2587 65.5323 44.5786 65.5323C43.8984 65.5323 43.3432 65.8624 42.9131 66.5226C42.483 67.1732 42.2679 68.1731 42.2679 69.5236Z" stroke="white" stroke-width="0.6"/>
<path d="M59.5765 72.0458C59.5765 71.6461 59.4462 71.316 59.1864 71.0555C58.9259 70.7956 58.6012 70.5657 58.2111 70.3653C57.8306 70.1654 57.4105 69.9704 56.9507 69.7801C56.5006 69.5904 56.0805 69.36 55.6904 69.0899C55.3099 68.8198 54.99 68.4897 54.7301 68.0996C54.4697 67.6998 54.34 67.1945 54.34 66.5841C54.34 66.284 54.3946 65.9689 54.505 65.6388C54.6251 65.3087 54.8148 65.0038 55.0752 64.7235C55.3351 64.4438 55.6754 64.2134 56.0955 64.0333C56.5252 63.8533 57.0558 63.7632 57.6859 63.7632C58.516 63.7632 59.2062 63.9433 59.7565 64.3034C60.3165 64.6539 60.7168 65.2337 60.9568 66.044L59.6515 66.5091C59.4811 66.0193 59.2164 65.634 58.8563 65.3537C58.4962 65.074 58.0407 64.9336 57.4909 64.9336C56.9807 64.9336 56.5654 65.0687 56.2455 65.3387C55.9353 65.6088 55.7804 65.9839 55.7804 66.4641C55.7804 66.8746 55.9101 67.2143 56.1705 67.4844C56.4304 67.7449 56.7503 67.9796 57.1308 68.1896C57.5209 68.3901 57.941 68.5851 58.3911 68.7748C58.8509 68.9651 59.271 69.1901 59.6515 69.45C60.0416 69.7003 60.3663 70.0106 60.6268 70.3803C60.8867 70.7404 61.0169 71.2008 61.0169 71.7608C61.0169 72.071 60.9569 72.4011 60.8368 72.7511C60.7168 73.0914 60.5217 73.4113 60.2517 73.7114C59.9816 74.0018 59.6215 74.2419 59.1713 74.4316C58.7309 74.6218 58.1811 74.7167 57.5209 74.7167C56.6303 74.7167 55.8854 74.5018 55.2853 74.0715C54.6947 73.6315 54.2746 72.9161 54.0249 71.9258L55.3153 71.4607C55.6652 72.8513 56.4454 73.5463 57.6559 73.5463C58.2159 73.5463 58.6762 73.4065 59.0363 73.1262C59.3964 72.8363 59.5765 72.4762 59.5765 72.0458Z" stroke="white" stroke-width="0.6"/>
<path d="M65.8238 67.4832C64.9836 67.4832 64.4386 67.8985 64.1884 68.7286L62.943 68.3085C63.3433 66.9784 64.3036 66.3129 65.8238 66.3129C66.8741 66.3129 67.6292 66.5781 68.0895 67.1081C68.5594 67.6285 68.7947 68.4837 68.7947 69.6739V73.215C68.7947 73.3753 68.8295 73.4851 68.8997 73.5451C68.9795 73.5955 69.0749 73.6202 69.1848 73.6202C69.2646 73.6202 69.3498 73.6105 69.4398 73.5902C69.5299 73.5601 69.6151 73.5253 69.6949 73.4851L69.935 74.4154C69.7748 74.4958 69.6001 74.5655 69.4098 74.6255C69.2196 74.6855 69.0095 74.7155 68.7797 74.7155C68.4196 74.7155 68.1146 74.6308 67.8644 74.4604C67.6243 74.2804 67.4791 73.9406 67.4293 73.4401C67.2792 73.6003 67.1094 73.7606 66.9191 73.9203C66.7289 74.0703 66.5188 74.2053 66.289 74.3254C66.0687 74.4454 65.8287 74.5408 65.5688 74.6105C65.3185 74.6807 65.0538 74.7155 64.7735 74.7155C64.4734 74.7155 64.1884 74.6555 63.9183 74.5355C63.6584 74.4256 63.4333 74.2707 63.2431 74.0703C63.0529 73.8704 62.9028 73.6352 62.793 73.3651C62.6831 73.0854 62.6279 72.7853 62.6279 72.4648C62.6279 71.6449 62.9028 71.0045 63.4532 70.5442C64.0131 70.0844 64.7837 69.854 65.7638 69.854C66.0339 69.854 66.304 69.8743 66.574 69.914C66.8441 69.9542 67.104 70.0142 67.3543 70.0941V69.1488C67.3543 68.629 67.2192 68.2238 66.9491 67.9334C66.6791 67.6333 66.304 67.4832 65.8238 67.4832ZM65.2087 73.5451C65.5886 73.5451 65.9589 73.4551 66.319 73.2751C66.6893 73.0854 67.0343 72.8303 67.3543 72.5098V71.0544C67.1442 70.9847 66.9191 70.9295 66.6791 70.8893C66.439 70.8497 66.2038 70.8293 65.9739 70.8293C65.7236 70.8293 65.4836 70.8545 65.2537 70.9043C65.0238 70.9547 64.8185 71.0394 64.6385 71.1594C64.4686 71.2794 64.3282 71.4397 64.2184 71.6395C64.1182 71.8298 64.0683 72.065 64.0683 72.3448C64.0683 72.6749 64.1734 72.96 64.3834 73.2C64.5935 73.4305 64.8684 73.5451 65.2087 73.5451Z" stroke="white" stroke-width="0.6"/>
<path d="M75.2826 74.4914H73.392L70.8413 66.5389H72.3267L74.4123 73.156L76.4979 66.5389H77.8333L75.2826 74.4914Z" stroke="white" stroke-width="0.6"/>
<path d="M83.1312 73.5451C83.6413 73.5451 84.0818 73.4503 84.4516 73.26C84.832 73.0602 85.137 72.8501 85.3668 72.6299L86.012 73.4101C85.7023 73.7606 85.2972 74.0655 84.7967 74.3254C84.2967 74.5858 83.7265 74.7155 83.0862 74.7155C82.5562 74.7155 82.0659 74.6308 81.6158 74.4604C81.1657 74.2804 80.7755 74.0156 80.4455 73.6652C80.1255 73.3051 79.8705 72.8651 79.6802 72.3448C79.5002 71.8148 79.4102 71.2044 79.4102 70.5142C79.4102 69.824 79.5002 69.219 79.6802 68.6986C79.8603 68.1686 80.1105 67.7287 80.4304 67.3782C80.7509 67.0181 81.126 66.7534 81.5558 66.583C81.9962 66.4029 82.471 66.3129 82.9812 66.3129C83.4517 66.3129 83.8814 66.3879 84.2715 66.5379C84.6718 66.6783 85.0121 66.8981 85.2918 67.1981C85.5721 67.4982 85.787 67.8734 85.937 68.3235C86.0972 68.764 86.1771 69.2838 86.1771 69.884V70.9343H80.9256C80.9856 71.825 81.216 72.4852 81.6158 72.9149C82.0263 73.3351 82.531 73.5451 83.1312 73.5451ZM82.9962 67.4832C82.456 67.4832 81.9962 67.6837 81.6158 68.0834C81.246 68.4735 81.021 69.0737 80.9406 69.884H84.7517C84.7517 69.1139 84.5968 68.5239 84.2865 68.1134C83.9864 67.6933 83.5567 67.4832 82.9962 67.4832Z" stroke="white" stroke-width="0.6"/>
<path d="M91.0658 67.4082C90.6859 67.4082 90.3659 67.4934 90.1055 67.6633C89.8456 67.8337 89.7154 68.0936 89.7154 68.4435C89.7154 68.7238 89.8156 68.9591 90.0155 69.1488C90.2159 69.3288 90.4656 69.4939 90.7657 69.6439C91.0658 69.794 91.3862 69.944 91.726 70.0941C92.0764 70.2441 92.4012 70.4242 92.7012 70.6342C93.0013 70.8346 93.2516 71.0844 93.4515 71.3845C93.6519 71.6749 93.7515 72.0447 93.7515 72.4948C93.7515 73.1652 93.5067 73.7054 93.0163 74.1153C92.5266 74.5156 91.846 74.7155 90.9758 74.7155C90.1157 74.7155 89.4555 74.5156 88.9952 74.1153C88.5451 73.7054 88.2353 73.14 88.0649 72.4198L89.3103 71.9997C89.3607 72.3298 89.4405 72.5998 89.5504 72.8099C89.6704 73.02 89.8108 73.185 89.9705 73.3051C90.1307 73.4251 90.3059 73.5103 90.4956 73.5602C90.6859 73.6003 90.8809 73.6202 91.0808 73.6202C91.4211 73.6202 91.7211 73.5403 91.981 73.3801C92.2415 73.2102 92.3712 72.9503 92.3712 72.5998C92.3712 72.3399 92.2715 72.1251 92.0711 71.9546C91.8712 71.7848 91.6209 71.6245 91.3209 71.4745C91.0208 71.3244 90.696 71.1744 90.3456 71.0243C90.0059 70.8647 89.6854 70.6744 89.3853 70.4542C89.0852 70.2345 88.8355 69.9692 88.6351 69.6589C88.4352 69.339 88.335 68.9441 88.335 68.4735C88.335 68.2437 88.38 68.0036 88.4701 67.7533C88.5601 67.4934 88.7101 67.2582 88.9202 67.0481C89.1404 66.838 89.4255 66.6633 89.7754 66.5229C90.1355 66.3831 90.576 66.3129 91.0958 66.3129C91.786 66.3129 92.3562 66.4683 92.8063 66.778C93.2666 67.0781 93.5967 67.5883 93.7966 68.3085L92.5512 68.7286C92.4414 68.3187 92.2613 67.9988 92.0111 67.7683C91.7613 67.5283 91.4463 67.4082 91.0658 67.4082Z" stroke="white" stroke-width="0.6"/>
</mask>
<g mask="url(#mask6_1_924)">
<path d="M83.1312 73.5423C83.6413 73.5423 84.0818 73.4474 84.4516 73.2572C84.832 73.0573 85.137 72.8472 85.3668 72.627L86.012 73.4072C85.7023 73.7577 85.2972 74.0626 84.7967 74.3225C84.2967 74.583 83.7265 74.7126 83.0862 74.7126C82.5562 74.7126 82.0659 74.628 81.6158 74.4576C81.1657 74.2775 80.7755 74.0128 80.4455 73.6623C80.1255 73.3022 79.8705 72.8622 79.6802 72.3419C79.5002 71.8119 79.4102 71.2015 79.4102 70.5113C79.4102 69.8211 79.5002 69.2161 79.6802 68.6957C79.8603 68.1658 80.1105 67.7258 80.4304 67.3753C80.7509 67.0152 81.126 66.7505 81.5558 66.5801C81.9962 66.4 82.471 66.31 82.9812 66.31C83.4517 66.31 83.8814 66.385 84.2715 66.5351C84.6718 66.6755 85.0121 66.8952 85.2918 67.1953C85.5721 67.4954 85.787 67.8705 85.937 68.3206C86.0972 68.7611 86.1771 69.2809 86.1771 69.8811V70.9315H80.9256C80.9856 71.8221 81.216 72.4823 81.6158 72.9121C82.0263 73.3322 82.531 73.5423 83.1312 73.5423ZM82.9962 67.4804C82.456 67.4804 81.9962 67.6808 81.6158 68.0806C81.246 68.4707 81.021 69.0709 80.9406 69.8811H84.7517C84.7517 69.1111 84.5968 68.5211 84.2865 68.1106C83.9864 67.6904 83.5567 67.4804 82.9962 67.4804Z" stroke="white" stroke-width="0.6"/>
</g>
<mask id="mask7_1_924" style="mask-type:luminance" maskUnits="userSpaceOnUse" x="32" y="62" width="63" height="14">
<path d="M94.2912 63.2274H33.2026V75.0168H94.2912V63.2274Z" fill="white" stroke="white" stroke-width="0.6"/>
<path d="M37.3548 64.588V73.3208H39.0053V74.4911H34.2639V73.3208H35.9144V66.8237C35.4843 67.2439 34.9041 67.5643 34.1739 67.784L33.7388 66.5836C33.9989 66.5038 34.2589 66.3939 34.519 66.2535C34.7891 66.1137 35.0392 65.9534 35.2692 65.7734C35.4993 65.5933 35.6944 65.4036 35.8544 65.2032C36.0244 65.0033 36.1445 64.7981 36.2145 64.588H37.3548Z" stroke="white" stroke-width="0.6"/>
<path d="M40.8125 69.5236C40.8125 68.6736 40.9075 67.9282 41.0976 67.2879C41.2877 66.6378 41.5477 66.0977 41.8778 65.6674C42.2179 65.2376 42.618 64.9123 43.0781 64.692C43.5383 64.4723 44.0384 64.3619 44.5786 64.3619C45.1187 64.3619 45.6188 64.4723 46.079 64.692C46.5391 64.9123 46.9342 65.2376 47.2643 65.6674C47.6044 66.0977 47.8695 66.6378 48.0595 67.2879C48.2596 67.9282 48.3596 68.6736 48.3596 69.5236C48.3596 70.3842 48.2596 71.1393 48.0595 71.7893C47.8695 72.4297 47.6044 72.9698 47.2643 73.4098C46.9342 73.8401 46.5391 74.1654 46.079 74.3851C45.6188 74.6053 45.1187 74.7152 44.5786 74.7152C44.0384 74.7152 43.5383 74.6053 43.0781 74.3851C42.618 74.1654 42.2179 73.8401 41.8778 73.4098C41.5477 72.9698 41.2877 72.4297 41.0976 71.7893C40.9075 71.1393 40.8125 70.3842 40.8125 69.5236ZM42.2679 69.5236C42.2679 70.2041 42.3229 70.799 42.433 71.3091C42.553 71.8096 42.7131 72.2244 42.9131 72.5545C43.1231 72.8846 43.3682 73.1349 43.6483 73.3047C43.9284 73.465 44.2384 73.5448 44.5786 73.5448C45.2587 73.5448 45.8139 73.2201 46.244 72.5695C46.6841 71.9093 46.9042 70.8943 46.9042 69.5236C46.9042 68.1731 46.6841 67.1732 46.244 66.5226C45.8139 65.8624 45.2587 65.5323 44.5786 65.5323C43.8984 65.5323 43.3432 65.8624 42.9131 66.5226C42.483 67.1732 42.2679 68.1731 42.2679 69.5236Z" stroke="white" stroke-width="0.6"/>
<path d="M59.5765 72.0458C59.5765 71.6461 59.4462 71.316 59.1864 71.0555C58.9259 70.7956 58.6012 70.5657 58.2111 70.3653C57.8306 70.1654 57.4105 69.9704 56.9507 69.7801C56.5006 69.5904 56.0805 69.36 55.6904 69.0899C55.3099 68.8198 54.99 68.4897 54.7301 68.0996C54.4697 67.6998 54.34 67.1945 54.34 66.5841C54.34 66.284 54.3946 65.9689 54.505 65.6388C54.6251 65.3087 54.8148 65.0038 55.0752 64.7235C55.3351 64.4438 55.6754 64.2134 56.0955 64.0333C56.5252 63.8533 57.0558 63.7632 57.6859 63.7632C58.516 63.7632 59.2062 63.9433 59.7565 64.3034C60.3165 64.6539 60.7168 65.2337 60.9568 66.044L59.6515 66.5091C59.4811 66.0193 59.2164 65.634 58.8563 65.3537C58.4962 65.074 58.0407 64.9336 57.4909 64.9336C56.9807 64.9336 56.5654 65.0687 56.2455 65.3387C55.9353 65.6088 55.7804 65.9839 55.7804 66.4641C55.7804 66.8746 55.9101 67.2143 56.1705 67.4844C56.4304 67.7449 56.7503 67.9796 57.1308 68.1896C57.5209 68.3901 57.941 68.5851 58.3911 68.7748C58.8509 68.9651 59.271 69.1901 59.6515 69.45C60.0416 69.7003 60.3663 70.0106 60.6268 70.3803C60.8867 70.7404 61.0169 71.2008 61.0169 71.7608C61.0169 72.071 60.9569 72.4011 60.8368 72.7511C60.7168 73.0914 60.5217 73.4113 60.2517 73.7114C59.9816 74.0018 59.6215 74.2419 59.1713 74.4316C58.7309 74.6218 58.1811 74.7167 57.5209 74.7167C56.6303 74.7167 55.8854 74.5018 55.2853 74.0715C54.6947 73.6315 54.2746 72.9161 54.0249 71.9258L55.3153 71.4607C55.6652 72.8513 56.4454 73.5463 57.6559 73.5463C58.2159 73.5463 58.6762 73.4065 59.0363 73.1262C59.3964 72.8363 59.5765 72.4762 59.5765 72.0458Z" stroke="white" stroke-width="0.6"/>
<path d="M65.8238 67.4832C64.9836 67.4832 64.4386 67.8985 64.1884 68.7286L62.943 68.3085C63.3433 66.9784 64.3036 66.3129 65.8238 66.3129C66.8741 66.3129 67.6292 66.5781 68.0895 67.1081C68.5594 67.6285 68.7947 68.4837 68.7947 69.6739V73.215C68.7947 73.3753 68.8295 73.4851 68.8997 73.5451C68.9795 73.5955 69.0749 73.6202 69.1848 73.6202C69.2646 73.6202 69.3498 73.6105 69.4398 73.5902C69.5299 73.5601 69.6151 73.5253 69.6949 73.4851L69.935 74.4154C69.7748 74.4958 69.6001 74.5655 69.4098 74.6255C69.2196 74.6855 69.0095 74.7155 68.7797 74.7155C68.4196 74.7155 68.1146 74.6308 67.8644 74.4604C67.6243 74.2804 67.4791 73.9406 67.4293 73.4401C67.2792 73.6003 67.1094 73.7606 66.9191 73.9203C66.7289 74.0703 66.5188 74.2053 66.289 74.3254C66.0687 74.4454 65.8287 74.5408 65.5688 74.6105C65.3185 74.6807 65.0538 74.7155 64.7735 74.7155C64.4734 74.7155 64.1884 74.6555 63.9183 74.5355C63.6584 74.4256 63.4333 74.2707 63.2431 74.0703C63.0529 73.8704 62.9028 73.6352 62.793 73.3651C62.6831 73.0854 62.6279 72.7853 62.6279 72.4648C62.6279 71.6449 62.9028 71.0045 63.4532 70.5442C64.0131 70.0844 64.7837 69.854 65.7638 69.854C66.0339 69.854 66.304 69.8743 66.574 69.914C66.8441 69.9542 67.104 70.0142 67.3543 70.0941V69.1488C67.3543 68.629 67.2192 68.2238 66.9491 67.9334C66.6791 67.6333 66.304 67.4832 65.8238 67.4832ZM65.2087 73.5451C65.5886 73.5451 65.9589 73.4551 66.319 73.2751C66.6893 73.0854 67.0343 72.8303 67.3543 72.5098V71.0544C67.1442 70.9847 66.9191 70.9295 66.6791 70.8893C66.439 70.8497 66.2038 70.8293 65.9739 70.8293C65.7236 70.8293 65.4836 70.8545 65.2537 70.9043C65.0238 70.9547 64.8185 71.0394 64.6385 71.1594C64.4686 71.2794 64.3282 71.4397 64.2184 71.6395C64.1182 71.8298 64.0683 72.065 64.0683 72.3448C64.0683 72.6749 64.1734 72.96 64.3834 73.2C64.5935 73.4305 64.8684 73.5451 65.2087 73.5451Z" stroke="white" stroke-width="0.6"/>
<path d="M75.2826 74.4914H73.392L70.8413 66.5389H72.3267L74.4123 73.156L76.4979 66.5389H77.8333L75.2826 74.4914Z" stroke="white" stroke-width="0.6"/>
<path d="M83.1312 73.5451C83.6413 73.5451 84.0818 73.4503 84.4516 73.26C84.832 73.0602 85.137 72.8501 85.3668 72.6299L86.012 73.4101C85.7023 73.7606 85.2972 74.0655 84.7967 74.3254C84.2967 74.5858 83.7265 74.7155 83.0862 74.7155C82.5562 74.7155 82.0659 74.6308 81.6158 74.4604C81.1657 74.2804 80.7755 74.0156 80.4455 73.6652C80.1255 73.3051 79.8705 72.8651 79.6802 72.3448C79.5002 71.8148 79.4102 71.2044 79.4102 70.5142C79.4102 69.824 79.5002 69.219 79.6802 68.6986C79.8603 68.1686 80.1105 67.7287 80.4304 67.3782C80.7509 67.0181 81.126 66.7534 81.5558 66.583C81.9962 66.4029 82.471 66.3129 82.9812 66.3129C83.4517 66.3129 83.8814 66.3879 84.2715 66.5379C84.6718 66.6783 85.0121 66.8981 85.2918 67.1981C85.5721 67.4982 85.787 67.8734 85.937 68.3235C86.0972 68.764 86.1771 69.2838 86.1771 69.884V70.9343H80.9256C80.9856 71.825 81.216 72.4852 81.6158 72.9149C82.0263 73.3351 82.531 73.5451 83.1312 73.5451ZM82.9962 67.4832C82.456 67.4832 81.9962 67.6837 81.6158 68.0834C81.246 68.4735 81.021 69.0737 80.9406 69.884H84.7517C84.7517 69.1139 84.5968 68.5239 84.2865 68.1134C83.9864 67.6933 83.5567 67.4832 82.9962 67.4832Z" stroke="white" stroke-width="0.6"/>
<path d="M91.0658 67.4082C90.6859 67.4082 90.3659 67.4934 90.1055 67.6633C89.8456 67.8337 89.7154 68.0936 89.7154 68.4435C89.7154 68.7238 89.8156 68.9591 90.0155 69.1488C90.2159 69.3288 90.4656 69.4939 90.7657 69.6439C91.0658 69.794 91.3862 69.944 91.726 70.0941C92.0764 70.2441 92.4012 70.4242 92.7012 70.6342C93.0013 70.8346 93.2516 71.0844 93.4515 71.3845C93.6519 71.6749 93.7515 72.0447 93.7515 72.4948C93.7515 73.1652 93.5067 73.7054 93.0163 74.1153C92.5266 74.5156 91.846 74.7155 90.9758 74.7155C90.1157 74.7155 89.4555 74.5156 88.9952 74.1153C88.5451 73.7054 88.2353 73.14 88.0649 72.4198L89.3103 71.9997C89.3607 72.3298 89.4405 72.5998 89.5504 72.8099C89.6704 73.02 89.8108 73.185 89.9705 73.3051C90.1307 73.4251 90.3059 73.5103 90.4956 73.5602C90.6859 73.6003 90.8809 73.6202 91.0808 73.6202C91.4211 73.6202 91.7211 73.5403 91.981 73.3801C92.2415 73.2102 92.3712 72.9503 92.3712 72.5998C92.3712 72.3399 92.2715 72.1251 92.0711 71.9546C91.8712 71.7848 91.6209 71.6245 91.3209 71.4745C91.0208 71.3244 90.696 71.1744 90.3456 71.0243C90.0059 70.8647 89.6854 70.6744 89.3853 70.4542C89.0852 70.2345 88.8355 69.9692 88.6351 69.6589C88.4352 69.339 88.335 68.9441 88.335 68.4735C88.335 68.2437 88.38 68.0036 88.4701 67.7533C88.5601 67.4934 88.7101 67.2582 88.9202 67.0481C89.1404 66.838 89.4255 66.6633 89.7754 66.5229C90.1355 66.3831 90.576 66.3129 91.0958 66.3129C91.786 66.3129 92.3562 66.4683 92.8063 66.778C93.2666 67.0781 93.5967 67.5883 93.7966 68.3085L92.5512 68.7286C92.4414 68.3187 92.2613 67.9988 92.0111 67.7683C91.7613 67.5283 91.4463 67.4082 91.0658 67.4082Z" stroke="white" stroke-width="0.6"/>
</mask>
<g mask="url(#mask7_1_924)">
<path d="M91.0658 67.4053C90.6859 67.4053 90.3659 67.4905 90.1055 67.6604C89.8456 67.8308 89.7154 68.0907 89.7154 68.4407C89.7154 68.7209 89.8156 68.9562 90.0155 69.1459C90.2159 69.3259 90.4656 69.491 90.7657 69.641C91.0658 69.7911 91.3862 69.9411 91.726 70.0912C92.0764 70.2412 92.4012 70.4213 92.7012 70.6314C93.0013 70.8318 93.2516 71.0815 93.4515 71.3816C93.6519 71.672 93.7515 72.0418 93.7515 72.4919C93.7515 73.1623 93.5067 73.7025 93.0163 74.1125C92.5266 74.5128 91.846 74.7126 90.9758 74.7126C90.1157 74.7126 89.4555 74.5128 88.9952 74.1125C88.5451 73.7025 88.2353 73.1371 88.0649 72.4169L89.3103 71.9968C89.3607 72.3269 89.4405 72.597 89.5504 72.807C89.6704 73.0171 89.8108 73.1822 89.9705 73.3022C90.1307 73.4222 90.3059 73.5074 90.4956 73.5573C90.6859 73.5975 90.8809 73.6173 91.0808 73.6173C91.4211 73.6173 91.7211 73.5374 91.981 73.3772C92.2415 73.2073 92.3712 72.9474 92.3712 72.597C92.3712 72.3371 92.2715 72.1222 92.0711 71.9518C91.8712 71.7819 91.6209 71.6217 91.3209 71.4716C91.0208 71.3216 90.696 71.1715 90.3456 71.0215C90.0059 70.8618 89.6854 70.6715 89.3853 70.4513C89.0852 70.2316 88.8355 69.9663 88.6351 69.656C88.4352 69.3361 88.335 68.9412 88.335 68.4707C88.335 68.2408 88.38 68.0007 88.4701 67.7505C88.5601 67.4905 88.7101 67.2553 88.9202 67.0452C89.1404 66.8352 89.4255 66.6605 89.7754 66.5201C90.1355 66.3802 90.576 66.31 91.0958 66.31C91.786 66.31 92.3562 66.4654 92.8063 66.7751C93.2666 67.0752 93.5967 67.5854 93.7966 68.3056L92.5512 68.7258C92.4414 68.3158 92.2613 67.9959 92.0111 67.7655C91.7613 67.5254 91.4463 67.4053 91.0658 67.4053Z" stroke="white" stroke-width="0.6"/>
</g>
<defs>
<linearGradient id="paint0_linear_1_924" x1="34.8315" y1="12.3259" x2="59.4827" y2="88.4208" gradientUnits="userSpaceOnUse">
<stop stop-color="#D8AC37"/>
<stop offset="0.078125" stop-color="#E9C55A"/>
<stop offset="0.223958" stop-color="#E8C65B"/>
<stop offset="0.421875" stop-color="#FBDE80"/>
<stop offset="0.453125" stop-color="white"/>
<stop offset="0.5" stop-color="#D9B246"/>
<stop offset="0.651042" stop-color="#DAC360"/>
<stop offset="0.885417" stop-color="#EAC564"/>
<stop offset="0.994792" stop-color="#CFA83B"/>
</linearGradient>
<linearGradient id="paint1_linear_1_924" x1="63.7681" y1="10.1824" x2="63.7681" y2="82.5266" gradientUnits="userSpaceOnUse">
<stop stop-color="#EBC95F"/>
<stop offset="0.192708" stop-color="#E6C053"/>
<stop offset="0.369792" stop-color="#FDE287"/>
<stop offset="0.536458" stop-color="#FDF2A6"/>
<stop offset="0.697917" stop-color="#FBFEC4"/>
<stop offset="0.838542" stop-color="#F2EAA2"/>
<stop offset="0.979167" stop-color="#E7C365"/>
</linearGradient>
<linearGradient id="paint2_linear_1_924" x1="12.5928" y1="60.0189" x2="12.5928" y2="109.856" gradientUnits="userSpaceOnUse">
<stop stop-color="#EBC95F"/>
<stop offset="0.161927" stop-color="#E6C053"/>
<stop offset="0.345187" stop-color="#FDE287"/>
<stop offset="0.536458" stop-color="#FDF2A6"/>
<stop offset="0.697917" stop-color="#FBFEC4"/>
<stop offset="0.838542" stop-color="#F2EAA2"/>
<stop offset="0.979167" stop-color="#E7C365"/>
</linearGradient>
<linearGradient id="paint3_linear_1_924" x1="114.407" y1="61.0906" x2="114.407" y2="110.928" gradientUnits="userSpaceOnUse">
<stop stop-color="#EBC95F"/>
<stop offset="0.161927" stop-color="#E6C053"/>
<stop offset="0.345187" stop-color="#FDE287"/>
<stop offset="0.536458" stop-color="#FDF2A6"/>
<stop offset="0.697917" stop-color="#FBFEC4"/>
<stop offset="0.838542" stop-color="#F2EAA2"/>
<stop offset="0.979167" stop-color="#E7C365"/>
</linearGradient>
<linearGradient id="paint4_linear_1_924" x1="65.3757" y1="55.7318" x2="65.3757" y2="105.569" gradientUnits="userSpaceOnUse">
<stop stop-color="#EBC95F"/>
<stop offset="0.161927" stop-color="#E6C053"/>
<stop offset="0.345187" stop-color="#FDE287"/>
<stop offset="0.536458" stop-color="#FDF2A6"/>
<stop offset="0.697917" stop-color="#FBFEC4"/>
<stop offset="0.838542" stop-color="#F2EAA2"/>
<stop offset="0.979167" stop-color="#E7C365"/>
</linearGradient>
</defs>
</svg>
