<svg width="29" height="22" viewBox="0 0 29 22" fill="none" xmlns="http://www.w3.org/2000/svg">
<path fill-rule="evenodd" clip-rule="evenodd" d="M27.5219 20.1904H26.8219V7.09161L27.2502 7.26638C27.3384 7.30205 27.4309 7.31921 27.5219 7.31921C27.7943 7.31921 28.0544 7.16387 28.1673 6.90457C28.317 6.55997 28.1499 6.16297 27.7935 6.01758L14.4936 0.597926C14.3201 0.527905 14.1245 0.527905 13.9509 0.597926L0.651077 6.01758C0.294081 6.16302 0.127505 6.56002 0.277292 6.90457C0.427571 7.25056 0.840566 7.4095 1.19379 7.26633L1.62221 7.09156V20.1904H0.922159C0.535305 20.1904 0.222168 20.4935 0.222168 20.8678C0.222168 21.2423 0.535305 21.5454 0.922159 21.5454H27.5219C27.9087 21.5454 28.2218 21.2423 28.2218 20.8678C28.2218 20.4935 27.9087 20.1904 27.5219 20.1904ZM22.6218 17.4806V20.1904H5.8221V17.4806H22.6218ZM5.8221 13.4164V16.1262H22.6218V13.4164H5.8221ZM22.6218 9.35163V12.0615H5.8221V9.35163H22.6218ZM24.0219 20.1904H25.4218V6.52076L14.222 1.95697L3.02213 6.52118V20.1909H4.42211V9.35163C4.42211 8.60326 5.04883 7.99671 5.8221 7.99671H22.6218C23.3952 7.99671 24.0219 8.60326 24.0219 9.35115V20.1904Z" fill="#6F7075"/>
</svg>
