<svg width="51" height="51" viewBox="0 0 51 51" fill="none" xmlns="http://www.w3.org/2000/svg">
<g filter="url(#filter0_d_1_2765)">
<circle cx="25.1304" cy="21.1304" r="21.1304" fill="#B7CF53"/>
<path d="M19.96 9H30.04C33.88 9 37 12.12 37 15.96V26.04C37 27.8859 36.2667 29.6562 34.9615 30.9615C33.6562 32.2667 31.8859 33 30.04 33H19.96C16.12 33 13 29.88 13 26.04V15.96C13 14.1141 13.7333 12.3438 15.0385 11.0385C16.3438 9.73328 18.1141 9 19.96 9ZM19.72 11.4C18.5743 11.4 17.4755 11.8551 16.6653 12.6653C15.8551 13.4755 15.4 14.5743 15.4 15.72V26.28C15.4 28.668 17.332 30.6 19.72 30.6H30.28C31.4257 30.6 32.5245 30.1449 33.3347 29.3347C34.1449 28.5245 34.6 27.4257 34.6 26.28V15.72C34.6 13.332 32.668 11.4 30.28 11.4H19.72ZM31.3 13.2C31.6978 13.2 32.0794 13.358 32.3607 13.6393C32.642 13.9206 32.8 14.3022 32.8 14.7C32.8 15.0978 32.642 15.4794 32.3607 15.7607C32.0794 16.042 31.6978 16.2 31.3 16.2C30.9022 16.2 30.5206 16.042 30.2393 15.7607C29.958 15.4794 29.8 15.0978 29.8 14.7C29.8 14.3022 29.958 13.9206 30.2393 13.6393C30.5206 13.358 30.9022 13.2 31.3 13.2ZM25 15C26.5913 15 28.1174 15.6321 29.2426 16.7574C30.3679 17.8826 31 19.4087 31 21C31 22.5913 30.3679 24.1174 29.2426 25.2426C28.1174 26.3679 26.5913 27 25 27C23.4087 27 21.8826 26.3679 20.7574 25.2426C19.6321 24.1174 19 22.5913 19 21C19 19.4087 19.6321 17.8826 20.7574 16.7574C21.8826 15.6321 23.4087 15 25 15ZM25 17.4C24.0452 17.4 23.1295 17.7793 22.4544 18.4544C21.7793 19.1295 21.4 20.0452 21.4 21C21.4 21.9548 21.7793 22.8705 22.4544 23.5456C23.1295 24.2207 24.0452 24.6 25 24.6C25.9548 24.6 26.8705 24.2207 27.5456 23.5456C28.2207 22.8705 28.6 21.9548 28.6 21C28.6 20.0452 28.2207 19.1295 27.5456 18.4544C26.8705 17.7793 25.9548 17.4 25 17.4Z" fill="white"/>
</g>
<defs>
<filter id="filter0_d_1_2765" x="0" y="0" width="50.2609" height="50.2609" filterUnits="userSpaceOnUse" color-interpolation-filters="sRGB">
<feFlood flood-opacity="0" result="BackgroundImageFix"/>
<feColorMatrix in="SourceAlpha" type="matrix" values="0 0 0 0 0 0 0 0 0 0 0 0 0 0 0 0 0 0 127 0" result="hardAlpha"/>
<feOffset dy="4"/>
<feGaussianBlur stdDeviation="2"/>
<feComposite in2="hardAlpha" operator="out"/>
<feColorMatrix type="matrix" values="0 0 0 0 0 0 0 0 0 0 0 0 0 0 0 0 0 0 0.25 0"/>
<feBlend mode="normal" in2="BackgroundImageFix" result="effect1_dropShadow_1_2765"/>
<feBlend mode="normal" in="SourceGraphic" in2="effect1_dropShadow_1_2765" result="shape"/>
</filter>
</defs>
</svg>
