<svg width="30" height="32" viewBox="0 0 30 32" fill="none" xmlns="http://www.w3.org/2000/svg">
<mask id="mask0_1_3819" style="mask-type:alpha" maskUnits="userSpaceOnUse" x="0" y="1" width="30" height="30">
<path fill-rule="evenodd" clip-rule="evenodd" d="M14.621 1C6.547 1 0 7.547 0 15.622C0 23.696 6.547 30.243 14.621 30.243C22.696 30.243 29.243 23.696 29.243 15.622C29.243 7.547 22.696 1 14.621 1Z" fill="white"/>
</mask>
<g mask="url(#mask0_1_3819)">
<path fill-rule="evenodd" clip-rule="evenodd" d="M14.621 1C6.547 1 0 7.547 0 15.622C0 23.696 6.547 30.243 14.621 30.243C22.696 30.243 29.243 23.696 29.243 15.622C29.243 7.547 22.696 1 14.621 1Z" fill="url(#paint0_linear_1_3819)"/>
</g>
<path fill-rule="evenodd" clip-rule="evenodd" d="M19.1603 10.0938C18.6053 10.0938 18.1553 10.5438 18.1553 11.0988C18.1553 11.6538 18.6053 12.1038 19.1603 12.1038C19.7153 12.1038 20.1653 11.6538 20.1653 11.0988C20.1653 10.5438 19.7153 10.0938 19.1603 10.0938Z" fill="white"/>
<path fill-rule="evenodd" clip-rule="evenodd" d="M14.6917 18.3088C13.2007 18.3088 11.9877 17.0958 11.9877 15.6048C11.9877 14.1128 13.2007 12.8998 14.6917 12.8998C16.1827 12.8998 17.3957 14.1128 17.3957 15.6048C17.3957 17.0958 16.1827 18.3088 14.6917 18.3088ZM14.6917 11.3828C12.3637 11.3828 10.4697 13.2768 10.4697 15.6048C10.4697 17.9328 12.3637 19.8268 14.6917 19.8268C17.0197 19.8268 18.9137 17.9328 18.9137 15.6048C18.9137 13.2768 17.0197 11.3828 14.6917 11.3828Z" fill="white"/>
<path fill-rule="evenodd" clip-rule="evenodd" d="M11.1988 8.64425C9.24881 8.64425 7.6618 10.2303 7.6618 12.1803V19.0253C7.6618 20.9753 9.24881 22.5623 11.1988 22.5623H18.0428C19.9938 22.5623 21.5798 20.9753 21.5798 19.0253V12.1803C21.5798 10.2303 19.9938 8.64425 18.0428 8.64425H11.1988ZM18.0428 24.1753H11.1988C8.35981 24.1753 6.0498 21.8653 6.0498 19.0253V12.1803C6.0498 9.34125 8.35981 7.03125 11.1988 7.03125H18.0428C20.8828 7.03125 23.1928 9.34125 23.1928 12.1803V19.0253C23.1928 21.8653 20.8828 24.1753 18.0428 24.1753Z" fill="white"/>
<defs>
<linearGradient id="paint0_linear_1_3819" x1="29.243" y1="1" x2="0" y2="1" gradientUnits="userSpaceOnUse">
<stop stop-color="#FBE18A"/>
<stop offset="0.320203" stop-color="#F75274"/>
<stop offset="0.592603" stop-color="#D53692"/>
<stop offset="0.802174" stop-color="#8F39CE"/>
<stop offset="1" stop-color="#5B4FE9"/>
</linearGradient>
</defs>
</svg>
