<svg width="12" height="17" viewBox="0 0 12 17" fill="none" xmlns="http://www.w3.org/2000/svg">
<path d="M6.38989 0.792725C3.35355 0.792725 0.889893 3.09665 0.889893 5.93558C0.889893 10.507 6.38989 16.7927 6.38989 16.7927C6.38989 16.7927 11.8899 10.507 11.8899 5.93558C11.8899 3.09665 9.42624 0.792725 6.38989 0.792725ZM6.38989 8.79272C5.95477 8.79272 5.52943 8.65867 5.16764 8.40751C4.80585 8.15635 4.52387 7.79938 4.35736 7.38172C4.19084 6.96406 4.14728 6.50448 4.23216 6.06109C4.31705 5.6177 4.52658 5.21043 4.83426 4.89077C5.14193 4.5711 5.53394 4.35341 5.96069 4.26522C6.38745 4.17702 6.8298 4.22229 7.2318 4.39529C7.63379 4.56829 7.97739 4.86125 8.21913 5.23714C8.46087 5.61302 8.58989 6.05494 8.58989 6.50701C8.58926 7.11302 8.35727 7.69401 7.94482 8.12252C7.53238 8.55104 6.97317 8.79206 6.38989 8.79272Z" fill="#B8D153"/>
</svg>
