<svg width="127" height="31" viewBox="0 0 127 31" fill="none" xmlns="http://www.w3.org/2000/svg">
<mask id="path-1-outside-1_1_34" maskUnits="userSpaceOnUse" x="0" y="0" width="127" height="31" fill="black">
<rect fill="white" width="127" height="31"/>
<path d="M1.98153 29V9.36364H8.05398V12.9432H8.25852C8.61648 11.6477 9.20028 10.6847 10.0099 10.054C10.8196 9.41477 11.7614 9.09517 12.8352 9.09517C13.125 9.09517 13.4233 9.11648 13.7301 9.15909C14.0369 9.19318 14.3224 9.24858 14.5866 9.32528V14.7585C14.2884 14.6562 13.8963 14.5753 13.4105 14.5156C12.9332 14.456 12.5071 14.4261 12.1321 14.4261C11.3906 14.4261 10.7216 14.5923 10.125 14.9247C9.53693 15.2486 9.07244 15.7045 8.73153 16.2926C8.39915 16.8722 8.23295 17.554 8.23295 18.3381V29H1.98153ZM25.2933 29.3707C23.2393 29.3707 21.4666 28.9659 19.9751 28.1562C18.4922 27.3381 17.3501 26.1747 16.549 24.6662C15.7564 23.1491 15.3601 21.3466 15.3601 19.2585C15.3601 17.2301 15.7607 15.4574 16.5618 13.9403C17.3629 12.4148 18.4922 11.2301 19.9496 10.3864C21.407 9.53409 23.1243 9.10795 25.1016 9.10795C26.4993 9.10795 27.7777 9.32528 28.9368 9.75994C30.0959 10.1946 31.0973 10.8381 31.9411 11.6903C32.7848 12.5426 33.4411 13.5952 33.9098 14.848C34.3786 16.0923 34.6129 17.5199 34.6129 19.1307V20.6903H17.5462V17.0597H28.7962C28.7876 16.3949 28.63 15.8026 28.3232 15.2827C28.0163 14.7628 27.5945 14.358 27.0575 14.0682C26.5291 13.7699 25.9197 13.6207 25.2294 13.6207C24.5305 13.6207 23.9041 13.7784 23.3501 14.0938C22.7962 14.4006 22.3572 14.8224 22.0334 15.3594C21.7095 15.8878 21.5391 16.4886 21.522 17.1619V20.8565C21.522 21.6577 21.6797 22.3608 21.995 22.9659C22.3104 23.5625 22.7578 24.027 23.3374 24.3594C23.9169 24.6918 24.6072 24.858 25.4084 24.858C25.9624 24.858 26.4652 24.7812 26.9169 24.6278C27.3686 24.4744 27.7564 24.2486 28.0803 23.9503C28.4041 23.652 28.647 23.2855 28.8089 22.8509L34.549 23.017C34.3104 24.304 33.7862 25.4247 32.9766 26.3793C32.1754 27.3253 31.1229 28.0625 29.8189 28.5909C28.5149 29.1108 27.0064 29.3707 25.2933 29.3707ZM56.3267 9.36364L49.5895 29H42.4304L35.706 9.36364H42.2898L45.9077 22.8892H46.1122L49.7429 9.36364H56.3267ZM67.2699 29.3707C65.2159 29.3707 63.4432 28.9659 61.9517 28.1562C60.4688 27.3381 59.3267 26.1747 58.5256 24.6662C57.733 23.1491 57.3366 21.3466 57.3366 19.2585C57.3366 17.2301 57.7372 15.4574 58.5384 13.9403C59.3395 12.4148 60.4688 11.2301 61.9261 10.3864C63.3835 9.53409 65.1009 9.10795 67.0781 9.10795C68.4759 9.10795 69.7543 9.32528 70.9134 9.75994C72.0724 10.1946 73.0739 10.8381 73.9176 11.6903C74.7614 12.5426 75.4176 13.5952 75.8864 14.848C76.3551 16.0923 76.5895 17.5199 76.5895 19.1307V20.6903H59.5227V17.0597H70.7727C70.7642 16.3949 70.6065 15.8026 70.2997 15.2827C69.9929 14.7628 69.571 14.358 69.0341 14.0682C68.5057 13.7699 67.8963 13.6207 67.206 13.6207C66.5071 13.6207 65.8807 13.7784 65.3267 14.0938C64.7727 14.4006 64.3338 14.8224 64.0099 15.3594C63.6861 15.8878 63.5156 16.4886 63.4986 17.1619V20.8565C63.4986 21.6577 63.6563 22.3608 63.9716 22.9659C64.2869 23.5625 64.7344 24.027 65.3139 24.3594C65.8935 24.6918 66.5838 24.858 67.3849 24.858C67.9389 24.858 68.4418 24.7812 68.8935 24.6278C69.3452 24.4744 69.733 24.2486 70.0568 23.9503C70.3807 23.652 70.6236 23.2855 70.7855 22.8509L76.5256 23.017C76.2869 24.304 75.7628 25.4247 74.9531 26.3793C74.152 27.3253 73.0994 28.0625 71.7955 28.5909C70.4915 29.1108 68.983 29.3707 67.2699 29.3707ZM79.7823 29V9.36364H85.8548V12.9432H86.0593C86.4173 11.6477 87.0011 10.6847 87.8107 10.054C88.6204 9.41477 89.5621 9.09517 90.636 9.09517C90.9258 9.09517 91.2241 9.11648 91.5309 9.15909C91.8377 9.19318 92.1232 9.24858 92.3874 9.32528V14.7585C92.0891 14.6562 91.6971 14.5753 91.2113 14.5156C90.734 14.456 90.3079 14.4261 89.9329 14.4261C89.1914 14.4261 88.5224 14.5923 87.9258 14.9247C87.3377 15.2486 86.8732 15.7045 86.5323 16.2926C86.1999 16.8722 86.0337 17.554 86.0337 18.3381V29H79.7823ZM94.9347 29V9.36364H101.186V29H94.9347ZM98.0668 7.07528C97.1889 7.07528 96.4347 6.78551 95.804 6.20597C95.1733 5.6179 94.858 4.91051 94.858 4.08381C94.858 3.26562 95.1733 2.56676 95.804 1.98722C96.4347 1.39915 97.1889 1.10511 98.0668 1.10511C98.9531 1.10511 99.7074 1.39915 100.33 1.98722C100.96 2.56676 101.276 3.26562 101.276 4.08381C101.276 4.91051 100.96 5.6179 100.33 6.20597C99.7074 6.78551 98.9531 7.07528 98.0668 7.07528ZM116.326 9.36364V13.9659H103.695V9.36364H116.326ZM106.328 29V8.36648C106.328 6.84943 106.614 5.59233 107.185 4.59517C107.756 3.58949 108.549 2.83949 109.563 2.34517C110.577 1.84233 111.749 1.59091 113.078 1.59091C113.948 1.59091 114.766 1.65909 115.533 1.79545C116.309 1.9233 116.884 2.03835 117.259 2.14062L116.262 6.71733C116.032 6.64062 115.75 6.5767 115.418 6.52557C115.094 6.47443 114.787 6.44886 114.498 6.44886C113.765 6.44886 113.262 6.61079 112.989 6.93466C112.716 7.25852 112.58 7.7017 112.58 8.2642V29H106.328ZM119.333 29V9.36364H125.585V29H119.333ZM122.465 7.07528C121.587 7.07528 120.833 6.78551 120.202 6.20597C119.572 5.6179 119.256 4.91051 119.256 4.08381C119.256 3.26562 119.572 2.56676 120.202 1.98722C120.833 1.39915 121.587 1.10511 122.465 1.10511C123.352 1.10511 124.106 1.39915 124.728 1.98722C125.359 2.56676 125.674 3.26562 125.674 4.08381C125.674 4.91051 125.359 5.6179 124.728 6.20597C124.106 6.78551 123.352 7.07528 122.465 7.07528Z"/>
</mask>
<path d="M1.98153 29V9.36364H8.05398V12.9432H8.25852C8.61648 11.6477 9.20028 10.6847 10.0099 10.054C10.8196 9.41477 11.7614 9.09517 12.8352 9.09517C13.125 9.09517 13.4233 9.11648 13.7301 9.15909C14.0369 9.19318 14.3224 9.24858 14.5866 9.32528V14.7585C14.2884 14.6562 13.8963 14.5753 13.4105 14.5156C12.9332 14.456 12.5071 14.4261 12.1321 14.4261C11.3906 14.4261 10.7216 14.5923 10.125 14.9247C9.53693 15.2486 9.07244 15.7045 8.73153 16.2926C8.39915 16.8722 8.23295 17.554 8.23295 18.3381V29H1.98153ZM25.2933 29.3707C23.2393 29.3707 21.4666 28.9659 19.9751 28.1562C18.4922 27.3381 17.3501 26.1747 16.549 24.6662C15.7564 23.1491 15.3601 21.3466 15.3601 19.2585C15.3601 17.2301 15.7607 15.4574 16.5618 13.9403C17.3629 12.4148 18.4922 11.2301 19.9496 10.3864C21.407 9.53409 23.1243 9.10795 25.1016 9.10795C26.4993 9.10795 27.7777 9.32528 28.9368 9.75994C30.0959 10.1946 31.0973 10.8381 31.9411 11.6903C32.7848 12.5426 33.4411 13.5952 33.9098 14.848C34.3786 16.0923 34.6129 17.5199 34.6129 19.1307V20.6903H17.5462V17.0597H28.7962C28.7876 16.3949 28.63 15.8026 28.3232 15.2827C28.0163 14.7628 27.5945 14.358 27.0575 14.0682C26.5291 13.7699 25.9197 13.6207 25.2294 13.6207C24.5305 13.6207 23.9041 13.7784 23.3501 14.0938C22.7962 14.4006 22.3572 14.8224 22.0334 15.3594C21.7095 15.8878 21.5391 16.4886 21.522 17.1619V20.8565C21.522 21.6577 21.6797 22.3608 21.995 22.9659C22.3104 23.5625 22.7578 24.027 23.3374 24.3594C23.9169 24.6918 24.6072 24.858 25.4084 24.858C25.9624 24.858 26.4652 24.7812 26.9169 24.6278C27.3686 24.4744 27.7564 24.2486 28.0803 23.9503C28.4041 23.652 28.647 23.2855 28.8089 22.8509L34.549 23.017C34.3104 24.304 33.7862 25.4247 32.9766 26.3793C32.1754 27.3253 31.1229 28.0625 29.8189 28.5909C28.5149 29.1108 27.0064 29.3707 25.2933 29.3707ZM56.3267 9.36364L49.5895 29H42.4304L35.706 9.36364H42.2898L45.9077 22.8892H46.1122L49.7429 9.36364H56.3267ZM67.2699 29.3707C65.2159 29.3707 63.4432 28.9659 61.9517 28.1562C60.4688 27.3381 59.3267 26.1747 58.5256 24.6662C57.733 23.1491 57.3366 21.3466 57.3366 19.2585C57.3366 17.2301 57.7372 15.4574 58.5384 13.9403C59.3395 12.4148 60.4688 11.2301 61.9261 10.3864C63.3835 9.53409 65.1009 9.10795 67.0781 9.10795C68.4759 9.10795 69.7543 9.32528 70.9134 9.75994C72.0724 10.1946 73.0739 10.8381 73.9176 11.6903C74.7614 12.5426 75.4176 13.5952 75.8864 14.848C76.3551 16.0923 76.5895 17.5199 76.5895 19.1307V20.6903H59.5227V17.0597H70.7727C70.7642 16.3949 70.6065 15.8026 70.2997 15.2827C69.9929 14.7628 69.571 14.358 69.0341 14.0682C68.5057 13.7699 67.8963 13.6207 67.206 13.6207C66.5071 13.6207 65.8807 13.7784 65.3267 14.0938C64.7727 14.4006 64.3338 14.8224 64.0099 15.3594C63.6861 15.8878 63.5156 16.4886 63.4986 17.1619V20.8565C63.4986 21.6577 63.6563 22.3608 63.9716 22.9659C64.2869 23.5625 64.7344 24.027 65.3139 24.3594C65.8935 24.6918 66.5838 24.858 67.3849 24.858C67.9389 24.858 68.4418 24.7812 68.8935 24.6278C69.3452 24.4744 69.733 24.2486 70.0568 23.9503C70.3807 23.652 70.6236 23.2855 70.7855 22.8509L76.5256 23.017C76.2869 24.304 75.7628 25.4247 74.9531 26.3793C74.152 27.3253 73.0994 28.0625 71.7955 28.5909C70.4915 29.1108 68.983 29.3707 67.2699 29.3707ZM79.7823 29V9.36364H85.8548V12.9432H86.0593C86.4173 11.6477 87.0011 10.6847 87.8107 10.054C88.6204 9.41477 89.5621 9.09517 90.636 9.09517C90.9258 9.09517 91.2241 9.11648 91.5309 9.15909C91.8377 9.19318 92.1232 9.24858 92.3874 9.32528V14.7585C92.0891 14.6562 91.6971 14.5753 91.2113 14.5156C90.734 14.456 90.3079 14.4261 89.9329 14.4261C89.1914 14.4261 88.5224 14.5923 87.9258 14.9247C87.3377 15.2486 86.8732 15.7045 86.5323 16.2926C86.1999 16.8722 86.0337 17.554 86.0337 18.3381V29H79.7823ZM94.9347 29V9.36364H101.186V29H94.9347ZM98.0668 7.07528C97.1889 7.07528 96.4347 6.78551 95.804 6.20597C95.1733 5.6179 94.858 4.91051 94.858 4.08381C94.858 3.26562 95.1733 2.56676 95.804 1.98722C96.4347 1.39915 97.1889 1.10511 98.0668 1.10511C98.9531 1.10511 99.7074 1.39915 100.33 1.98722C100.96 2.56676 101.276 3.26562 101.276 4.08381C101.276 4.91051 100.96 5.6179 100.33 6.20597C99.7074 6.78551 98.9531 7.07528 98.0668 7.07528ZM116.326 9.36364V13.9659H103.695V9.36364H116.326ZM106.328 29V8.36648C106.328 6.84943 106.614 5.59233 107.185 4.59517C107.756 3.58949 108.549 2.83949 109.563 2.34517C110.577 1.84233 111.749 1.59091 113.078 1.59091C113.948 1.59091 114.766 1.65909 115.533 1.79545C116.309 1.9233 116.884 2.03835 117.259 2.14062L116.262 6.71733C116.032 6.64062 115.75 6.5767 115.418 6.52557C115.094 6.47443 114.787 6.44886 114.498 6.44886C113.765 6.44886 113.262 6.61079 112.989 6.93466C112.716 7.25852 112.58 7.7017 112.58 8.2642V29H106.328ZM119.333 29V9.36364H125.585V29H119.333ZM122.465 7.07528C121.587 7.07528 120.833 6.78551 120.202 6.20597C119.572 5.6179 119.256 4.91051 119.256 4.08381C119.256 3.26562 119.572 2.56676 120.202 1.98722C120.833 1.39915 121.587 1.10511 122.465 1.10511C123.352 1.10511 124.106 1.39915 124.728 1.98722C125.359 2.56676 125.674 3.26562 125.674 4.08381C125.674 4.91051 125.359 5.6179 124.728 6.20597C124.106 6.78551 123.352 7.07528 122.465 7.07528Z" fill="#B9D153"/>
<path d="M1.98153 29H0.981534V30H1.98153V29ZM1.98153 9.36364V8.36364H0.981534V9.36364H1.98153ZM8.05398 9.36364H9.05398V8.36364H8.05398V9.36364ZM8.05398 12.9432H7.05398V13.9432H8.05398V12.9432ZM8.25852 12.9432V13.9432H9.01968L9.2224 13.2095L8.25852 12.9432ZM10.0099 10.054L10.6245 10.8429L10.6296 10.8389L10.0099 10.054ZM13.7301 9.15909L13.5925 10.1496L13.6061 10.1515L13.6197 10.153L13.7301 9.15909ZM14.5866 9.32528H15.5866V8.57432L14.8655 8.36494L14.5866 9.32528ZM14.5866 14.7585L14.2623 15.7045L15.5866 16.1585V14.7585H14.5866ZM13.4105 14.5156L13.2865 15.5079L13.2886 15.5082L13.4105 14.5156ZM10.125 14.9247L10.6074 15.8007L10.6117 15.7983L10.125 14.9247ZM8.73153 16.2926L7.86638 15.7911L7.86408 15.7951L8.73153 16.2926ZM8.23295 29V30H9.23295V29H8.23295ZM1.98153 29H2.98153V9.36364H1.98153H0.981534V29H1.98153ZM1.98153 9.36364V10.3636H8.05398V9.36364V8.36364H1.98153V9.36364ZM8.05398 9.36364H7.05398V12.9432H8.05398H9.05398V9.36364H8.05398ZM8.05398 12.9432V13.9432H8.25852V12.9432V11.9432H8.05398V12.9432ZM8.25852 12.9432L9.2224 13.2095C9.54079 12.0572 10.0302 11.3058 10.6245 10.8429L10.0099 10.054L9.39543 9.26507C8.37034 10.0636 7.69216 11.2382 7.29464 12.6768L8.25852 12.9432ZM10.0099 10.054L10.6296 10.8389C11.2551 10.345 11.9763 10.0952 12.8352 10.0952V9.09517V8.09517C11.5464 8.09517 10.3841 8.48452 9.3903 9.26909L10.0099 10.054ZM12.8352 9.09517V10.0952C13.076 10.0952 13.3282 10.1129 13.5925 10.1496L13.7301 9.15909L13.8677 8.1686C13.5184 8.12008 13.174 8.09517 12.8352 8.09517V9.09517ZM13.7301 9.15909L13.6197 10.153C13.8763 10.1815 14.1049 10.2267 14.3078 10.2856L14.5866 9.32528L14.8655 8.36494C14.54 8.27045 14.1976 8.20487 13.8405 8.16521L13.7301 9.15909ZM14.5866 9.32528H13.5866V14.7585H14.5866H15.5866V9.32528H14.5866ZM14.5866 14.7585L14.911 13.8126C14.5215 13.679 14.0538 13.5871 13.5324 13.5231L13.4105 14.5156L13.2886 15.5082C13.7388 15.5635 14.0552 15.6335 14.2623 15.7045L14.5866 14.7585ZM13.4105 14.5156L13.5345 13.5233C13.027 13.4599 12.5582 13.4261 12.1321 13.4261V14.4261V15.4261C12.456 15.4261 12.8395 15.452 13.2865 15.5079L13.4105 14.5156ZM12.1321 14.4261V13.4261C11.2353 13.4261 10.3963 13.6288 9.6383 14.0511L10.125 14.9247L10.6117 15.7983C11.0469 15.5558 11.546 15.4261 12.1321 15.4261V14.4261ZM10.125 14.9247L9.64259 14.0488C8.8932 14.4615 8.29728 15.0478 7.86639 15.7911L8.73153 16.2926L9.59667 16.7941C9.84761 16.3613 10.1807 16.0357 10.6074 15.8007L10.125 14.9247ZM8.73153 16.2926L7.86408 15.7951C7.43082 16.5505 7.23295 17.4099 7.23295 18.3381H8.23295H9.23295C9.23295 17.698 9.36747 17.1938 9.59899 16.7901L8.73153 16.2926ZM8.23295 18.3381H7.23295V29H8.23295H9.23295V18.3381H8.23295ZM8.23295 29V28H1.98153V29V30H8.23295V29ZM19.9751 28.1562L19.4921 29.0318L19.4981 29.0351L19.9751 28.1562ZM16.549 24.6662L15.6627 25.1293L15.6658 25.1352L16.549 24.6662ZM16.5618 13.9403L17.4461 14.4073L17.4471 14.4053L16.5618 13.9403ZM19.9496 10.3864L20.4506 11.2518L20.4544 11.2496L19.9496 10.3864ZM28.9368 9.75994L29.2879 8.82361L29.2879 8.82361L28.9368 9.75994ZM33.9098 14.848L32.9732 15.1984L32.974 15.2005L33.9098 14.848ZM34.6129 20.6903V21.6903H35.6129V20.6903H34.6129ZM17.5462 20.6903H16.5462V21.6903H17.5462V20.6903ZM17.5462 17.0597V16.0597H16.5462V17.0597H17.5462ZM28.7962 17.0597V18.0597H29.8091L29.7961 17.0468L28.7962 17.0597ZM27.0575 14.0682L26.5659 14.939L26.5742 14.9437L26.5826 14.9482L27.0575 14.0682ZM23.3501 14.0938L23.8347 14.9686L23.8448 14.9628L23.3501 14.0938ZM22.0334 15.3594L22.886 15.882L22.8897 15.8759L22.0334 15.3594ZM21.522 17.1619L20.5223 17.1366L20.522 17.1493V17.1619H21.522ZM21.995 22.9659L21.1082 23.4281L21.1109 23.4332L21.995 22.9659ZM23.3374 24.3594L22.8398 25.2268L23.3374 24.3594ZM26.9169 24.6278L27.2385 25.5747L26.9169 24.6278ZM28.0803 23.9503L28.7577 24.6858L28.0803 23.9503ZM28.8089 22.8509L28.8379 21.8513L28.1219 21.8305L27.8719 22.5017L28.8089 22.8509ZM34.549 23.017L35.5322 23.1994L35.7451 22.0513L34.5779 22.0175L34.549 23.017ZM32.9766 26.3793L32.214 25.7324L32.2134 25.733L32.9766 26.3793ZM29.8189 28.5909L30.1892 29.5198L30.1945 29.5177L29.8189 28.5909ZM25.2933 29.3707V28.3707C23.3712 28.3707 21.7694 27.9925 20.4522 27.2774L19.9751 28.1562L19.4981 29.0351C21.1638 29.9394 23.1075 30.3707 25.2933 30.3707V29.3707ZM19.9751 28.1562L20.4582 27.2807C19.1468 26.5571 18.1431 25.5357 17.4322 24.1972L16.549 24.6662L15.6658 25.1352C16.5572 26.8137 17.8376 28.119 19.4921 29.0318L19.9751 28.1562ZM16.549 24.6662L17.4353 24.2031C16.7321 22.8571 16.3601 21.2204 16.3601 19.2585H15.3601H14.3601C14.3601 21.4728 14.7807 23.4412 15.6627 25.1293L16.549 24.6662ZM15.3601 19.2585H16.3601C16.3601 17.3632 16.7337 15.7563 17.4461 14.4073L16.5618 13.9403L15.6775 13.4734C14.7877 15.1584 14.3601 17.097 14.3601 19.2585H15.3601ZM16.5618 13.9403L17.4471 14.4053C18.1627 13.0427 19.1605 11.9987 20.4506 11.2518L19.9496 10.3864L19.4485 9.52094C17.8239 10.4615 16.5632 11.7869 15.6764 13.4754L16.5618 13.9403ZM19.9496 10.3864L20.4544 11.2496C21.7342 10.5012 23.2711 10.108 25.1016 10.108V9.10795V8.10795C22.9775 8.10795 21.0798 8.56699 19.4448 9.52313L19.9496 10.3864ZM25.1016 9.10795V10.108C26.3947 10.108 27.5524 10.3088 28.5857 10.6963L28.9368 9.75994L29.2879 8.82361C28.003 8.34178 26.6039 8.10795 25.1016 8.10795V9.10795ZM28.9368 9.75994L28.5857 10.6963C29.614 11.0819 30.4916 11.6476 31.2304 12.3939L31.9411 11.6903L32.6517 10.9868C31.703 10.0285 30.5778 9.30731 29.2879 8.82361L28.9368 9.75994ZM31.9411 11.6903L31.2304 12.3939C31.9638 13.1347 32.5482 14.0626 32.9732 15.1984L33.9098 14.848L34.8464 14.4976C34.3339 13.1277 33.6058 11.9505 32.6517 10.9868L31.9411 11.6903ZM33.9098 14.848L32.974 15.2005C33.3924 16.3111 33.6129 17.6156 33.6129 19.1307H34.6129H35.6129C35.6129 17.4242 35.3647 15.8735 34.8456 14.4955L33.9098 14.848ZM34.6129 19.1307H33.6129V20.6903H34.6129H35.6129V19.1307H34.6129ZM34.6129 20.6903V19.6903H17.5462V20.6903V21.6903H34.6129V20.6903ZM17.5462 20.6903H18.5462V17.0597H17.5462H16.5462V20.6903H17.5462ZM17.5462 17.0597V18.0597H28.7962V17.0597V16.0597H17.5462V17.0597ZM28.7962 17.0597L29.7961 17.0468C29.7856 16.2258 29.5886 15.4594 29.1844 14.7744L28.3232 15.2827L27.4619 15.7909C27.6713 16.1457 27.7897 16.564 27.7962 17.0725L28.7962 17.0597ZM28.3232 15.2827L29.1844 14.7744C28.784 14.096 28.2278 13.5634 27.5325 13.1882L27.0575 14.0682L26.5826 14.9482C26.9611 15.1525 27.2487 15.4296 27.4619 15.7909L28.3232 15.2827ZM27.0575 14.0682L27.5491 13.1974C26.851 12.8033 26.0679 12.6207 25.2294 12.6207V13.6207V14.6207C25.7716 14.6207 26.2072 14.7365 26.5659 14.939L27.0575 14.0682ZM25.2294 13.6207V12.6207C24.3742 12.6207 23.5744 12.8154 22.8554 13.2247L23.3501 14.0938L23.8448 14.9628C24.2338 14.7414 24.6868 14.6207 25.2294 14.6207V13.6207ZM23.3501 14.0938L22.8656 13.219C22.1601 13.6097 21.5923 14.1545 21.1771 14.8429L22.0334 15.3594L22.8897 15.8759C23.1222 15.4904 23.4322 15.1914 23.8346 14.9685L23.3501 14.0938ZM22.0334 15.3594L21.1808 14.8368C20.7571 15.528 20.5434 16.3032 20.5223 17.1366L21.522 17.1619L22.5217 17.1872C22.5347 16.674 22.6619 16.2476 22.886 15.8819L22.0334 15.3594ZM21.522 17.1619H20.522V20.8565H21.522H22.522V17.1619H21.522ZM21.522 20.8565H20.522C20.522 21.7906 20.7066 22.6573 21.1082 23.428L21.995 22.9659L22.8818 22.5038C22.6528 22.0643 22.522 21.5248 22.522 20.8565H21.522ZM21.995 22.9659L21.1109 23.4332C21.5137 24.1953 22.0944 24.7993 22.8398 25.2268L23.3374 24.3594L23.8349 23.4919C23.4212 23.2547 23.107 22.9297 22.8791 22.4986L21.995 22.9659ZM23.3374 24.3594L22.8398 25.2268C23.5984 25.6619 24.4675 25.858 25.4084 25.858V24.858V23.858C24.747 23.858 24.2354 23.7217 23.8349 23.4919L23.3374 24.3594ZM25.4084 24.858V25.858C26.0545 25.858 26.668 25.7685 27.2385 25.5747L26.9169 24.6278L26.5953 23.681C26.2624 23.794 25.8703 23.858 25.4084 23.858V24.858ZM26.9169 24.6278L27.2385 25.5747C27.8111 25.3802 28.323 25.0863 28.7577 24.6858L28.0803 23.9503L27.4028 23.2147C27.1898 23.4109 26.9261 23.5686 26.5953 23.681L26.9169 24.6278ZM28.0803 23.9503L28.7577 24.6858C29.2035 24.2752 29.5322 23.774 29.746 23.2L28.8089 22.8509L27.8719 22.5017C27.7618 22.7971 27.6047 23.0288 27.4028 23.2147L28.0803 23.9503ZM28.8089 22.8509L28.78 23.8504L34.5201 24.0166L34.549 23.017L34.5779 22.0175L28.8379 21.8513L28.8089 22.8509ZM34.549 23.017L33.5658 22.8347C33.3574 23.9584 32.9056 24.917 32.214 25.7324L32.9766 26.3793L33.7392 27.0261C34.6669 25.9324 35.2633 24.6496 35.5322 23.1994L34.549 23.017ZM32.9766 26.3793L32.2134 25.733C31.5303 26.5397 30.6178 27.1882 29.4433 27.6641L29.8189 28.5909L30.1945 29.5177C31.628 28.9368 32.8206 28.1108 33.7397 27.0255L32.9766 26.3793ZM29.8189 28.5909L29.4485 27.662C28.2852 28.1258 26.9067 28.3707 25.2933 28.3707V29.3707V30.3707C27.1061 30.3707 28.7446 30.0958 30.1892 29.5198L29.8189 28.5909ZM56.3267 9.36364L57.2726 9.68816L57.727 8.36364H56.3267V9.36364ZM49.5895 29V30H50.3036L50.5354 29.3245L49.5895 29ZM42.4304 29L41.4843 29.324L41.7158 30H42.4304V29ZM35.706 9.36364V8.36364H34.3065L34.7599 9.68761L35.706 9.36364ZM42.2898 9.36364L43.2558 9.10523L43.0574 8.36364H42.2898V9.36364ZM45.9077 22.8892L44.9416 23.1476L45.14 23.8892H45.9077V22.8892ZM46.1122 22.8892V23.8892H46.8792L47.078 23.1485L46.1122 22.8892ZM49.7429 9.36364V8.36364H48.9759L48.7771 9.10438L49.7429 9.36364ZM56.3267 9.36364L55.3808 9.03911L48.6436 28.6755L49.5895 29L50.5354 29.3245L57.2726 9.68816L56.3267 9.36364ZM49.5895 29V28H42.4304V29V30H49.5895V29ZM42.4304 29L43.3765 28.676L36.652 9.03966L35.706 9.36364L34.7599 9.68761L41.4843 29.324L42.4304 29ZM35.706 9.36364V10.3636H42.2898V9.36364V8.36364H35.706V9.36364ZM42.2898 9.36364L41.3237 9.62204L44.9416 23.1476L45.9077 22.8892L46.8737 22.6308L43.2558 9.10523L42.2898 9.36364ZM45.9077 22.8892V23.8892H46.1122V22.8892V21.8892H45.9077V22.8892ZM46.1122 22.8892L47.078 23.1485L50.7087 9.62289L49.7429 9.36364L48.7771 9.10438L45.1464 22.63L46.1122 22.8892ZM49.7429 9.36364V10.3636H56.3267V9.36364V8.36364H49.7429V9.36364ZM61.9517 28.1562L61.4686 29.0318L61.4746 29.0351L61.9517 28.1562ZM58.5256 24.6662L57.6392 25.1293L57.6424 25.1352L58.5256 24.6662ZM58.5384 13.9403L59.4226 14.4073L59.4237 14.4053L58.5384 13.9403ZM61.9261 10.3864L62.4272 11.2518L62.4309 11.2496L61.9261 10.3864ZM70.9134 9.75994L71.2645 8.82361V8.82361L70.9134 9.75994ZM75.8864 14.848L74.9498 15.1984L74.9506 15.2005L75.8864 14.848ZM76.5895 20.6903V21.6903H77.5895V20.6903H76.5895ZM59.5227 20.6903H58.5227V21.6903H59.5227V20.6903ZM59.5227 17.0597V16.0597H58.5227V17.0597H59.5227ZM70.7727 17.0597V18.0597H71.7856L71.7726 17.0468L70.7727 17.0597ZM69.0341 14.0682L68.5425 14.939L68.5508 14.9437L68.5592 14.9482L69.0341 14.0682ZM65.3267 14.0938L65.8112 14.9686L65.8214 14.9628L65.3267 14.0938ZM64.0099 15.3594L64.8626 15.882L64.8662 15.8759L64.0099 15.3594ZM63.4986 17.1619L62.4989 17.1366L62.4986 17.1493V17.1619H63.4986ZM63.9716 22.9659L63.0848 23.4281L63.0875 23.4332L63.9716 22.9659ZM65.3139 24.3594L64.8164 25.2268L65.3139 24.3594ZM68.8935 24.6278L69.215 25.5747L68.8935 24.6278ZM70.0568 23.9503L70.7343 24.6858H70.7343L70.0568 23.9503ZM70.7855 22.8509L70.8145 21.8513L70.0985 21.8305L69.8484 22.5017L70.7855 22.8509ZM76.5256 23.017L77.5088 23.1994L77.7217 22.0513L76.5545 22.0175L76.5256 23.017ZM74.9531 26.3793L74.1905 25.7324L74.19 25.733L74.9531 26.3793ZM71.7955 28.5909L72.1658 29.5198L72.171 29.5177L71.7955 28.5909ZM67.2699 29.3707V28.3707C65.3477 28.3707 63.746 27.9925 62.4288 27.2774L61.9517 28.1562L61.4746 29.0351C63.1404 29.9394 65.0841 30.3707 67.2699 30.3707V29.3707ZM61.9517 28.1562L62.4348 27.2807C61.1234 26.5571 60.1196 25.5357 59.4087 24.1972L58.5256 24.6662L57.6424 25.1352C58.5338 26.8137 59.8141 28.119 61.4686 29.0318L61.9517 28.1562ZM58.5256 24.6662L59.4119 24.2031C58.7086 22.8571 58.3366 21.2204 58.3366 19.2585H57.3366H56.3366C56.3366 21.4728 56.7573 23.4412 57.6393 25.1293L58.5256 24.6662ZM57.3366 19.2585H58.3366C58.3366 17.3632 58.7102 15.7563 59.4226 14.4073L58.5384 13.9403L57.6541 13.4734C56.7642 15.1584 56.3366 17.097 56.3366 19.2585H57.3366ZM58.5384 13.9403L59.4237 14.4053C60.1392 13.0427 61.1371 11.9987 62.4272 11.2518L61.9261 10.3864L61.4251 9.52094C59.8004 10.4615 58.5397 11.7869 57.653 13.4754L58.5384 13.9403ZM61.9261 10.3864L62.4309 11.2496C63.7107 10.5012 65.2476 10.108 67.0781 10.108V9.10795V8.10795C64.9541 8.10795 63.0563 8.56699 61.4213 9.52313L61.9261 10.3864ZM67.0781 9.10795V10.108C68.3713 10.108 69.5289 10.3088 70.5622 10.6963L70.9134 9.75994L71.2645 8.82361C69.9796 8.34178 68.5804 8.10795 67.0781 8.10795V9.10795ZM70.9134 9.75994L70.5622 10.6963C71.5905 11.0819 72.4681 11.6476 73.207 12.3939L73.9176 11.6903L74.6283 10.9868C73.6796 10.0285 72.5543 9.30731 71.2645 8.82361L70.9134 9.75994ZM73.9176 11.6903L73.207 12.3939C73.9404 13.1347 74.5248 14.0626 74.9498 15.1984L75.8864 14.848L76.823 14.4976C76.3104 13.1277 75.5823 11.9505 74.6283 10.9868L73.9176 11.6903ZM75.8864 14.848L74.9506 15.2005C75.3689 16.3111 75.5895 17.6156 75.5895 19.1307H76.5895H77.5895C77.5895 17.4242 77.3413 15.8735 76.8222 14.4955L75.8864 14.848ZM76.5895 19.1307H75.5895V20.6903H76.5895H77.5895V19.1307H76.5895ZM76.5895 20.6903V19.6903H59.5227V20.6903V21.6903H76.5895V20.6903ZM59.5227 20.6903H60.5227V17.0597H59.5227H58.5227V20.6903H59.5227ZM59.5227 17.0597V18.0597H70.7727V17.0597V16.0597H59.5227V17.0597ZM70.7727 17.0597L71.7726 17.0468C71.7621 16.2258 71.5652 15.4594 71.1609 14.7744L70.2997 15.2827L69.4385 15.7909C69.6479 16.1457 69.7663 16.564 69.7728 17.0725L70.7727 17.0597ZM70.2997 15.2827L71.1609 14.7744C70.7605 14.096 70.2043 13.5634 69.509 13.1882L69.0341 14.0682L68.5592 14.9482C68.9377 15.1525 69.2253 15.4296 69.4385 15.7909L70.2997 15.2827ZM69.0341 14.0682L69.5257 13.1974C68.8276 12.8033 68.0445 12.6207 67.206 12.6207V13.6207V14.6207C67.7481 14.6207 68.1838 14.7365 68.5425 14.939L69.0341 14.0682ZM67.206 13.6207V12.6207C66.3508 12.6207 65.551 12.8154 64.832 13.2247L65.3267 14.0938L65.8214 14.9628C66.2104 14.7414 66.6634 14.6207 67.206 14.6207V13.6207ZM65.3267 14.0938L64.8422 13.219C64.1367 13.6097 63.5689 14.1545 63.1537 14.8429L64.0099 15.3594L64.8662 15.8759C65.0987 15.4904 65.4088 15.1914 65.8112 14.9685L65.3267 14.0938ZM64.0099 15.3594L63.1573 14.8368C62.7337 15.528 62.52 16.3032 62.4989 17.1366L63.4986 17.1619L64.4983 17.1872C64.5113 16.674 64.6385 16.2476 64.8625 15.8819L64.0099 15.3594ZM63.4986 17.1619H62.4986V20.8565H63.4986H64.4986V17.1619H63.4986ZM63.4986 20.8565H62.4986C62.4986 21.7906 62.6831 22.6573 63.0848 23.428L63.9716 22.9659L64.8584 22.5038C64.6294 22.0643 64.4986 21.5248 64.4986 20.8565H63.4986ZM63.9716 22.9659L63.0875 23.4332C63.4903 24.1953 64.071 24.7993 64.8164 25.2268L65.3139 24.3594L65.8114 23.4919C65.3977 23.2547 65.0836 22.9297 64.8557 22.4986L63.9716 22.9659ZM65.3139 24.3594L64.8164 25.2268C65.5749 25.6619 66.444 25.858 67.3849 25.858V24.858V23.858C66.7236 23.858 66.212 23.7217 65.8114 23.4919L65.3139 24.3594ZM67.3849 24.858V25.858C68.031 25.858 68.6446 25.7685 69.215 25.5747L68.8935 24.6278L68.5719 23.681C68.2389 23.794 67.8468 23.858 67.3849 23.858V24.858ZM68.8935 24.6278L69.215 25.5747C69.7877 25.3802 70.2995 25.0863 70.7343 24.6858L70.0568 23.9503L69.3793 23.2147C69.1664 23.4109 68.9027 23.5686 68.5719 23.681L68.8935 24.6278ZM70.0568 23.9503L70.7343 24.6858C71.1801 24.2752 71.5088 23.774 71.7226 23.2L70.7855 22.8509L69.8484 22.5017C69.7384 22.7971 69.5813 23.0288 69.3793 23.2147L70.0568 23.9503ZM70.7855 22.8509L70.7566 23.8504L76.4966 24.0166L76.5256 23.017L76.5545 22.0175L70.8145 21.8513L70.7855 22.8509ZM76.5256 23.017L75.5423 22.8347C75.334 23.9584 74.8821 24.917 74.1905 25.7324L74.9531 26.3793L75.7157 27.0261C76.6434 25.9324 77.2399 24.6496 77.5088 23.1994L76.5256 23.017ZM74.9531 26.3793L74.19 25.733C73.5068 26.5397 72.5943 27.1882 71.4199 27.6641L71.7955 28.5909L72.171 29.5177C73.6045 28.9368 74.7971 28.1108 75.7162 27.0255L74.9531 26.3793ZM71.7955 28.5909L71.4251 27.662C70.2618 28.1258 68.8833 28.3707 67.2699 28.3707V29.3707V30.3707C69.0826 30.3707 70.7212 30.0958 72.1658 29.5198L71.7955 28.5909ZM79.7823 29H78.7823V30H79.7823V29ZM79.7823 9.36364V8.36364H78.7823V9.36364H79.7823ZM85.8548 9.36364H86.8548V8.36364H85.8548V9.36364ZM85.8548 12.9432H84.8548V13.9432H85.8548V12.9432ZM86.0593 12.9432V13.9432H86.8205L87.0232 13.2095L86.0593 12.9432ZM87.8107 10.054L88.4253 10.8429L88.4304 10.8389L87.8107 10.054ZM91.5309 9.15909L91.3933 10.1496L91.4069 10.1515L91.4205 10.153L91.5309 9.15909ZM92.3874 9.32528H93.3874V8.57432L92.6662 8.36494L92.3874 9.32528ZM92.3874 14.7585L92.0631 15.7045L93.3874 16.1585V14.7585H92.3874ZM91.2113 14.5156L91.0873 15.5079L91.0894 15.5082L91.2113 14.5156ZM87.9258 14.9247L88.4082 15.8007L88.4125 15.7983L87.9258 14.9247ZM86.5323 16.2926L85.6672 15.7911L85.6649 15.7951L86.5323 16.2926ZM86.0337 29V30H87.0337V29H86.0337ZM79.7823 29H80.7823V9.36364H79.7823H78.7823V29H79.7823ZM79.7823 9.36364V10.3636H85.8548V9.36364V8.36364H79.7823V9.36364ZM85.8548 9.36364H84.8548V12.9432H85.8548H86.8548V9.36364H85.8548ZM85.8548 12.9432V13.9432H86.0593V12.9432V11.9432H85.8548V12.9432ZM86.0593 12.9432L87.0232 13.2095C87.3416 12.0572 87.831 11.3058 88.4252 10.8429L87.8107 10.054L87.1962 9.26507C86.1711 10.0636 85.4929 11.2382 85.0954 12.6768L86.0593 12.9432ZM87.8107 10.054L88.4304 10.8389C89.0559 10.345 89.7771 10.0952 90.636 10.0952V9.09517V8.09517C89.3472 8.09517 88.1849 8.48452 87.1911 9.26909L87.8107 10.054ZM90.636 9.09517V10.0952C90.8767 10.0952 91.129 10.1129 91.3933 10.1496L91.5309 9.15909L91.6685 8.1686C91.3192 8.12008 90.9748 8.09517 90.636 8.09517V9.09517ZM91.5309 9.15909L91.4205 10.153C91.6771 10.1815 91.9057 10.2267 92.1086 10.2856L92.3874 9.32528L92.6662 8.36494C92.3408 8.27045 91.9983 8.20487 91.6413 8.16521L91.5309 9.15909ZM92.3874 9.32528H91.3874V14.7585H92.3874H93.3874V9.32528H92.3874ZM92.3874 14.7585L92.7118 13.8126C92.3222 13.679 91.8546 13.5871 91.3332 13.5231L91.2113 14.5156L91.0894 15.5082C91.5396 15.5635 91.856 15.6335 92.0631 15.7045L92.3874 14.7585ZM91.2113 14.5156L91.3353 13.5233C90.8278 13.4599 90.359 13.4261 89.9329 13.4261V14.4261V15.4261C90.2568 15.4261 90.6403 15.452 91.0873 15.5079L91.2113 14.5156ZM89.9329 14.4261V13.4261C89.0361 13.4261 88.1971 13.6288 87.4391 14.0511L87.9258 14.9247L88.4125 15.7983C88.8477 15.5558 89.3468 15.4261 89.9329 15.4261V14.4261ZM87.9258 14.9247L87.4434 14.0488C86.694 14.4615 86.0981 15.0478 85.6672 15.7911L86.5323 16.2926L87.3975 16.7941C87.6484 16.3613 87.9814 16.0357 88.4082 15.8007L87.9258 14.9247ZM86.5323 16.2926L85.6649 15.7951C85.2316 16.5505 85.0337 17.4099 85.0337 18.3381H86.0337H87.0337C87.0337 17.698 87.1683 17.1938 87.3998 16.7901L86.5323 16.2926ZM86.0337 18.3381H85.0337V29H86.0337H87.0337V18.3381H86.0337ZM86.0337 29V28H79.7823V29V30H86.0337V29ZM94.9347 29H93.9347V30H94.9347V29ZM94.9347 9.36364V8.36364H93.9347V9.36364H94.9347ZM101.186 9.36364H102.186V8.36364H101.186V9.36364ZM101.186 29V30H102.186V29H101.186ZM95.804 6.20597L95.122 6.93737L95.1273 6.94229L95.804 6.20597ZM95.804 1.98722L96.4806 2.72356L96.4859 2.7186L95.804 1.98722ZM100.33 1.98722L99.6426 2.71402L99.6529 2.72354L100.33 1.98722ZM100.33 6.20597L101.011 6.93769L101.012 6.93735L100.33 6.20597ZM94.9347 29H95.9347V9.36364H94.9347H93.9347V29H94.9347ZM94.9347 9.36364V10.3636H101.186V9.36364V8.36364H94.9347V9.36364ZM101.186 9.36364H100.186V29H101.186H102.186V9.36364H101.186ZM101.186 29V28H94.9347V29V30H101.186V29ZM98.0668 7.07528V6.07528C97.4326 6.07528 96.9217 5.875 96.4806 5.46964L95.804 6.20597L95.1273 6.94229C95.9476 7.69602 96.9452 8.07528 98.0668 8.07528V7.07528ZM95.804 6.20597L96.4859 5.47458C96.0483 5.06647 95.858 4.61997 95.858 4.08381H94.858H93.858C93.858 5.20105 94.2983 6.16932 95.122 6.93735L95.804 6.20597ZM94.858 4.08381H95.858C95.858 3.55998 96.0451 3.12373 96.4806 2.72354L95.804 1.98722L95.1273 1.25089C94.3015 2.00979 93.858 2.97127 93.858 4.08381H94.858ZM95.804 1.98722L96.4859 2.7186C96.9278 2.30657 97.437 2.10511 98.0668 2.10511V1.10511V0.105112C96.9409 0.105112 95.9415 0.49172 95.122 1.25583L95.804 1.98722ZM98.0668 1.10511V2.10511C98.7077 2.10511 99.2133 2.30812 99.6426 2.71395L100.33 1.98722L101.016 1.26048C100.201 0.490171 99.1986 0.105112 98.0668 0.105112V1.10511ZM100.33 1.98722L99.6529 2.72354C100.088 3.12373 100.276 3.55998 100.276 4.08381H101.276H102.276C102.276 2.97127 101.832 2.00979 101.006 1.25089L100.33 1.98722ZM101.276 4.08381H100.276C100.276 4.61997 100.085 5.06647 99.6476 5.47458L100.33 6.20597L101.012 6.93735C101.835 6.16932 102.276 5.20105 102.276 4.08381H101.276ZM100.33 6.20597L99.6479 5.47424C99.2194 5.87347 98.712 6.07528 98.0668 6.07528V7.07528V8.07528C99.1942 8.07528 100.195 7.69755 101.011 6.93769L100.33 6.20597ZM116.326 9.36364H117.326V8.36364H116.326V9.36364ZM116.326 13.9659V14.9659H117.326V13.9659H116.326ZM103.695 13.9659H102.695V14.9659H103.695V13.9659ZM103.695 9.36364V8.36364H102.695V9.36364H103.695ZM106.328 29H105.328V30H106.328V29ZM107.185 4.59517L108.053 5.09211L108.055 5.08893L107.185 4.59517ZM109.563 2.34517L110.001 3.2441L110.007 3.2411L109.563 2.34517ZM115.533 1.79545L115.358 2.7801L115.37 2.78214L115.533 1.79545ZM117.259 2.14062L118.236 2.35351L118.438 1.42571L117.522 1.17586L117.259 2.14062ZM116.262 6.71733L115.945 7.66601L117.002 8.01811L117.239 6.93021L116.262 6.71733ZM115.418 6.52557L115.262 7.51334L115.266 7.51394L115.418 6.52557ZM112.989 6.93466L113.754 7.5788V7.57879L112.989 6.93466ZM112.58 29V30H113.58V29H112.58ZM116.326 9.36364H115.326V13.9659H116.326H117.326V9.36364H116.326ZM116.326 13.9659V12.9659H103.695V13.9659V14.9659H116.326V13.9659ZM103.695 13.9659H104.695V9.36364H103.695H102.695V13.9659H103.695ZM103.695 9.36364V10.3636H116.326V9.36364V8.36364H103.695V9.36364ZM106.328 29H107.328V8.36648H106.328H105.328V29H106.328ZM106.328 8.36648H107.328C107.328 6.96965 107.592 5.89707 108.053 5.09211L107.185 4.59517L106.317 4.09823C105.636 5.28759 105.328 6.72921 105.328 8.36648H106.328ZM107.185 4.59517L108.055 5.08893C108.529 4.25407 109.173 3.64765 110.001 3.24408L109.563 2.34517L109.125 1.44626C107.924 2.03132 106.983 2.92491 106.315 4.10141L107.185 4.59517ZM109.563 2.34517L110.007 3.2411C110.861 2.81769 111.876 2.59091 113.078 2.59091V1.59091V0.590907C111.622 0.590907 110.293 0.86697 109.119 1.44924L109.563 2.34517ZM113.078 1.59091V2.59091C113.896 2.59091 114.655 2.65502 115.358 2.78002L115.533 1.79545L115.708 0.810893C114.877 0.663156 114 0.590907 113.078 0.590907V1.59091ZM115.533 1.79545L115.37 2.78214C116.139 2.90882 116.672 3.01722 116.996 3.10539L117.259 2.14062L117.522 1.17586C117.095 1.05948 116.478 0.937768 115.696 0.808769L115.533 1.79545ZM117.259 2.14062L116.282 1.92774L115.285 6.50445L116.262 6.71733L117.239 6.93021L118.236 2.35351L117.259 2.14062ZM116.262 6.71733L116.578 5.76865C116.278 5.66877 115.939 5.59389 115.57 5.5372L115.418 6.52557L115.266 7.51394C115.562 7.55952 115.785 7.61248 115.945 7.66601L116.262 6.71733ZM115.418 6.52557L115.574 5.5378C115.205 5.47956 114.846 5.44886 114.498 5.44886V6.44886V7.44886C114.729 7.44886 114.983 7.4693 115.262 7.51333L115.418 6.52557ZM114.498 6.44886V5.44886C113.676 5.44886 112.788 5.62055 112.224 6.29052L112.989 6.93466L113.754 7.57879C113.743 7.59214 113.76 7.5598 113.877 7.52217C113.999 7.48279 114.198 7.44886 114.498 7.44886V6.44886ZM112.989 6.93466L112.224 6.29052C111.756 6.84658 111.58 7.54413 111.58 8.2642H112.58H113.58C113.58 7.85928 113.677 7.67047 113.754 7.5788L112.989 6.93466ZM112.58 8.2642H111.58V29H112.58H113.58V8.2642H112.58ZM112.58 29V28H106.328V29V30H112.58V29ZM119.333 29H118.333V30H119.333V29ZM119.333 9.36364V8.36364H118.333V9.36364H119.333ZM125.585 9.36364H126.585V8.36364H125.585V9.36364ZM125.585 29V30H126.585V29H125.585ZM120.202 6.20597L119.52 6.93737L119.526 6.94229L120.202 6.20597ZM120.202 1.98722L120.879 2.72356L120.884 2.7186L120.202 1.98722ZM124.728 1.98722L124.041 2.71402L124.051 2.72354L124.728 1.98722ZM124.728 6.20597L125.41 6.93769L125.41 6.93735L124.728 6.20597ZM119.333 29H120.333V9.36364H119.333H118.333V29H119.333ZM119.333 9.36364V10.3636H125.585V9.36364V8.36364H119.333V9.36364ZM125.585 9.36364H124.585V29H125.585H126.585V9.36364H125.585ZM125.585 29V28H119.333V29V30H125.585V29ZM122.465 7.07528V6.07528C121.831 6.07528 121.32 5.875 120.879 5.46964L120.202 6.20597L119.526 6.94229C120.346 7.69602 121.344 8.07528 122.465 8.07528V7.07528ZM120.202 6.20597L120.884 5.47458C120.447 5.06647 120.256 4.61997 120.256 4.08381H119.256H118.256C118.256 5.20105 118.697 6.16932 119.52 6.93735L120.202 6.20597ZM119.256 4.08381H120.256C120.256 3.55998 120.444 3.12373 120.879 2.72354L120.202 1.98722L119.526 1.25089C118.7 2.00979 118.256 2.97127 118.256 4.08381H119.256ZM120.202 1.98722L120.884 2.7186C121.326 2.30657 121.835 2.10511 122.465 2.10511V1.10511V0.105112C121.339 0.105112 120.34 0.49172 119.52 1.25583L120.202 1.98722ZM122.465 1.10511V2.10511C123.106 2.10511 123.612 2.30812 124.041 2.71395L124.728 1.98722L125.415 1.26048C124.6 0.490171 123.597 0.105112 122.465 0.105112V1.10511ZM124.728 1.98722L124.051 2.72354C124.487 3.12373 124.674 3.55998 124.674 4.08381H125.674H126.674C126.674 2.97127 126.23 2.00979 125.405 1.25089L124.728 1.98722ZM125.674 4.08381H124.674C124.674 4.61997 124.484 5.06647 124.046 5.47458L124.728 6.20597L125.41 6.93735C126.234 6.16932 126.674 5.20105 126.674 4.08381H125.674ZM124.728 6.20597L124.046 5.47424C123.618 5.87347 123.11 6.07528 122.465 6.07528V7.07528V8.07528C123.593 8.07528 124.594 7.69755 125.41 6.93769L124.728 6.20597Z" fill="black" mask="url(#path-1-outside-1_1_34)"/>
<path d="M1.98153 29H0.981534V30H1.98153V29ZM1.98153 9.36364V8.36364H0.981534V9.36364H1.98153ZM8.05398 9.36364H9.05398V8.36364H8.05398V9.36364ZM8.05398 12.9432H7.05398V13.9432H8.05398V12.9432ZM8.25852 12.9432V13.9432H9.01968L9.2224 13.2095L8.25852 12.9432ZM10.0099 10.054L10.6245 10.8429L10.6296 10.8389L10.0099 10.054ZM13.7301 9.15909L13.5925 10.1496L13.6061 10.1515L13.6197 10.153L13.7301 9.15909ZM14.5866 9.32528H15.5866V8.57432L14.8655 8.36494L14.5866 9.32528ZM14.5866 14.7585L14.2623 15.7045L15.5866 16.1585V14.7585H14.5866ZM13.4105 14.5156L13.2865 15.5079L13.2886 15.5082L13.4105 14.5156ZM10.125 14.9247L10.6074 15.8007L10.6117 15.7983L10.125 14.9247ZM8.73153 16.2926L7.86638 15.7911L7.86408 15.7951L8.73153 16.2926ZM8.23295 29V30H9.23295V29H8.23295ZM1.98153 29H2.98153V9.36364H1.98153H0.981534V29H1.98153ZM1.98153 9.36364V10.3636H8.05398V9.36364V8.36364H1.98153V9.36364ZM8.05398 9.36364H7.05398V12.9432H8.05398H9.05398V9.36364H8.05398ZM8.05398 12.9432V13.9432H8.25852V12.9432V11.9432H8.05398V12.9432ZM8.25852 12.9432L9.2224 13.2095C9.54079 12.0572 10.0302 11.3058 10.6245 10.8429L10.0099 10.054L9.39543 9.26507C8.37034 10.0636 7.69216 11.2382 7.29464 12.6768L8.25852 12.9432ZM10.0099 10.054L10.6296 10.8389C11.2551 10.345 11.9763 10.0952 12.8352 10.0952V9.09517V8.09517C11.5464 8.09517 10.3841 8.48452 9.3903 9.26909L10.0099 10.054ZM12.8352 9.09517V10.0952C13.076 10.0952 13.3282 10.1129 13.5925 10.1496L13.7301 9.15909L13.8677 8.1686C13.5184 8.12008 13.174 8.09517 12.8352 8.09517V9.09517ZM13.7301 9.15909L13.6197 10.153C13.8763 10.1815 14.1049 10.2267 14.3078 10.2856L14.5866 9.32528L14.8655 8.36494C14.54 8.27045 14.1976 8.20487 13.8405 8.16521L13.7301 9.15909ZM14.5866 9.32528H13.5866V14.7585H14.5866H15.5866V9.32528H14.5866ZM14.5866 14.7585L14.911 13.8126C14.5215 13.679 14.0538 13.5871 13.5324 13.5231L13.4105 14.5156L13.2886 15.5082C13.7388 15.5635 14.0552 15.6335 14.2623 15.7045L14.5866 14.7585ZM13.4105 14.5156L13.5345 13.5233C13.027 13.4599 12.5582 13.4261 12.1321 13.4261V14.4261V15.4261C12.456 15.4261 12.8395 15.452 13.2865 15.5079L13.4105 14.5156ZM12.1321 14.4261V13.4261C11.2353 13.4261 10.3963 13.6288 9.6383 14.0511L10.125 14.9247L10.6117 15.7983C11.0469 15.5558 11.546 15.4261 12.1321 15.4261V14.4261ZM10.125 14.9247L9.64259 14.0488C8.8932 14.4615 8.29728 15.0478 7.86639 15.7911L8.73153 16.2926L9.59667 16.7941C9.84761 16.3613 10.1807 16.0357 10.6074 15.8007L10.125 14.9247ZM8.73153 16.2926L7.86408 15.7951C7.43082 16.5505 7.23295 17.4099 7.23295 18.3381H8.23295H9.23295C9.23295 17.698 9.36747 17.1938 9.59899 16.7901L8.73153 16.2926ZM8.23295 18.3381H7.23295V29H8.23295H9.23295V18.3381H8.23295ZM8.23295 29V28H1.98153V29V30H8.23295V29ZM19.9751 28.1562L19.4921 29.0318L19.4981 29.0351L19.9751 28.1562ZM16.549 24.6662L15.6627 25.1293L15.6658 25.1352L16.549 24.6662ZM16.5618 13.9403L17.4461 14.4073L17.4471 14.4053L16.5618 13.9403ZM19.9496 10.3864L20.4506 11.2518L20.4544 11.2496L19.9496 10.3864ZM28.9368 9.75994L29.2879 8.82361L29.2879 8.82361L28.9368 9.75994ZM33.9098 14.848L32.9732 15.1984L32.974 15.2005L33.9098 14.848ZM34.6129 20.6903V21.6903H35.6129V20.6903H34.6129ZM17.5462 20.6903H16.5462V21.6903H17.5462V20.6903ZM17.5462 17.0597V16.0597H16.5462V17.0597H17.5462ZM28.7962 17.0597V18.0597H29.8091L29.7961 17.0468L28.7962 17.0597ZM27.0575 14.0682L26.5659 14.939L26.5742 14.9437L26.5826 14.9482L27.0575 14.0682ZM23.3501 14.0938L23.8347 14.9686L23.8448 14.9628L23.3501 14.0938ZM22.0334 15.3594L22.886 15.882L22.8897 15.8759L22.0334 15.3594ZM21.522 17.1619L20.5223 17.1366L20.522 17.1493V17.1619H21.522ZM21.995 22.9659L21.1082 23.4281L21.1109 23.4332L21.995 22.9659ZM23.3374 24.3594L22.8398 25.2268L23.3374 24.3594ZM26.9169 24.6278L27.2385 25.5747L26.9169 24.6278ZM28.0803 23.9503L28.7577 24.6858L28.0803 23.9503ZM28.8089 22.8509L28.8379 21.8513L28.1219 21.8305L27.8719 22.5017L28.8089 22.8509ZM34.549 23.017L35.5322 23.1994L35.7451 22.0513L34.5779 22.0175L34.549 23.017ZM32.9766 26.3793L32.214 25.7324L32.2134 25.733L32.9766 26.3793ZM29.8189 28.5909L30.1892 29.5198L30.1945 29.5177L29.8189 28.5909ZM25.2933 29.3707V28.3707C23.3712 28.3707 21.7694 27.9925 20.4522 27.2774L19.9751 28.1562L19.4981 29.0351C21.1638 29.9394 23.1075 30.3707 25.2933 30.3707V29.3707ZM19.9751 28.1562L20.4582 27.2807C19.1468 26.5571 18.1431 25.5357 17.4322 24.1972L16.549 24.6662L15.6658 25.1352C16.5572 26.8137 17.8376 28.119 19.4921 29.0318L19.9751 28.1562ZM16.549 24.6662L17.4353 24.2031C16.7321 22.8571 16.3601 21.2204 16.3601 19.2585H15.3601H14.3601C14.3601 21.4728 14.7807 23.4412 15.6627 25.1293L16.549 24.6662ZM15.3601 19.2585H16.3601C16.3601 17.3632 16.7337 15.7563 17.4461 14.4073L16.5618 13.9403L15.6775 13.4734C14.7877 15.1584 14.3601 17.097 14.3601 19.2585H15.3601ZM16.5618 13.9403L17.4471 14.4053C18.1627 13.0427 19.1605 11.9987 20.4506 11.2518L19.9496 10.3864L19.4485 9.52094C17.8239 10.4615 16.5632 11.7869 15.6764 13.4754L16.5618 13.9403ZM19.9496 10.3864L20.4544 11.2496C21.7342 10.5012 23.2711 10.108 25.1016 10.108V9.10795V8.10795C22.9775 8.10795 21.0798 8.56699 19.4448 9.52313L19.9496 10.3864ZM25.1016 9.10795V10.108C26.3947 10.108 27.5524 10.3088 28.5857 10.6963L28.9368 9.75994L29.2879 8.82361C28.003 8.34178 26.6039 8.10795 25.1016 8.10795V9.10795ZM28.9368 9.75994L28.5857 10.6963C29.614 11.0819 30.4916 11.6476 31.2304 12.3939L31.9411 11.6903L32.6517 10.9868C31.703 10.0285 30.5778 9.30731 29.2879 8.82361L28.9368 9.75994ZM31.9411 11.6903L31.2304 12.3939C31.9638 13.1347 32.5482 14.0626 32.9732 15.1984L33.9098 14.848L34.8464 14.4976C34.3339 13.1277 33.6058 11.9505 32.6517 10.9868L31.9411 11.6903ZM33.9098 14.848L32.974 15.2005C33.3924 16.3111 33.6129 17.6156 33.6129 19.1307H34.6129H35.6129C35.6129 17.4242 35.3647 15.8735 34.8456 14.4955L33.9098 14.848ZM34.6129 19.1307H33.6129V20.6903H34.6129H35.6129V19.1307H34.6129ZM34.6129 20.6903V19.6903H17.5462V20.6903V21.6903H34.6129V20.6903ZM17.5462 20.6903H18.5462V17.0597H17.5462H16.5462V20.6903H17.5462ZM17.5462 17.0597V18.0597H28.7962V17.0597V16.0597H17.5462V17.0597ZM28.7962 17.0597L29.7961 17.0468C29.7856 16.2258 29.5886 15.4594 29.1844 14.7744L28.3232 15.2827L27.4619 15.7909C27.6713 16.1457 27.7897 16.564 27.7962 17.0725L28.7962 17.0597ZM28.3232 15.2827L29.1844 14.7744C28.784 14.096 28.2278 13.5634 27.5325 13.1882L27.0575 14.0682L26.5826 14.9482C26.9611 15.1525 27.2487 15.4296 27.4619 15.7909L28.3232 15.2827ZM27.0575 14.0682L27.5491 13.1974C26.851 12.8033 26.0679 12.6207 25.2294 12.6207V13.6207V14.6207C25.7716 14.6207 26.2072 14.7365 26.5659 14.939L27.0575 14.0682ZM25.2294 13.6207V12.6207C24.3742 12.6207 23.5744 12.8154 22.8554 13.2247L23.3501 14.0938L23.8448 14.9628C24.2338 14.7414 24.6868 14.6207 25.2294 14.6207V13.6207ZM23.3501 14.0938L22.8656 13.219C22.1601 13.6097 21.5923 14.1545 21.1771 14.8429L22.0334 15.3594L22.8897 15.8759C23.1222 15.4904 23.4322 15.1914 23.8346 14.9685L23.3501 14.0938ZM22.0334 15.3594L21.1808 14.8368C20.7571 15.528 20.5434 16.3032 20.5223 17.1366L21.522 17.1619L22.5217 17.1872C22.5347 16.674 22.6619 16.2476 22.886 15.8819L22.0334 15.3594ZM21.522 17.1619H20.522V20.8565H21.522H22.522V17.1619H21.522ZM21.522 20.8565H20.522C20.522 21.7906 20.7066 22.6573 21.1082 23.428L21.995 22.9659L22.8818 22.5038C22.6528 22.0643 22.522 21.5248 22.522 20.8565H21.522ZM21.995 22.9659L21.1109 23.4332C21.5137 24.1953 22.0944 24.7993 22.8398 25.2268L23.3374 24.3594L23.8349 23.4919C23.4212 23.2547 23.107 22.9297 22.8791 22.4986L21.995 22.9659ZM23.3374 24.3594L22.8398 25.2268C23.5984 25.6619 24.4675 25.858 25.4084 25.858V24.858V23.858C24.747 23.858 24.2354 23.7217 23.8349 23.4919L23.3374 24.3594ZM25.4084 24.858V25.858C26.0545 25.858 26.668 25.7685 27.2385 25.5747L26.9169 24.6278L26.5953 23.681C26.2624 23.794 25.8703 23.858 25.4084 23.858V24.858ZM26.9169 24.6278L27.2385 25.5747C27.8111 25.3802 28.323 25.0863 28.7577 24.6858L28.0803 23.9503L27.4028 23.2147C27.1898 23.4109 26.9261 23.5686 26.5953 23.681L26.9169 24.6278ZM28.0803 23.9503L28.7577 24.6858C29.2035 24.2752 29.5322 23.774 29.746 23.2L28.8089 22.8509L27.8719 22.5017C27.7618 22.7971 27.6047 23.0288 27.4028 23.2147L28.0803 23.9503ZM28.8089 22.8509L28.78 23.8504L34.5201 24.0166L34.549 23.017L34.5779 22.0175L28.8379 21.8513L28.8089 22.8509ZM34.549 23.017L33.5658 22.8347C33.3574 23.9584 32.9056 24.917 32.214 25.7324L32.9766 26.3793L33.7392 27.0261C34.6669 25.9324 35.2633 24.6496 35.5322 23.1994L34.549 23.017ZM32.9766 26.3793L32.2134 25.733C31.5303 26.5397 30.6178 27.1882 29.4433 27.6641L29.8189 28.5909L30.1945 29.5177C31.628 28.9368 32.8206 28.1108 33.7397 27.0255L32.9766 26.3793ZM29.8189 28.5909L29.4485 27.662C28.2852 28.1258 26.9067 28.3707 25.2933 28.3707V29.3707V30.3707C27.1061 30.3707 28.7446 30.0958 30.1892 29.5198L29.8189 28.5909ZM56.3267 9.36364L57.2726 9.68816L57.727 8.36364H56.3267V9.36364ZM49.5895 29V30H50.3036L50.5354 29.3245L49.5895 29ZM42.4304 29L41.4843 29.324L41.7158 30H42.4304V29ZM35.706 9.36364V8.36364H34.3065L34.7599 9.68761L35.706 9.36364ZM42.2898 9.36364L43.2558 9.10523L43.0574 8.36364H42.2898V9.36364ZM45.9077 22.8892L44.9416 23.1476L45.14 23.8892H45.9077V22.8892ZM46.1122 22.8892V23.8892H46.8792L47.078 23.1485L46.1122 22.8892ZM49.7429 9.36364V8.36364H48.9759L48.7771 9.10438L49.7429 9.36364ZM56.3267 9.36364L55.3808 9.03911L48.6436 28.6755L49.5895 29L50.5354 29.3245L57.2726 9.68816L56.3267 9.36364ZM49.5895 29V28H42.4304V29V30H49.5895V29ZM42.4304 29L43.3765 28.676L36.652 9.03966L35.706 9.36364L34.7599 9.68761L41.4843 29.324L42.4304 29ZM35.706 9.36364V10.3636H42.2898V9.36364V8.36364H35.706V9.36364ZM42.2898 9.36364L41.3237 9.62204L44.9416 23.1476L45.9077 22.8892L46.8737 22.6308L43.2558 9.10523L42.2898 9.36364ZM45.9077 22.8892V23.8892H46.1122V22.8892V21.8892H45.9077V22.8892ZM46.1122 22.8892L47.078 23.1485L50.7087 9.62289L49.7429 9.36364L48.7771 9.10438L45.1464 22.63L46.1122 22.8892ZM49.7429 9.36364V10.3636H56.3267V9.36364V8.36364H49.7429V9.36364ZM61.9517 28.1562L61.4686 29.0318L61.4746 29.0351L61.9517 28.1562ZM58.5256 24.6662L57.6392 25.1293L57.6424 25.1352L58.5256 24.6662ZM58.5384 13.9403L59.4226 14.4073L59.4237 14.4053L58.5384 13.9403ZM61.9261 10.3864L62.4272 11.2518L62.4309 11.2496L61.9261 10.3864ZM70.9134 9.75994L71.2645 8.82361V8.82361L70.9134 9.75994ZM75.8864 14.848L74.9498 15.1984L74.9506 15.2005L75.8864 14.848ZM76.5895 20.6903V21.6903H77.5895V20.6903H76.5895ZM59.5227 20.6903H58.5227V21.6903H59.5227V20.6903ZM59.5227 17.0597V16.0597H58.5227V17.0597H59.5227ZM70.7727 17.0597V18.0597H71.7856L71.7726 17.0468L70.7727 17.0597ZM69.0341 14.0682L68.5425 14.939L68.5508 14.9437L68.5592 14.9482L69.0341 14.0682ZM65.3267 14.0938L65.8112 14.9686L65.8214 14.9628L65.3267 14.0938ZM64.0099 15.3594L64.8626 15.882L64.8662 15.8759L64.0099 15.3594ZM63.4986 17.1619L62.4989 17.1366L62.4986 17.1493V17.1619H63.4986ZM63.9716 22.9659L63.0848 23.4281L63.0875 23.4332L63.9716 22.9659ZM65.3139 24.3594L64.8164 25.2268L65.3139 24.3594ZM68.8935 24.6278L69.215 25.5747L68.8935 24.6278ZM70.0568 23.9503L70.7343 24.6858H70.7343L70.0568 23.9503ZM70.7855 22.8509L70.8145 21.8513L70.0985 21.8305L69.8484 22.5017L70.7855 22.8509ZM76.5256 23.017L77.5088 23.1994L77.7217 22.0513L76.5545 22.0175L76.5256 23.017ZM74.9531 26.3793L74.1905 25.7324L74.19 25.733L74.9531 26.3793ZM71.7955 28.5909L72.1658 29.5198L72.171 29.5177L71.7955 28.5909ZM67.2699 29.3707V28.3707C65.3477 28.3707 63.746 27.9925 62.4288 27.2774L61.9517 28.1562L61.4746 29.0351C63.1404 29.9394 65.0841 30.3707 67.2699 30.3707V29.3707ZM61.9517 28.1562L62.4348 27.2807C61.1234 26.5571 60.1196 25.5357 59.4087 24.1972L58.5256 24.6662L57.6424 25.1352C58.5338 26.8137 59.8141 28.119 61.4686 29.0318L61.9517 28.1562ZM58.5256 24.6662L59.4119 24.2031C58.7086 22.8571 58.3366 21.2204 58.3366 19.2585H57.3366H56.3366C56.3366 21.4728 56.7573 23.4412 57.6393 25.1293L58.5256 24.6662ZM57.3366 19.2585H58.3366C58.3366 17.3632 58.7102 15.7563 59.4226 14.4073L58.5384 13.9403L57.6541 13.4734C56.7642 15.1584 56.3366 17.097 56.3366 19.2585H57.3366ZM58.5384 13.9403L59.4237 14.4053C60.1392 13.0427 61.1371 11.9987 62.4272 11.2518L61.9261 10.3864L61.4251 9.52094C59.8004 10.4615 58.5397 11.7869 57.653 13.4754L58.5384 13.9403ZM61.9261 10.3864L62.4309 11.2496C63.7107 10.5012 65.2476 10.108 67.0781 10.108V9.10795V8.10795C64.9541 8.10795 63.0563 8.56699 61.4213 9.52313L61.9261 10.3864ZM67.0781 9.10795V10.108C68.3713 10.108 69.5289 10.3088 70.5622 10.6963L70.9134 9.75994L71.2645 8.82361C69.9796 8.34178 68.5804 8.10795 67.0781 8.10795V9.10795ZM70.9134 9.75994L70.5622 10.6963C71.5905 11.0819 72.4681 11.6476 73.207 12.3939L73.9176 11.6903L74.6283 10.9868C73.6796 10.0285 72.5543 9.30731 71.2645 8.82361L70.9134 9.75994ZM73.9176 11.6903L73.207 12.3939C73.9404 13.1347 74.5248 14.0626 74.9498 15.1984L75.8864 14.848L76.823 14.4976C76.3104 13.1277 75.5823 11.9505 74.6283 10.9868L73.9176 11.6903ZM75.8864 14.848L74.9506 15.2005C75.3689 16.3111 75.5895 17.6156 75.5895 19.1307H76.5895H77.5895C77.5895 17.4242 77.3413 15.8735 76.8222 14.4955L75.8864 14.848ZM76.5895 19.1307H75.5895V20.6903H76.5895H77.5895V19.1307H76.5895ZM76.5895 20.6903V19.6903H59.5227V20.6903V21.6903H76.5895V20.6903ZM59.5227 20.6903H60.5227V17.0597H59.5227H58.5227V20.6903H59.5227ZM59.5227 17.0597V18.0597H70.7727V17.0597V16.0597H59.5227V17.0597ZM70.7727 17.0597L71.7726 17.0468C71.7621 16.2258 71.5652 15.4594 71.1609 14.7744L70.2997 15.2827L69.4385 15.7909C69.6479 16.1457 69.7663 16.564 69.7728 17.0725L70.7727 17.0597ZM70.2997 15.2827L71.1609 14.7744C70.7605 14.096 70.2043 13.5634 69.509 13.1882L69.0341 14.0682L68.5592 14.9482C68.9377 15.1525 69.2253 15.4296 69.4385 15.7909L70.2997 15.2827ZM69.0341 14.0682L69.5257 13.1974C68.8276 12.8033 68.0445 12.6207 67.206 12.6207V13.6207V14.6207C67.7481 14.6207 68.1838 14.7365 68.5425 14.939L69.0341 14.0682ZM67.206 13.6207V12.6207C66.3508 12.6207 65.551 12.8154 64.832 13.2247L65.3267 14.0938L65.8214 14.9628C66.2104 14.7414 66.6634 14.6207 67.206 14.6207V13.6207ZM65.3267 14.0938L64.8422 13.219C64.1367 13.6097 63.5689 14.1545 63.1537 14.8429L64.0099 15.3594L64.8662 15.8759C65.0987 15.4904 65.4088 15.1914 65.8112 14.9685L65.3267 14.0938ZM64.0099 15.3594L63.1573 14.8368C62.7337 15.528 62.52 16.3032 62.4989 17.1366L63.4986 17.1619L64.4983 17.1872C64.5113 16.674 64.6385 16.2476 64.8625 15.8819L64.0099 15.3594ZM63.4986 17.1619H62.4986V20.8565H63.4986H64.4986V17.1619H63.4986ZM63.4986 20.8565H62.4986C62.4986 21.7906 62.6831 22.6573 63.0848 23.428L63.9716 22.9659L64.8584 22.5038C64.6294 22.0643 64.4986 21.5248 64.4986 20.8565H63.4986ZM63.9716 22.9659L63.0875 23.4332C63.4903 24.1953 64.071 24.7993 64.8164 25.2268L65.3139 24.3594L65.8114 23.4919C65.3977 23.2547 65.0836 22.9297 64.8557 22.4986L63.9716 22.9659ZM65.3139 24.3594L64.8164 25.2268C65.5749 25.6619 66.444 25.858 67.3849 25.858V24.858V23.858C66.7236 23.858 66.212 23.7217 65.8114 23.4919L65.3139 24.3594ZM67.3849 24.858V25.858C68.031 25.858 68.6446 25.7685 69.215 25.5747L68.8935 24.6278L68.5719 23.681C68.2389 23.794 67.8468 23.858 67.3849 23.858V24.858ZM68.8935 24.6278L69.215 25.5747C69.7877 25.3802 70.2995 25.0863 70.7343 24.6858L70.0568 23.9503L69.3793 23.2147C69.1664 23.4109 68.9027 23.5686 68.5719 23.681L68.8935 24.6278ZM70.0568 23.9503L70.7343 24.6858C71.1801 24.2752 71.5088 23.774 71.7226 23.2L70.7855 22.8509L69.8484 22.5017C69.7384 22.7971 69.5813 23.0288 69.3793 23.2147L70.0568 23.9503ZM70.7855 22.8509L70.7566 23.8504L76.4966 24.0166L76.5256 23.017L76.5545 22.0175L70.8145 21.8513L70.7855 22.8509ZM76.5256 23.017L75.5423 22.8347C75.334 23.9584 74.8821 24.917 74.1905 25.7324L74.9531 26.3793L75.7157 27.0261C76.6434 25.9324 77.2399 24.6496 77.5088 23.1994L76.5256 23.017ZM74.9531 26.3793L74.19 25.733C73.5068 26.5397 72.5943 27.1882 71.4199 27.6641L71.7955 28.5909L72.171 29.5177C73.6045 28.9368 74.7971 28.1108 75.7162 27.0255L74.9531 26.3793ZM71.7955 28.5909L71.4251 27.662C70.2618 28.1258 68.8833 28.3707 67.2699 28.3707V29.3707V30.3707C69.0826 30.3707 70.7212 30.0958 72.1658 29.5198L71.7955 28.5909ZM79.7823 29H78.7823V30H79.7823V29ZM79.7823 9.36364V8.36364H78.7823V9.36364H79.7823ZM85.8548 9.36364H86.8548V8.36364H85.8548V9.36364ZM85.8548 12.9432H84.8548V13.9432H85.8548V12.9432ZM86.0593 12.9432V13.9432H86.8205L87.0232 13.2095L86.0593 12.9432ZM87.8107 10.054L88.4253 10.8429L88.4304 10.8389L87.8107 10.054ZM91.5309 9.15909L91.3933 10.1496L91.4069 10.1515L91.4205 10.153L91.5309 9.15909ZM92.3874 9.32528H93.3874V8.57432L92.6662 8.36494L92.3874 9.32528ZM92.3874 14.7585L92.0631 15.7045L93.3874 16.1585V14.7585H92.3874ZM91.2113 14.5156L91.0873 15.5079L91.0894 15.5082L91.2113 14.5156ZM87.9258 14.9247L88.4082 15.8007L88.4125 15.7983L87.9258 14.9247ZM86.5323 16.2926L85.6672 15.7911L85.6649 15.7951L86.5323 16.2926ZM86.0337 29V30H87.0337V29H86.0337ZM79.7823 29H80.7823V9.36364H79.7823H78.7823V29H79.7823ZM79.7823 9.36364V10.3636H85.8548V9.36364V8.36364H79.7823V9.36364ZM85.8548 9.36364H84.8548V12.9432H85.8548H86.8548V9.36364H85.8548ZM85.8548 12.9432V13.9432H86.0593V12.9432V11.9432H85.8548V12.9432ZM86.0593 12.9432L87.0232 13.2095C87.3416 12.0572 87.831 11.3058 88.4252 10.8429L87.8107 10.054L87.1962 9.26507C86.1711 10.0636 85.4929 11.2382 85.0954 12.6768L86.0593 12.9432ZM87.8107 10.054L88.4304 10.8389C89.0559 10.345 89.7771 10.0952 90.636 10.0952V9.09517V8.09517C89.3472 8.09517 88.1849 8.48452 87.1911 9.26909L87.8107 10.054ZM90.636 9.09517V10.0952C90.8767 10.0952 91.129 10.1129 91.3933 10.1496L91.5309 9.15909L91.6685 8.1686C91.3192 8.12008 90.9748 8.09517 90.636 8.09517V9.09517ZM91.5309 9.15909L91.4205 10.153C91.6771 10.1815 91.9057 10.2267 92.1086 10.2856L92.3874 9.32528L92.6662 8.36494C92.3408 8.27045 91.9983 8.20487 91.6413 8.16521L91.5309 9.15909ZM92.3874 9.32528H91.3874V14.7585H92.3874H93.3874V9.32528H92.3874ZM92.3874 14.7585L92.7118 13.8126C92.3222 13.679 91.8546 13.5871 91.3332 13.5231L91.2113 14.5156L91.0894 15.5082C91.5396 15.5635 91.856 15.6335 92.0631 15.7045L92.3874 14.7585ZM91.2113 14.5156L91.3353 13.5233C90.8278 13.4599 90.359 13.4261 89.9329 13.4261V14.4261V15.4261C90.2568 15.4261 90.6403 15.452 91.0873 15.5079L91.2113 14.5156ZM89.9329 14.4261V13.4261C89.0361 13.4261 88.1971 13.6288 87.4391 14.0511L87.9258 14.9247L88.4125 15.7983C88.8477 15.5558 89.3468 15.4261 89.9329 15.4261V14.4261ZM87.9258 14.9247L87.4434 14.0488C86.694 14.4615 86.0981 15.0478 85.6672 15.7911L86.5323 16.2926L87.3975 16.7941C87.6484 16.3613 87.9814 16.0357 88.4082 15.8007L87.9258 14.9247ZM86.5323 16.2926L85.6649 15.7951C85.2316 16.5505 85.0337 17.4099 85.0337 18.3381H86.0337H87.0337C87.0337 17.698 87.1683 17.1938 87.3998 16.7901L86.5323 16.2926ZM86.0337 18.3381H85.0337V29H86.0337H87.0337V18.3381H86.0337ZM86.0337 29V28H79.7823V29V30H86.0337V29ZM94.9347 29H93.9347V30H94.9347V29ZM94.9347 9.36364V8.36364H93.9347V9.36364H94.9347ZM101.186 9.36364H102.186V8.36364H101.186V9.36364ZM101.186 29V30H102.186V29H101.186ZM95.804 6.20597L95.122 6.93737L95.1273 6.94229L95.804 6.20597ZM95.804 1.98722L96.4806 2.72356L96.4859 2.7186L95.804 1.98722ZM100.33 1.98722L99.6426 2.71402L99.6529 2.72354L100.33 1.98722ZM100.33 6.20597L101.011 6.93769L101.012 6.93735L100.33 6.20597ZM94.9347 29H95.9347V9.36364H94.9347H93.9347V29H94.9347ZM94.9347 9.36364V10.3636H101.186V9.36364V8.36364H94.9347V9.36364ZM101.186 9.36364H100.186V29H101.186H102.186V9.36364H101.186ZM101.186 29V28H94.9347V29V30H101.186V29ZM98.0668 7.07528V6.07528C97.4326 6.07528 96.9217 5.875 96.4806 5.46964L95.804 6.20597L95.1273 6.94229C95.9476 7.69602 96.9452 8.07528 98.0668 8.07528V7.07528ZM95.804 6.20597L96.4859 5.47458C96.0483 5.06647 95.858 4.61997 95.858 4.08381H94.858H93.858C93.858 5.20105 94.2983 6.16932 95.122 6.93735L95.804 6.20597ZM94.858 4.08381H95.858C95.858 3.55998 96.0451 3.12373 96.4806 2.72354L95.804 1.98722L95.1273 1.25089C94.3015 2.00979 93.858 2.97127 93.858 4.08381H94.858ZM95.804 1.98722L96.4859 2.7186C96.9278 2.30657 97.437 2.10511 98.0668 2.10511V1.10511V0.105112C96.9409 0.105112 95.9415 0.49172 95.122 1.25583L95.804 1.98722ZM98.0668 1.10511V2.10511C98.7077 2.10511 99.2133 2.30812 99.6426 2.71395L100.33 1.98722L101.016 1.26048C100.201 0.490171 99.1986 0.105112 98.0668 0.105112V1.10511ZM100.33 1.98722L99.6529 2.72354C100.088 3.12373 100.276 3.55998 100.276 4.08381H101.276H102.276C102.276 2.97127 101.832 2.00979 101.006 1.25089L100.33 1.98722ZM101.276 4.08381H100.276C100.276 4.61997 100.085 5.06647 99.6476 5.47458L100.33 6.20597L101.012 6.93735C101.835 6.16932 102.276 5.20105 102.276 4.08381H101.276ZM100.33 6.20597L99.6479 5.47424C99.2194 5.87347 98.712 6.07528 98.0668 6.07528V7.07528V8.07528C99.1942 8.07528 100.195 7.69755 101.011 6.93769L100.33 6.20597ZM116.326 9.36364H117.326V8.36364H116.326V9.36364ZM116.326 13.9659V14.9659H117.326V13.9659H116.326ZM103.695 13.9659H102.695V14.9659H103.695V13.9659ZM103.695 9.36364V8.36364H102.695V9.36364H103.695ZM106.328 29H105.328V30H106.328V29ZM107.185 4.59517L108.053 5.09211L108.055 5.08893L107.185 4.59517ZM109.563 2.34517L110.001 3.2441L110.007 3.2411L109.563 2.34517ZM115.533 1.79545L115.358 2.7801L115.37 2.78214L115.533 1.79545ZM117.259 2.14062L118.236 2.35351L118.438 1.42571L117.522 1.17586L117.259 2.14062ZM116.262 6.71733L115.945 7.66601L117.002 8.01811L117.239 6.93021L116.262 6.71733ZM115.418 6.52557L115.262 7.51334L115.266 7.51394L115.418 6.52557ZM112.989 6.93466L113.754 7.5788V7.57879L112.989 6.93466ZM112.58 29V30H113.58V29H112.58ZM116.326 9.36364H115.326V13.9659H116.326H117.326V9.36364H116.326ZM116.326 13.9659V12.9659H103.695V13.9659V14.9659H116.326V13.9659ZM103.695 13.9659H104.695V9.36364H103.695H102.695V13.9659H103.695ZM103.695 9.36364V10.3636H116.326V9.36364V8.36364H103.695V9.36364ZM106.328 29H107.328V8.36648H106.328H105.328V29H106.328ZM106.328 8.36648H107.328C107.328 6.96965 107.592 5.89707 108.053 5.09211L107.185 4.59517L106.317 4.09823C105.636 5.28759 105.328 6.72921 105.328 8.36648H106.328ZM107.185 4.59517L108.055 5.08893C108.529 4.25407 109.173 3.64765 110.001 3.24408L109.563 2.34517L109.125 1.44626C107.924 2.03132 106.983 2.92491 106.315 4.10141L107.185 4.59517ZM109.563 2.34517L110.007 3.2411C110.861 2.81769 111.876 2.59091 113.078 2.59091V1.59091V0.590907C111.622 0.590907 110.293 0.86697 109.119 1.44924L109.563 2.34517ZM113.078 1.59091V2.59091C113.896 2.59091 114.655 2.65502 115.358 2.78002L115.533 1.79545L115.708 0.810893C114.877 0.663156 114 0.590907 113.078 0.590907V1.59091ZM115.533 1.79545L115.37 2.78214C116.139 2.90882 116.672 3.01722 116.996 3.10539L117.259 2.14062L117.522 1.17586C117.095 1.05948 116.478 0.937768 115.696 0.808769L115.533 1.79545ZM117.259 2.14062L116.282 1.92774L115.285 6.50445L116.262 6.71733L117.239 6.93021L118.236 2.35351L117.259 2.14062ZM116.262 6.71733L116.578 5.76865C116.278 5.66877 115.939 5.59389 115.57 5.5372L115.418 6.52557L115.266 7.51394C115.562 7.55952 115.785 7.61248 115.945 7.66601L116.262 6.71733ZM115.418 6.52557L115.574 5.5378C115.205 5.47956 114.846 5.44886 114.498 5.44886V6.44886V7.44886C114.729 7.44886 114.983 7.4693 115.262 7.51333L115.418 6.52557ZM114.498 6.44886V5.44886C113.676 5.44886 112.788 5.62055 112.224 6.29052L112.989 6.93466L113.754 7.57879C113.743 7.59214 113.76 7.5598 113.877 7.52217C113.999 7.48279 114.198 7.44886 114.498 7.44886V6.44886ZM112.989 6.93466L112.224 6.29052C111.756 6.84658 111.58 7.54413 111.58 8.2642H112.58H113.58C113.58 7.85928 113.677 7.67047 113.754 7.5788L112.989 6.93466ZM112.58 8.2642H111.58V29H112.58H113.58V8.2642H112.58ZM112.58 29V28H106.328V29V30H112.58V29ZM119.333 29H118.333V30H119.333V29ZM119.333 9.36364V8.36364H118.333V9.36364H119.333ZM125.585 9.36364H126.585V8.36364H125.585V9.36364ZM125.585 29V30H126.585V29H125.585ZM120.202 6.20597L119.52 6.93737L119.526 6.94229L120.202 6.20597ZM120.202 1.98722L120.879 2.72356L120.884 2.7186L120.202 1.98722ZM124.728 1.98722L124.041 2.71402L124.051 2.72354L124.728 1.98722ZM124.728 6.20597L125.41 6.93769L125.41 6.93735L124.728 6.20597ZM119.333 29H120.333V9.36364H119.333H118.333V29H119.333ZM119.333 9.36364V10.3636H125.585V9.36364V8.36364H119.333V9.36364ZM125.585 9.36364H124.585V29H125.585H126.585V9.36364H125.585ZM125.585 29V28H119.333V29V30H125.585V29ZM122.465 7.07528V6.07528C121.831 6.07528 121.32 5.875 120.879 5.46964L120.202 6.20597L119.526 6.94229C120.346 7.69602 121.344 8.07528 122.465 8.07528V7.07528ZM120.202 6.20597L120.884 5.47458C120.447 5.06647 120.256 4.61997 120.256 4.08381H119.256H118.256C118.256 5.20105 118.697 6.16932 119.52 6.93735L120.202 6.20597ZM119.256 4.08381H120.256C120.256 3.55998 120.444 3.12373 120.879 2.72354L120.202 1.98722L119.526 1.25089C118.7 2.00979 118.256 2.97127 118.256 4.08381H119.256ZM120.202 1.98722L120.884 2.7186C121.326 2.30657 121.835 2.10511 122.465 2.10511V1.10511V0.105112C121.339 0.105112 120.34 0.49172 119.52 1.25583L120.202 1.98722ZM122.465 1.10511V2.10511C123.106 2.10511 123.612 2.30812 124.041 2.71395L124.728 1.98722L125.415 1.26048C124.6 0.490171 123.597 0.105112 122.465 0.105112V1.10511ZM124.728 1.98722L124.051 2.72354C124.487 3.12373 124.674 3.55998 124.674 4.08381H125.674H126.674C126.674 2.97127 126.23 2.00979 125.405 1.25089L124.728 1.98722ZM125.674 4.08381H124.674C124.674 4.61997 124.484 5.06647 124.046 5.47458L124.728 6.20597L125.41 6.93735C126.234 6.16932 126.674 5.20105 126.674 4.08381H125.674ZM124.728 6.20597L124.046 5.47424C123.618 5.87347 123.11 6.07528 122.465 6.07528V7.07528V8.07528C123.593 8.07528 124.594 7.69755 125.41 6.93769L124.728 6.20597Z" fill="black" fill-opacity="0.2" mask="url(#path-1-outside-1_1_34)"/>
</svg>
