<svg width="59" height="22" viewBox="0 0 59 22" fill="none" xmlns="http://www.w3.org/2000/svg">
<g id="Group 111334">
<rect id="Rectangle 573" x="0.40918" y="0.505493" width="58.011" height="20.8477" rx="5" fill="#B7CF53"/>
<path id="Sale" d="M24.3671 9.58577C24.316 9.15395 24.1086 8.81873 23.745 8.58009C23.3813 8.34145 22.9353 8.22213 22.4069 8.22213C22.0206 8.22213 21.6825 8.28463 21.3927 8.40963C21.1058 8.53463 20.8813 8.70651 20.7194 8.92526C20.5603 9.14401 20.4808 9.39259 20.4808 9.671C20.4808 9.90395 20.5362 10.1042 20.647 10.2719C20.7606 10.4366 20.9055 10.5744 21.0816 10.6852C21.2578 10.7932 21.4424 10.8826 21.6356 10.9537C21.8288 11.0219 22.0063 11.0772 22.1683 11.1199L23.0546 11.3585C23.2819 11.4182 23.5348 11.5005 23.8132 11.6057C24.0944 11.7108 24.3629 11.8542 24.6186 12.0361C24.8771 12.215 25.0902 12.4451 25.2578 12.7264C25.4254 13.0076 25.5092 13.3528 25.5092 13.7619C25.5092 14.2335 25.3856 14.6596 25.1385 15.0403C24.8941 15.421 24.5362 15.7236 24.0646 15.948C23.5958 16.1724 23.0262 16.2846 22.3558 16.2846C21.7308 16.2846 21.1896 16.1838 20.7322 15.9821C20.2777 15.7804 19.9197 15.4991 19.6583 15.1383C19.3998 14.7775 19.2535 14.3585 19.2194 13.8812H20.3103C20.3387 14.2108 20.4495 14.4835 20.6427 14.6994C20.8387 14.9125 21.0859 15.0716 21.3842 15.1767C21.6853 15.279 22.0092 15.3301 22.3558 15.3301C22.7592 15.3301 23.1214 15.2647 23.4424 15.1341C23.7635 15.0005 24.0177 14.8159 24.2052 14.5801C24.3927 14.3415 24.4865 14.063 24.4865 13.7449C24.4865 13.4551 24.4055 13.2193 24.2436 13.0375C24.0816 12.8557 23.8686 12.7079 23.6044 12.5943C23.3402 12.4807 23.0546 12.3812 22.7478 12.296L21.674 11.9892C20.9921 11.7932 20.4524 11.5133 20.0546 11.1497C19.6569 10.7861 19.4581 10.3102 19.4581 9.72213C19.4581 9.2335 19.5902 8.80736 19.8544 8.44373C20.1214 8.07725 20.4794 7.79316 20.9282 7.59145C21.3799 7.38691 21.8842 7.28463 22.441 7.28463C23.0035 7.28463 23.5035 7.38549 23.941 7.58719C24.3785 7.78605 24.7251 8.05878 24.9808 8.40537C25.2393 8.75196 25.3757 9.14543 25.3899 9.58577H24.3671ZM29.0365 16.2846C28.6218 16.2846 28.2453 16.2065 27.9073 16.0503C27.5692 15.8912 27.3007 15.6625 27.1019 15.3642C26.903 15.063 26.8036 14.6994 26.8036 14.2733C26.8036 13.8983 26.8774 13.5943 27.0252 13.3613C27.1729 13.1255 27.3703 12.9409 27.6175 12.8074C27.8647 12.6738 28.1374 12.5744 28.4357 12.5091C28.7368 12.4409 29.0394 12.3869 29.3434 12.3471C29.7411 12.296 30.0635 12.2576 30.3107 12.2321C30.5607 12.2037 30.7425 12.1568 30.8561 12.0915C30.9726 12.0261 31.0309 11.9125 31.0309 11.7505V11.7165C31.0309 11.296 30.9158 10.9693 30.6857 10.7363C30.4584 10.5034 30.1132 10.3869 29.6502 10.3869C29.1701 10.3869 28.7936 10.492 28.5209 10.7022C28.2482 10.9125 28.0564 11.1369 27.9456 11.3755L26.9911 11.0346C27.1615 10.6369 27.3888 10.3272 27.6729 10.1057C27.9598 9.88123 28.2723 9.72498 28.6104 9.63691C28.9513 9.546 29.2865 9.50054 29.6161 9.50054C29.8263 9.50054 30.0678 9.52611 30.3405 9.57725C30.6161 9.62554 30.8817 9.7264 31.1374 9.8798C31.3959 10.0332 31.6104 10.2647 31.7809 10.5744C31.9513 10.8841 32.0365 11.2988 32.0365 11.8187V16.1312H31.0309V15.2449H30.9797C30.9115 15.3869 30.7979 15.5389 30.6388 15.7008C30.4797 15.8628 30.2681 16.0005 30.0039 16.1142C29.7397 16.2278 29.4172 16.2846 29.0365 16.2846ZM29.1899 15.3812C29.5877 15.3812 29.9229 15.3031 30.1956 15.1469C30.4712 14.9906 30.6786 14.7889 30.8178 14.5417C30.9598 14.2946 31.0309 14.0346 31.0309 13.7619V12.8415C30.9882 12.8926 30.8945 12.9395 30.7496 12.9821C30.6076 13.0219 30.4428 13.0574 30.2553 13.0886C30.0706 13.117 29.8902 13.1426 29.7141 13.1653C29.5408 13.1852 29.4002 13.2022 29.2922 13.2165C29.0309 13.2505 28.7865 13.3059 28.5593 13.3826C28.3348 13.4565 28.153 13.5687 28.0138 13.7193C27.8774 13.867 27.8093 14.0687 27.8093 14.3244C27.8093 14.6738 27.9385 14.938 28.197 15.117C28.4584 15.2932 28.7894 15.3812 29.1899 15.3812ZM34.8778 7.40395V16.1312H33.8721V7.40395H34.8778ZM39.4641 16.2676C38.8334 16.2676 38.2894 16.1284 37.832 15.85C37.3774 15.5687 37.0266 15.1767 36.7794 14.6738C36.5351 14.1682 36.413 13.5801 36.413 12.9096C36.413 12.2392 36.5351 11.6483 36.7794 11.1369C37.0266 10.6227 37.3703 10.2221 37.8107 9.9352C38.2539 9.64543 38.7709 9.50054 39.3618 9.50054C39.7027 9.50054 40.0394 9.55736 40.3718 9.671C40.7041 9.78463 41.0067 9.96929 41.2794 10.225C41.5522 10.4778 41.7695 10.813 41.9314 11.2307C42.0934 11.6483 42.1743 12.1625 42.1743 12.7733V13.1994H37.1289V12.3301H41.1516C41.1516 11.9608 41.0777 11.6312 40.93 11.3415C40.7851 11.0517 40.5777 10.823 40.3078 10.6554C40.0408 10.4878 39.7255 10.404 39.3618 10.404C38.9612 10.404 38.6147 10.5034 38.322 10.7022C38.0323 10.8983 37.8093 11.154 37.653 11.4693C37.4968 11.7846 37.4186 12.1227 37.4186 12.4835V13.063C37.4186 13.5574 37.5039 13.9764 37.6743 14.3201C37.8476 14.6611 38.0877 14.921 38.3945 15.1C38.7013 15.2761 39.0578 15.3642 39.4641 15.3642C39.7283 15.3642 39.9669 15.3272 40.18 15.2534C40.3959 15.1767 40.582 15.063 40.7382 14.9125C40.8945 14.7591 41.0152 14.5687 41.1005 14.3415L42.072 14.6142C41.9698 14.9437 41.7979 15.2335 41.5564 15.4835C41.3149 15.7307 41.0166 15.9238 40.6615 16.063C40.3064 16.1994 39.9073 16.2676 39.4641 16.2676Z" fill="white"/>
</g>
</svg>
