<svg width="27" height="21" viewBox="0 0 27 21" fill="none" xmlns="http://www.w3.org/2000/svg">
<path d="M12.4399 8.17957C12.9921 8.17957 13.4399 8.62728 13.4399 9.17957V16.5565C13.4399 17.1088 12.9921 17.5565 12.4399 17.5565H3.74357L0.726973 19.4501C0.590755 19.5355 0.413987 19.433 0.420332 19.2723L0.546309 16.0809V9.17957C0.546309 8.62739 0.994168 8.17973 1.54631 8.17957H12.4399Z" fill="#B7B7BA"/>
<path d="M8.62781 0.645142C7.87361 0.645191 7.15041 0.944895 6.61707 1.47815C6.08366 2.01156 5.78406 2.73552 5.78406 3.48987V12.8668C5.78413 13.6211 6.08372 14.3442 6.61707 14.8776C7.15042 15.4109 7.87355 15.7105 8.62781 15.7106H19.8641C20.0422 15.7106 20.2128 15.7819 20.3387 15.9078H20.3397L23.6835 19.2506C23.8352 19.4028 24.0284 19.5073 24.2391 19.5494C24.4498 19.5915 24.6685 19.57 24.8671 19.4879C25.0654 19.4058 25.235 19.2669 25.3544 19.0885C25.4738 18.9099 25.5379 18.6998 25.538 18.485V3.48987C25.538 2.73552 25.2384 2.01156 24.705 1.47815C24.1715 0.944743 23.4476 0.645142 22.6932 0.645142H8.62781ZM20.3495 7.50549C20.5277 7.50552 20.699 7.57673 20.8251 7.70276C20.951 7.82879 21.0214 8.00019 21.0214 8.17834C21.0213 8.35631 20.9508 8.52702 20.8251 8.65295C20.699 8.77899 20.5277 8.8502 20.3495 8.85022C20.1712 8.85022 20 8.77901 19.8739 8.65295C19.7481 8.52701 19.6777 8.35635 19.6776 8.17834C19.6776 8.00015 19.7479 7.8288 19.8739 7.70276C20 7.57671 20.1712 7.50549 20.3495 7.50549ZM15.661 7.50549C15.8392 7.50554 16.0106 7.57675 16.1366 7.70276C16.2625 7.82878 16.3329 8.00021 16.3329 8.17834C16.3328 8.35629 16.2623 8.52703 16.1366 8.65295C16.0106 8.77897 15.8392 8.85017 15.661 8.85022C15.4827 8.85022 15.3115 8.77901 15.1854 8.65295C15.0596 8.52701 14.9892 8.35637 14.9891 8.17834C14.9891 8.00013 15.0594 7.8288 15.1854 7.70276C15.3115 7.57671 15.4827 7.50549 15.661 7.50549ZM10.9725 7.50549C11.1506 7.50556 11.3212 7.57688 11.4471 7.70276C11.5732 7.82881 11.6444 8.00008 11.6444 8.17834C11.6443 8.35648 11.5731 8.52699 11.4471 8.65295C11.3212 8.77891 11.1507 8.85015 10.9725 8.85022C10.7943 8.85022 10.623 8.77901 10.4969 8.65295C10.3711 8.527 10.2998 8.35639 10.2997 8.17834C10.2997 8.00011 10.3709 7.82881 10.4969 7.70276C10.623 7.57671 10.7943 7.50549 10.9725 7.50549Z" fill="#B7B7BA" stroke="white"/>
</svg>
