<svg width="15" height="13" viewBox="0 0 15 13" fill="none" xmlns="http://www.w3.org/2000/svg">
<path fill-rule="evenodd" clip-rule="evenodd" d="M5.68533 12.8246H8.81831C11.0186 12.8246 12.1191 12.8246 12.9094 12.3064C13.2504 12.0829 13.5441 11.7945 13.7737 11.4576C14.3018 10.6821 14.3018 9.60132 14.3018 7.44123C14.3018 5.28042 14.3018 4.20037 13.7737 3.42488C13.5441 3.08797 13.2504 2.79955 12.9094 2.57607C12.4018 2.24261 11.7659 2.12346 10.7923 2.08116C10.3277 2.08116 9.92797 1.73572 9.83703 1.28805C9.76753 0.960131 9.58695 0.666267 9.3258 0.456119C9.06466 0.245971 8.73897 0.132426 8.40378 0.134676H6.09986C5.40333 0.134676 4.80338 0.617597 4.66661 1.28805C4.57567 1.73572 4.17594 2.08116 3.71134 2.08116C2.73845 2.12346 2.10255 2.24331 1.59425 2.57607C1.25347 2.7996 0.96002 3.08801 0.730634 3.42488C0.201889 4.20037 0.201889 5.28042 0.201889 7.44123C0.201889 9.60132 0.201889 10.6814 0.729929 11.4576C0.958347 11.7931 1.25162 12.0815 1.59425 12.3064C2.38455 12.8246 3.48504 12.8246 5.68533 12.8246ZM7.25182 4.5571C5.62963 4.5571 4.31411 5.84794 4.31411 7.44052C4.31411 9.03381 5.62963 10.3246 7.25182 10.3246C8.87401 10.3246 10.1895 9.03381 10.1895 7.44123C10.1895 5.84794 8.87401 4.5571 7.25182 4.5571ZM7.25182 5.71047C6.27893 5.71047 5.48934 6.48526 5.48934 7.44123C5.48934 8.39649 6.27893 9.17128 7.25182 9.17128C8.22471 9.17128 9.0143 8.39649 9.0143 7.44123C9.0143 6.48526 8.22471 5.71047 7.25182 5.71047ZM10.5808 5.13378C10.5808 4.81513 10.8438 4.5571 11.1688 4.5571H11.9513C12.2756 4.5571 12.5393 4.81513 12.5393 5.13378C12.5378 5.2881 12.4751 5.43552 12.365 5.54365C12.2549 5.65178 12.1063 5.71178 11.952 5.71047H11.1688C11.0923 5.71121 11.0164 5.69689 10.9455 5.66831C10.8745 5.63973 10.8099 5.59746 10.7553 5.5439C10.7007 5.49035 10.6572 5.42657 10.6273 5.3562C10.5973 5.28584 10.5815 5.21026 10.5808 5.13378Z" fill="white"/>
</svg>
