<svg width="43" height="43" viewBox="0 0 43 43" fill="none" xmlns="http://www.w3.org/2000/svg">
<circle cx="21.1304" cy="21.1304" r="21.1304" fill="#B7CF53"/>
<path d="M21.0061 11C21.6841 11.0038 23.3803 11.0203 25.1832 11.0927L25.823 11.1206C27.6373 11.2057 29.4504 11.353 30.3505 11.6032C31.5503 11.941 32.4924 12.9239 32.8111 14.1709C33.3189 16.1519 33.3824 20.0149 33.39 20.9508L33.3913 21.1438V21.3648C33.3824 22.3007 33.3189 26.1649 32.8111 28.1447C32.4886 29.3955 31.5453 30.3797 30.3505 30.7124C29.4504 30.9625 27.6373 31.1098 25.823 31.1949L25.1832 31.2241C23.3803 31.2952 21.6841 31.313 21.0061 31.3156L20.7077 31.3168H20.384C18.9493 31.3079 12.949 31.2432 11.0395 30.7124C9.84096 30.3746 8.89763 29.3917 8.57895 28.1447C8.0711 26.1637 8.00762 22.3007 8 21.3648V20.9508C8.00762 20.0149 8.0711 16.1506 8.57895 14.1709C8.90144 12.9201 9.84477 11.9359 11.0408 11.6045C12.949 11.0724 18.9505 11.0076 20.3852 11H21.0061ZM18.1558 16.7145V25.6036L25.7735 21.159L18.1558 16.7145Z" fill="white"/>
</svg>
