<svg width="31" height="30" viewBox="0 0 31 30" fill="none" xmlns="http://www.w3.org/2000/svg">
<g clip-path="url(#clip0_1_3836)">
<path d="M14.9255 29.7865C23.1508 29.7865 29.8187 23.1186 29.8187 14.8933C29.8187 6.66794 23.1508 0 14.9255 0C6.70016 0 0.0322266 6.66794 0.0322266 14.8933C0.0322266 23.1186 6.70016 29.7865 14.9255 29.7865Z" fill="#55ACEE"/>
<path d="M24.0474 10.7007C23.4091 10.9837 22.7226 11.1751 22.0026 11.2606C22.7377 10.8201 23.3019 10.1232 23.5682 9.29142C22.8803 9.6995 22.1181 9.9955 21.3075 10.1551C20.6582 9.4635 19.7329 9.03125 18.7084 9.03125C16.7428 9.03125 15.1485 10.6255 15.1485 12.5912C15.1485 12.8702 15.1801 13.1418 15.2412 13.4025C12.2826 13.2541 9.65927 11.8369 7.90338 9.6825C7.59701 10.2082 7.42125 10.8201 7.42125 11.4724C7.42125 12.7072 8.0502 13.7972 9.00485 14.4355C8.4216 14.4172 7.87232 14.2571 7.39259 13.9897C7.39232 14.0049 7.39232 14.02 7.39232 14.0349C7.39232 15.7597 8.61994 17.1984 10.2482 17.5252C9.94977 17.607 9.6346 17.6503 9.31044 17.6503C9.08052 17.6503 8.85777 17.6283 8.6406 17.5868C9.09352 19.0008 10.408 20.0301 11.9661 20.0591C10.7475 21.014 9.21277 21.5829 7.54445 21.5829C7.25772 21.5829 6.97365 21.5662 6.69568 21.533C8.27029 22.5435 10.1419 23.1326 12.1523 23.1326C18.7002 23.1326 22.2811 17.7082 22.2811 13.0035C22.2811 12.8492 22.2776 12.6955 22.2707 12.5432C22.9669 12.0413 23.5703 11.4145 24.0474 10.7007Z" fill="#F1F2F2"/>
</g>
<defs>
<clipPath id="clip0_1_3836">
<rect width="30" height="30" fill="white" transform="translate(0.0322266)"/>
</clipPath>
</defs>
</svg>
